<svg width="456" height="456" viewBox="0 0 456 456" fill="none" xmlns="http://www.w3.org/2000/svg">
<circle cx="220" cy="236" r="218.5" stroke="#B4B4B4" stroke-opacity="0.5" stroke-width="3"/>
<path d="M374 6.83325L312.5 34.1666V75.1666C312.5 113.092 338.74 148.557 374 157.167C409.26 148.557 435.5 113.092 435.5 75.1666V34.1666L374 6.83325Z" fill="#1E1E1E"/>
<path d="M374 11L316 36.8182V75.5455C316 111.368 340.747 144.867 374 153C407.253 144.867 432 111.368 432 75.5455V36.8182L374 11Z" fill="white"/>
<path d="M374 15L319 39.3636V75.9091C319 109.714 342.467 141.325 374 149C405.533 141.325 429 109.714 429 75.9091V39.3636L374 15Z" fill="#1E1E1E"/>
<path d="M345.183 80.1H342.583V86H340.023V72H342.583V77.86H345.263L349.283 72H352.043L347.263 78.78L352.223 86H349.283L345.183 80.1ZM354.007 72H356.567V81.94L364.087 72H366.507V86H363.947V76.08L356.427 86H354.007V72ZM380.933 83.82V86H370.433V72H380.653V74.18H373.033V77.82H379.793V79.96H373.033V83.82H380.933ZM393.051 78.72C393.944 78.96 394.624 79.3733 395.091 79.96C395.558 80.5333 395.791 81.2533 395.791 82.12C395.791 83.3467 395.338 84.3 394.431 84.98C393.524 85.66 392.211 86 390.491 86H383.851V72H390.111C391.684 72 392.911 72.3133 393.791 72.94C394.671 73.5667 395.111 74.4533 395.111 75.6C395.111 76.3333 394.931 76.9667 394.571 77.5C394.224 78.0333 393.718 78.44 393.051 78.72ZM386.411 77.98H389.891C390.731 77.98 391.371 77.8133 391.811 77.48C392.251 77.1467 392.471 76.6533 392.471 76C392.471 75.3467 392.251 74.8533 391.811 74.52C391.371 74.1733 390.731 74 389.891 74H386.411V77.98ZM390.411 84C392.251 84 393.171 83.3067 393.171 81.92C393.171 80.56 392.251 79.88 390.411 79.88H386.411V84H390.411ZM408.04 72V86H405.44V74.18H402.48V72H408.04Z" fill="white"/>
</svg>
