<svg width="711" height="477" viewBox="0 0 711 477" fill="none" xmlns="http://www.w3.org/2000/svg">
<path d="M295.418 431L296.357 424.399L290.72 418.741L283.674 415.912L275.689 417.798L264.415 424.399L258.308 422.513L256.899 429.585C250.323 428.8 236.606 424.399 234.351 413.083C232.097 401.767 241.241 408.054 246.095 412.611L247.504 405.067L246.095 402.238L252.671 395.166L258.308 393.751L259.717 383.85L269.112 381.021L266.294 376.777L271.931 371.591L266.294 367.347L269.112 363.104L266.294 357.446V354.617L275.219 354.145L279.447 349.43V360.275L282.265 353.202L289.781 354.145L295.418 363.104L297.766 361.689L297.297 356.974L299.645 356.031L306.222 360.275L309.51 359.332L314.207 361.689V365.461L320.784 369.705L328.3 377.72C328.926 377.877 329.803 378.286 328.3 378.663C326.796 379.04 329.865 376.934 331.588 375.834L326.421 367.347L317.965 360.275L310.449 356.031L304.343 350.373L309.51 347.073V333.399L301.055 330.098L293.539 325.383V318.311L291.19 317.368L292.599 313.124L293.539 299.922L289.781 305.58H285.083V298.979L282.265 297.093L276.158 296.15V289.078L279.447 286.72V273.047L282.265 270.218L277.568 264.088L274.279 266.446L267.233 265.031L264.415 258.43L269.582 256.073L276.158 251.358L281.326 256.073L292.599 255.13L300.115 249.943L306.222 251.358L309.51 249L314.677 255.13H324.072L320.784 262.202L324.542 273.99L328.3 276.347V285.777L342.392 286.249L343.331 292.378H347.089V305.58L350.847 307.466L352.726 308.409H359.303L356.954 313.124L364 314.539V319.725L361.651 323.969L354.605 326.326L352.726 328.212L355.545 331.041L359.303 336.699V344.244L358.363 348.016L343.331 350.373L341.452 352.259V357.446V364.047L332.997 374.891L317.965 392.337L299.645 406.953L293.539 412.611L294.009 415.44L299.645 415.912V428.643L295.418 431Z" stroke="white"/>
<path d="M86.6078 101.553L88.4871 95L96.0043 98.7447L99.2931 97.8085L103.991 101.553L105.871 107.17L111.039 111.851L114.797 114.191L119.026 111.851L129.362 119.809L127.013 127.766L135 137.596V145.085H124.194L121.375 151.17L116.677 157.255L108.22 161V164.277L103.991 162.404L95.5345 161V164.277L91.306 174.574L89.8966 177.383L95.5345 180.66L89.8966 182.532H83.319H77.681L72.0431 185.34L68.7543 182.532L59.3578 190.021L58.4181 197.043V199.851V205H54.1897L51.8405 202.191H43.8534L41.9741 199.851V197.043H37.7457L33.5172 194.702L32.1078 190.957V187.681L30.2284 182.532V178.787L28.819 174.574V158.66L26 153.979L61.2371 117L68.7543 114.191L72.0431 107.17H83.319L86.6078 101.553Z" stroke="white"/>
<path d="M291.301 59.0234H294.603L297.432 57.6187L301.677 52.9365L305.45 52L306.865 56.214L309.223 56.6823L311.109 54.3411L316.769 52.9365L323.843 53.8729L327.616 57.6187L328.559 63.7057L333.275 64.6421L337.048 66.9833L333.275 73.5385L334.218 81.9666H336.105L339.406 84.3077V88.5217L342.707 89.9264V94.1405L344.122 96.4816L355.913 95.5452L360.629 101.632L359.214 106.314L363.93 110.528L372.891 111.933L379.965 109.124L384.681 105.378L393.17 109.124L390.341 114.274L396 120.361L394.585 128.789L390.341 131.599L387.039 137.686L390.341 140.495L388.926 145.645L383.266 144.241L381.852 149.391L377.607 150.796L375.721 149.391L374.306 151.732L369.118 149.391V144.241H362.515L365.345 146.582L363.93 149.391L359.214 151.732L360.629 159.224L355.913 172.334L349.782 179.826L347.424 182.167H337.048L329.974 183.572L328.559 188.254H323.843L320.541 182.167L317.712 186.381L316.769 183.572H312.524L308.751 190.595L302.62 192L301.205 188.254L296.961 184.977V175.612L292.245 165.779L293.188 155.01L296.017 150.796L302.62 147.987L301.205 140.963L302.62 128.321L299.79 120.829L294.603 116.615L293.188 107.719L298.376 100.227L299.79 96.9498H294.603V90.3946L292.245 85.7124L293.188 84.7759L294.603 80.5619L293.188 75.8796L288 74.0067V66.515L291.301 64.1739V59.0234Z" stroke="white"/>
<path d="M80 29.5L77.5 35.5M77.5 35.5L75 41.5V45.5V54.5H80V61.5L85.5 69.5L89 77L85.5 84L89 94H99L105 100.5L111 109H118.5L129 116.5V109V100.5H136L141 94H150.5L156.5 100.5V94L163 87V77V69.5V61.5L156.5 54.5L150.5 45.5V36.5V23.5V19H141H136H129H118.5H111L105 23.5H99V29.5H95V36.5H89L77.5 35.5Z" stroke="white"/>
<path d="M133.479 133.455C134.997 133.455 139.359 134.196 140.17 132.576C141.051 130.813 139.932 128.602 140.853 126.862C141.783 125.106 143.232 125.026 145.249 125.104C145.905 125.129 150.324 125.831 150.621 126.203C151.709 127.563 153.882 125.752 154.576 124.884C155.782 123.377 157.15 122.906 158.972 122.906C160.876 122.906 162.781 122.906 164.685 122.906C165.52 122.906 166.964 122.57 167.42 123.346C167.712 123.841 168.197 123.942 168.543 124.322C168.882 124.695 168.797 125.836 169.349 125.958C174.179 127.032 177.119 125.705 179.532 121.148C180.276 119.741 181.83 118.752 182.95 117.632C184.137 116.445 185.608 115.486 187.004 114.555C187.867 113.98 188.245 112.848 189.104 112.357C190.422 111.604 192.033 110.055 192.351 108.621C193.149 105.03 195.69 107.117 198.089 106.106C198.926 105.754 199.964 106.048 200.727 105.667C201.467 105.297 201.961 104.602 202.582 104.104C203.4 103.45 206.2 106.464 207.979 105.081C212.548 101.527 208.865 97.1145 208.638 92.5787C208.537 90.5662 209.311 89.1639 209.517 87.3044C209.738 85.3157 209.957 83.4377 209.957 81.3708C209.957 80.4529 209.078 79.9912 209.078 79.1732C209.078 78.2307 209.879 78.0621 210.396 77.4151C211.255 76.341 213.192 75.1429 214.352 74.4605C216.744 73.0533 215.515 70.8823 216.647 68.8443C217.091 68.0453 217.835 67.4906 218.21 66.6467C218.729 65.4795 217.868 64.4391 217.868 63.3502C217.868 62.2562 219.012 59.8418 219.846 59.1747C221.536 57.8226 218.589 54.4429 221.384 53.119C222.948 52.3781 225.042 53.488 226.659 52.6795C229.4 51.3086 228.21 49.3321 227.562 47.0633C227.054 45.2863 223.723 45.1098 222.068 45.1098C220.927 45.1098 220.077 44.3742 218.943 44.8901C217.637 45.4835 216.027 46.6921 214.596 46.2331C213.243 45.799 209.517 45.1839 209.517 43.3517C209.517 42.3262 209.517 41.3006 209.517 40.2751C209.517 37.9845 209.743 35.7525 207.564 34.3659C205.875 33.2913 202.018 34.1217 200.043 34.1217C197.204 34.1217 194.644 32.9823 191.96 32.1438C190.082 31.5569 188.38 30.6055 186.418 30.6055C185.254 30.6055 184.09 30.6055 182.926 30.6055C181.606 30.6055 181.454 29.5815 180.411 28.8474C178.264 27.3368 176.843 26.0143 174.355 25.4288C172.21 24.9241 169.531 24.4521 167.323 24.4521C164.989 24.4521 162.341 24.4054 160.046 23.9882C157.864 23.5914 155.444 22.9009 153.795 24.5498C151.376 26.9689 153.889 31.9827 151.719 34.5856C150.901 35.5678 150.621 38.7463 150.621 40.0553C150.621 42.0285 150.17 44.6456 150.962 46.4284C151.851 48.4285 151.835 50.6522 153.6 52.2399C155.084 53.5763 156.629 56.0012 158.337 56.9771C161.338 58.6919 164.465 64.6109 165.467 67.8676C166.541 71.3591 167.472 77.617 165.564 80.9557C165.075 81.8115 164.584 82.3801 164.002 83.1289C163.316 84.0111 162.887 85.2181 162.268 85.9614C161.666 86.6833 162.269 87.9599 162.024 88.8183C161.973 88.9978 160.015 90.1036 159.655 90.2834C157.043 91.5898 156.334 91.8441 156.334 94.7764C156.334 95.7131 156.783 100.272 155.675 100.026C154.51 99.7673 153.4 98.2897 152.379 97.6333C150.526 96.4421 149.472 96.5345 147.153 96.5345C146.032 96.5345 144.921 97.5741 143.979 97.3647C142.555 97.0482 140.193 93.6726 138.753 94.4345C137.511 95.0923 136.524 98.777 135.774 100.051C134.505 102.208 132.327 101.091 130.402 102.053C126.738 103.885 129.691 110.664 129.523 113.676C129.488 114.309 128.741 115.441 128.205 115.776C127.498 116.218 127.466 117.395 127.228 118.169C126.587 120.254 126.886 122.677 126.886 124.86C126.886 126.759 128.872 128.343 129.523 130.134C129.802 130.899 130.607 132.136 131.501 132.136C132.42 132.136 132.95 133.571 133.919 133.894" stroke="white" stroke-linecap="round"/>
<path d="M167.323 127.301C167.682 128.897 169.398 130.617 168.641 131.941C167.754 133.493 165.564 132.801 165.564 135.457C165.564 137.19 166.883 137.568 166.883 139.266C166.883 140.818 166.39 142.313 165.467 143.466C163.207 146.291 166.654 149.026 167.298 151.28C167.706 152.707 167.342 154.337 166.346 155.333C165.08 156.599 166.883 158.11 166.883 159.387C166.883 160.632 165.452 161.428 165.101 162.659C164.51 164.726 165.125 166.286 165.125 168.397C165.125 170.057 166.004 171.371 166.004 173.012C166.004 174.978 165.686 175.896 164.783 177.603C163.781 179.495 165.564 179.284 165.564 181.143C165.564 183.015 164.557 183.589 164.221 185.099C163.382 188.878 163.367 192.333 163.367 196.307C163.367 198.193 162.488 199.058 162.488 200.922C162.488 202.401 163.367 203.976 163.367 205.317C163.367 207.188 163.806 208.843 163.806 210.714C163.806 212.292 165.03 213.947 165.125 215.646C165.328 219.302 168.724 221.624 169.496 225.096C170.361 228.989 167.469 230.151 164.246 230.151C160.529 230.151 158.769 224.955 158.117 222.019C157.689 220.093 156.319 220.378 154.576 220.481C153.912 220.52 153.754 221.751 153.477 221.751C153.238 221.751 153.006 221.092 152.916 220.921C152.579 220.285 151.909 220.481 151.255 220.481C150.191 220.481 149.011 220.674 148.081 220.041C147.09 219.367 146.977 217.844 145.517 217.844C144.329 217.844 140.511 217.193 140.511 215.426C140.511 211.26 141.183 206.856 135.872 206.856C134.159 206.856 131.584 206.777 130.744 205.098C130.375 204.359 130.511 203.057 129.45 202.924C128.078 202.753 126.516 202.823 125.128 202.9C124.093 202.957 124.058 203.642 123.468 202.46C122.998 201.521 122.691 201.052 122.466 200.043C122.284 199.22 120.929 198.903 120.293 198.602C119.149 198.06 119.285 197.481 118.755 196.527C117.897 194.983 115.312 195.819 114.238 193.67C113.42 192.035 113.802 190.995 115.117 189.812C115.678 189.307 117.244 185.841 116.069 185.319C113.479 184.168 111.484 184.834 112.406 181.607C112.576 181.012 113.261 181.007 113.261 180.264C113.261 179.165 113.261 178.067 113.261 176.968C113.261 174.939 110.427 174.763 110.184 172.573C109.971 170.65 109.184 169.811 109.72 167.933C110.152 166.423 108.866 164.976 108.866 163.562C108.866 162.931 109.333 162.463 109.964 162.463C110.963 162.463 111.241 161.626 111.942 161.584C113.458 161.495 115.115 160.638 115.8 159.191C116.509 157.695 115.795 155.037 117.412 154.112C118.593 153.437 120.758 154.039 121.807 152.989C122.384 152.413 123.052 152.624 123.565 152.11C124.142 151.534 123.809 149.709 123.809 148.936C123.809 147.515 123.169 144.882 125.128 144.882C126.994 144.882 128.891 145.322 130.598 145.322C131.412 145.322 132.226 145.322 133.039 145.322C134.559 145.322 134.023 145.028 134.578 143.808C135.06 142.747 135.677 140.334 135.677 139.169C135.677 137.197 134.612 136.678 133.381 135.31C131.149 132.83 137.813 133.839 138.338 131.477C138.948 128.732 139.849 125.543 143.149 125.543C146.187 125.543 151.701 127.916 154.332 125.763C157.46 123.203 160.399 122.906 164.588 122.906C165.945 122.906 168.567 122.838 168.641 124.762C168.68 125.784 169.086 129.057 168.202 129.499" stroke="white" stroke-linecap="round"/>
<path d="M106.228 271.466C108.832 267.886 109.305 265.059 109.305 260.698C109.305 259.078 109.305 257.458 109.305 255.838C109.305 253.534 107.501 253.033 109.061 251.028C111.489 247.907 114.639 244.644 117.461 241.822C119.192 240.091 119.417 239.961 119.878 237.427C120.101 236.203 122.403 234.546 123.59 234.546C125.517 234.546 127.155 233.667 129.084 233.667C131.059 233.667 132.883 234.106 134.798 234.106C137.465 234.106 137.874 232.992 137.874 230.59C137.874 228.66 136.995 227.196 136.995 225.413C136.995 221.692 139.632 219.803 139.632 216.086C139.632 211.63 139.195 209.195 135.335 206.416C133.82 205.325 132.071 204.157 130.231 203.339C128.056 202.372 124.138 204.059 122.32 202.241C120.92 200.841 120.719 199.213 120.318 197.406C119.765 194.919 118.576 193.917 116.582 193.01C115.5 192.519 113.261 192.502 113.261 190.813C113.261 188.858 115.458 189.07 115.458 187.297C115.458 186.079 110.633 185.575 112.601 184C113.611 183.192 115.127 181.618 113.92 180.679C112.334 179.446 110.624 177.894 110.624 175.869C110.624 175.086 110.485 174.394 110.965 173.793C111.257 173.429 112.029 172.414 111.918 171.913C111.736 171.093 110.117 170.537 109.647 169.691C109.121 168.744 109.073 168.124 108.841 167.078C108.536 165.708 107.916 164.17 106.473 163.758C104.916 163.313 96.9983 159.43 96.9983 162.244C96.9983 165.715 93.4821 167.601 93.4821 171.034C93.4821 171.691 93.6384 172.575 93.4577 173.207C93.2502 173.933 92.2038 174.106 92.1635 175.112C92.0977 176.757 93.1157 178.515 94.8007 178.726C96.0423 178.881 96.9679 181.218 95.6797 181.9C94.0631 182.756 92.5346 181.709 90.8449 181.803C89.0728 181.901 88.0116 183.561 86.0101 183.561C84.252 183.561 82.4939 183.561 80.7358 183.561C79.0287 183.561 77.566 183.699 76.2429 184.782C74.96 185.831 71.9837 186.654 70.529 185.758C65.5933 182.721 65.3705 189.238 62.0803 190.178C58.7568 191.128 59.6385 195.544 59.6385 198.285C59.6385 201.132 52.6264 201.936 55.6828 205.757C56.4334 206.695 58.5206 206.227 59.199 207.075C59.6836 207.681 60.3061 207.889 60.9571 208.272C61.6865 208.701 61.4917 210.035 62.0803 210.372C62.8189 210.794 63.0875 211.507 63.814 211.91C64.6094 212.352 65.3927 212.418 66.2314 212.911C67.6625 213.753 67.4638 215.5 67.55 216.965C67.6086 217.96 69.7774 219.902 70.529 220.579C71.4894 221.443 73.6894 221.36 75.022 221.36C77.6204 221.36 77.3019 222.067 78.001 224.339C78.5337 226.07 78.4747 227.384 80.2963 228.295C84.3161 230.305 86.9311 230.201 88.9891 234.546C90.1184 236.93 90.3511 239.722 91.6263 242.018C92.5668 243.711 94.0244 244.665 94.8983 246.413C95.7677 248.152 95.7826 249.733 95.6797 251.687C95.6242 252.742 93.3339 256.102 94.0193 256.864C94.5566 257.461 96.0558 257.959 96.7785 258.28C97.9048 258.781 97.1698 260.003 97.5355 260.917C98.37 263.004 98.7708 264.772 101.296 264.873C101.712 264.89 104.406 268.883 104.47 269.268C104.736 270.863 106.472 271.074 107.107 272.345" stroke="white" stroke-linecap="round"/>
<path d="M55.2433 205.977C52.9715 206.294 50.117 205.441 48.5527 203.877C47.731 203.055 46.9369 201.877 45.8179 201.557C44.5813 201.204 43.1821 200.615 41.8621 200.238C40.5098 199.852 41.8903 196.564 40.5435 195.965C38.8246 195.201 36.9518 195.535 35.025 195.428C33.1309 195.323 33.2669 192.586 33.2669 191.252C33.2669 189.713 33.7065 188.637 33.7065 187.077C33.7065 185.636 31.5418 184.661 30.3856 184C28.8988 183.151 26.8095 183.561 25.1357 183.561C23.1615 183.561 23.3423 180.835 21.8392 180.923C20.2119 181.019 19.6416 183.897 19.6416 185.099C19.6416 187.548 15.9136 185.906 15.6859 187.956C15.3054 191.38 13.9848 194.094 12.3894 196.966C11.4684 198.624 11.478 199.831 10.0697 201.239C8.94404 202.365 7.00157 202.842 5.82094 204.023C4.6144 205.23 4.88155 206.395 3.18378 206.88C1.9576 207.23 1.62101 209.863 1.62101 210.909C1.62101 212.851 1.18149 214.665 1.18149 216.623C1.18149 219.315 2.96566 218.206 4.25817 219.822C6.40478 222.505 6.89533 225.446 6.89533 228.832C6.89533 234.171 13.3069 226.761 13.9278 232.348C14.0331 233.296 14.8041 235.464 15.344 236.206C17.0189 238.509 19.2229 238.062 22.0346 238.062C26.3704 238.062 26.2345 242.065 26.2345 245.314C26.2345 245.968 27.9854 248.965 28.4077 247.487C28.736 246.338 31.6127 246.852 32.7297 246.852C36.2341 246.852 35.9673 240.21 40.2017 241.676C41.3149 242.061 42.7679 244.242 43.6202 245.094C44.3142 245.788 44.0407 246.355 45.1342 246.413C46.4796 246.484 47.9494 247.025 49.2852 247.268C52.9472 247.933 57.4284 246.256 60.5176 248.073C63.8606 250.04 65.6985 253.006 69.943 253.006C70.5105 253.006 71.5724 252.787 71.9697 253.25C72.4054 253.758 73.2124 255.041 73.7034 255.301C75.1996 256.093 76.5363 256.962 78.294 256.962C81.2459 256.962 86.3276 259.01 88.1101 255.643C88.794 254.351 91.0535 254.324 92.3833 254.324C94.5904 254.324 96.098 253.981 97.5355 252.224C99.5586 249.752 95.9139 246.299 94.1414 245.314C91.5961 243.9 90.8449 240.602 90.8449 237.842C90.8449 234.79 88.0856 230.59 84.7892 230.59C83.3171 230.59 79.9963 231.218 79.0754 229.711C78.2468 228.355 78.5382 226.631 78.5382 225.096C78.5382 220.251 71.6179 223.737 69.8453 222.141C67.9673 220.451 68.9947 213.386 65.7919 213.009C64.0893 212.809 63.1657 212.131 61.8362 211.349C60.3878 210.497 60.5502 208.64 59.4188 207.735C57.5305 206.224 53.6587 206.046 51.2875 205.097C50.5932 204.82 48.0499 203.583 47.7713 203.095C46.9757 201.703 44.5776 203.027 43.4737 201.923C43.1326 201.582 43.4016 200.282 43.376 199.823C43.3075 198.589 42.1248 198.918 41.6179 198.285C41.1452 197.694 39.2744 197.113 38.5413 196.746" stroke="white" stroke-linecap="round"/>
<path d="M106.668 269.708C107.934 268.135 109.745 266.089 109.745 263.994C109.745 261.87 109.745 259.745 109.745 257.621C109.745 254.814 108.415 250.98 110.428 248.391C111.24 247.348 112.974 246.654 114.14 246.071C115.88 245.201 116.208 243.075 117.461 241.822C118.437 240.847 119.754 239.921 120.635 238.843C121.426 237.876 120.539 233.628 121.856 233.252C124.895 232.383 127.921 232.348 131.257 232.348C131.819 232.348 135.913 232.796 136.214 232.495C137.097 231.611 137.63 228.527 137.85 227.318C138.109 225.892 137.288 223.833 138.314 222.679C139.334 221.531 138.68 218.782 139.852 217.844C142.316 215.873 146.231 217.82 147.788 219.822C148.515 220.757 150.163 221.104 151.304 220.896C152.389 220.699 154.981 220.157 155.797 219.504C157.42 218.206 157.43 221.129 157.677 221.995C158.044 223.278 159.634 224.381 160.827 224.778C162.109 225.206 163.995 224.876 165.345 224.876C166.98 224.876 167.821 226.102 169.081 226.732C170.15 227.266 173.381 227.064 173.915 227.733C174.711 228.728 176.758 229.883 177.871 228.832C179.172 227.604 181.321 223.402 183.585 224.534C184.354 224.919 184.98 225.829 185.954 225.071C186.608 224.563 186.577 223.635 187.541 224.461C188.185 225.013 189.303 226.836 190.276 226.537C190.959 226.326 191.717 225.35 192.376 225.316C194.317 225.213 197.253 224.794 199.164 225.34C200.453 225.708 202.145 226.366 203.022 224.876C204.85 221.769 209.522 224.013 211.178 225.853C211.475 226.183 212.043 233.918 211.471 234.082C210.282 234.421 208.558 234.106 207.319 234.106C205.158 234.106 204.216 235.267 202.68 236.524C201.528 237.467 200.092 237.779 199.066 238.599C197.232 240.066 196.893 236.304 195.233 236.304C193.599 236.304 193.01 238.062 191.497 238.062C189.442 238.062 189.35 237.407 187.761 236.524C186.326 235.726 185.449 234.853 184.366 236.206C183.227 237.63 184.025 237.945 184.025 239.6C184.025 242.298 177.871 237.342 177.871 241.798C177.871 244.961 174.826 245.534 172.377 245.534C169.849 245.534 167.302 245.726 165.345 247.292C164.735 247.78 163.52 249.854 163.391 250.564C163.138 251.959 160.81 252.072 160.73 253.445C160.49 257.514 157.987 258.517 154.137 258.72C153.21 258.768 152.64 259.599 151.719 259.599C150.848 259.599 149.978 259.599 149.107 259.599C147.707 259.599 146.307 259.599 144.907 259.599C143.315 259.599 142.016 260.113 140.731 261.113C139.235 262.276 137.825 261.318 136.653 260.38C135.044 259.092 130.136 259.095 128.107 259.696C125.704 260.409 122.618 260.985 120.83 262.773C119.069 264.535 116.814 267.484 114.482 268.292C113.19 268.739 111.745 269.268 110.404 269.268C109.018 269.268 107.823 270.587 106.228 270.587" stroke="white" stroke-linecap="round"/>
<path d="M208.199 108.841C207.829 106.902 207.463 105.506 208.418 103.787C208.981 102.774 209.827 101.873 210.298 100.93C211.073 99.3801 210.396 95.943 210.396 94.2391C210.396 88.8746 210.099 83.4296 210.396 78.0743C210.425 77.5543 212.278 76.8772 212.789 76.7313C213.358 76.5686 213.882 74.2316 213.912 73.679C214.016 71.8226 214.709 70.5804 216.208 69.3814C218.016 67.9344 219.187 68.0564 219.187 65.328C219.187 62.6811 219.437 60.9179 220.505 58.5153C220.934 57.5503 221.003 56.6163 221.482 55.6584C222.099 54.4241 222.649 55.011 223.802 54.7549C225.08 54.471 225.587 53.2153 226.659 52.6794C227.391 52.3133 228.37 52.4777 229.125 52.1422C231.652 51.019 232.693 48.8398 233.911 46.6481C235.016 44.6587 236.461 44.761 238.526 45.7935C241.597 47.3288 242.234 46.4897 245.339 45.1098C247.191 44.2866 249.668 40.2648 250.857 44.4261C251.098 45.2697 252.337 46.2642 252.688 47.4051C253.391 49.6897 255.27 49.0655 257.377 49.0655C258.618 49.0655 259.183 48.1395 260.405 48.1865C261.781 48.2394 262.859 48.9847 263.921 49.7492C265.343 50.773 264.932 55.5073 266.216 55.6584C269.744 56.0734 271.389 52.8445 272.467 50.0422C273.524 47.2953 277.275 49.1511 279.5 49.0655C281.08 49.0047 281.284 47.3074 283.138 47.3074C284.656 47.3074 285.114 47.353 285.995 48.7236C287.298 50.7514 286.874 53.4351 286.874 55.7561C286.874 57.6516 287.347 57.5462 288.852 57.8805C290.154 58.1699 290.272 59.0183 290.732 60.0537C291.604 62.0158 290.563 63.3163 289.413 64.3513C287.327 66.2285 285.995 66.5425 285.995 69.7233C285.995 75.2987 293.906 73.9866 293.906 79.6126C293.906 80.3629 294.287 82.6656 293.809 83.2509C293.274 83.9039 292.161 84.1201 291.709 84.9113C290.246 87.4701 293.78 87.6661 293.906 89.9415C293.966 91.0139 294.491 91.8277 294.321 93.0182C294.181 94.0018 293.467 94.7144 293.467 95.6553C293.467 97.8696 296.983 96.7429 296.983 98.732C296.983 101.003 296.548 101.907 294.981 103.567C294.154 104.442 290.532 107.372 292.368 108.841C293.141 109.459 292.588 113.323 292.588 114.335C292.588 116.815 290.705 117.168 293.247 119.146C295.237 120.694 297.131 120.492 298.301 123.126C299.281 125.329 300.06 126.708 300.06 129.279C300.06 131.61 301.378 132.39 301.378 134.553C301.378 135.88 301.253 136.295 300.597 137.41C300.251 137.998 299.431 139.055 299.644 139.803C299.932 140.808 300.879 141.224 300.939 142.245C300.954 142.504 301.426 144.305 301.598 144.443C303.2 145.725 301.286 147.847 300.06 148.496C298.248 149.455 295.664 150.029 294.443 151.915C293.576 153.255 293.246 154.959 291.709 155.773C289.968 156.695 290.39 159.485 290.39 161.145C290.39 164.252 287.873 163.334 286.092 164.759C283.974 166.453 278.486 168.663 275.983 165.882C275.266 165.085 274.999 163.654 274.567 162.683C274.071 161.568 273.118 160.904 272.711 159.729C272.048 157.813 271.839 154.877 270.782 153.233C269.315 150.951 265.698 150.606 263.335 152.11C261.387 153.349 260.113 154.552 257.621 154.552C255.442 154.552 252.966 154.112 250.613 154.112C248.701 154.112 246.582 154.552 244.899 154.552C243.133 154.552 239.442 153.897 237.867 154.772C235.979 155.82 234.047 156.845 231.957 155.626C229.773 154.352 227.675 154.552 225.12 154.552C223.64 154.552 221.948 151.702 221.482 150.596C221.163 149.84 221.838 148.058 221.165 147.519C220.137 146.697 218.804 146.097 217.673 145.224C215.501 143.549 218.134 141.576 219.724 140.145C220.6 139.357 221.599 140.544 222.483 139.168C222.994 138.373 223.142 137.721 223.142 136.775C223.142 135.584 222.386 136.003 221.922 135.213C221.344 134.231 222.698 133.159 223.142 132.38C223.556 131.656 221.23 130.683 220.53 130.158C219.841 129.642 220.432 127.788 219.626 127.741C218.897 127.698 217.279 127.657 216.794 127.033C216.123 126.17 215.939 125.128 215.133 124.322C213.813 123.002 212.728 122.244 211.739 120.513C211.33 119.798 209.536 116.76 209.957 116.313C210.379 115.864 211.752 114.709 211.031 114.091C209.419 112.71 208.453 110.923 207.759 108.841" stroke="white" stroke-linecap="round"/>
<path d="M292.148 163.782C286.699 163.782 283.617 169.497 277.546 167.396C275.187 166.579 274.439 164.792 273.249 162.708C272.775 161.879 272.809 161.285 272.809 160.266C272.809 158.638 272.26 158.532 271.588 157.189C271.086 156.186 271.93 155.258 271.93 154.308C271.93 153.182 270.558 151.5 269.513 151.036C267.587 150.18 266.273 149.717 264.116 149.717C262.378 149.717 262.62 150.164 261.381 150.938C260.755 151.329 260.444 152.413 259.843 153.014C258.919 153.937 257.54 153.673 256.327 153.673C254.896 153.673 253.606 153.233 252.151 153.233C251.192 153.233 250.505 154.057 249.514 154.112C247.131 154.245 244.544 154.552 242.262 154.552C241.305 154.552 239.848 154.257 238.965 154.65C238.218 154.982 236.644 156.109 235.889 155.773C233.878 154.879 231.907 155.871 229.955 155.871C227.642 155.871 227.646 157.551 227.538 159.387C227.492 160.156 226.659 160.384 226.659 161.365C226.659 162.417 226.219 163.012 226.219 164.002C226.219 166.007 226.551 167.566 226.659 169.496C226.716 170.52 228.391 171.283 226.903 172.133C225.954 172.675 225.78 174.003 225.78 174.99C225.78 176.66 230.113 177.771 226.903 179.605C225.811 180.229 227.51 181.43 227.977 181.705C228.749 182.159 228.856 183.586 228.856 184.44C228.856 185.291 228.647 186.455 228.881 187.272C229.153 188.224 230.175 188.215 230.175 189.494C230.175 190.305 229.752 190.98 228.856 191.033C227.838 191.093 226.827 189.542 226.219 189.812C224.685 190.493 224.846 193.67 222.923 193.67C222.303 193.67 220.654 193.964 220.163 193.572C219.378 192.944 219.001 192.351 217.868 192.351C215.303 192.351 214.747 193.318 213.278 195.208C212.602 196.076 212.658 196.541 212.594 197.626C212.58 197.861 211.027 199.405 210.738 199.726C209.455 201.151 209.412 203.2 209.517 205.098C209.635 207.228 210.468 208.923 209.297 211.031C208.363 212.714 209.517 215.082 209.517 216.623C209.517 217.636 208.152 218.403 207.539 219.138C206.64 220.217 207.677 221.327 208.369 222.019C209.984 223.634 210.06 225.108 210.933 227.074C211.481 228.307 210.745 232.348 212.814 232.348C215.017 232.348 217.735 231.754 219.382 233.227C221.043 234.713 223.106 234.165 224.681 235.425C225.412 236.01 225.242 236.73 225.78 237.403C226.292 238.043 226.895 238.341 227.123 239.136C227.43 240.213 233.113 239.969 234.033 240.797C234.469 241.189 234.131 243.683 234.131 244.191C234.131 246.094 235.008 245.321 236.548 245.558C238.941 245.927 242.042 245.799 242.042 248.611C242.042 250.964 242.584 252.566 245.339 252.566C246.498 252.566 246.137 250.808 247.316 250.808C248.652 250.808 249.075 252.81 249.075 253.787C249.075 255.246 251.091 255.643 252.371 255.643C253.993 255.643 254.097 254.459 254.788 253.25C255.491 252.02 256.667 253.241 257.426 253.885C258.349 254.67 259.851 254.182 260.942 254.666C261.928 255.105 263.194 254.497 264.214 254.788C265.042 255.025 265.871 256.083 266.924 256.083C270.042 256.083 271.778 254.325 275.007 254.325C275.876 254.325 277.132 254.562 277.888 254.08C279.766 252.885 280.076 253.721 281.38 254.764C283.026 256.081 286.122 256.083 288.192 256.083C290.245 256.083 292.158 256.522 294.126 256.522C296.216 256.522 294.901 253.778 296.543 252.908C298.189 252.037 298.998 250.226 300.719 249.27C303.117 247.938 303.136 246.268 303.136 243.776C303.136 241.382 304.903 238.983 307.19 238.16C308.656 237.632 310.567 235.857 311.683 234.741C312.39 234.033 312.146 229.146 311.487 228.734C309.425 227.445 309.227 225.927 309.705 223.777C309.932 222.757 308.166 222.423 307.532 222.141C306.364 221.622 306.653 220.736 306.653 219.602C306.653 218.928 307.643 217.844 306.433 217.844C305.334 217.844 304.613 216.965 303.356 216.965C300.52 216.965 301.378 213.882 301.378 211.788C301.378 210.802 301.18 209.788 300.914 208.858C300.733 208.223 299.181 208.145 299.181 207.075C299.181 205.832 300.06 205.242 300.06 203.999C300.06 202.387 299.161 202.444 298.082 201.581C296.378 200.218 300.209 197.477 300.939 196.747C302.527 195.158 301.824 191.83 301.403 189.934C300.943 187.867 296.746 188.997 296.006 187.516C295.671 186.847 295.507 184.841 295.005 184.44C294.361 183.924 294.106 183.27 293.882 182.486C293.529 181.252 294.77 179.657 296.104 178.824C298.159 177.539 296.104 175.72 296.104 174.111C296.104 173.194 296.403 171.856 295.567 171.254C295.01 170.853 293.559 169.843 293.467 169.056C293.354 168.098 292.197 167.253 292.148 166.419C292.097 165.555 292.922 164.608 292.148 164.222" stroke="white" stroke-linecap="round"/>
<path d="M227.538 156.75C225.594 154.806 222.767 153.486 221.042 151.378C219.769 149.821 221.007 146.529 220.481 144.687C220.235 143.825 218.49 143.292 218.772 142.025C218.97 141.133 220.572 140.532 221.384 140.487C223.367 140.377 223.818 137.695 222.459 136.336C221.22 135.097 220.176 134.069 222.044 132.576C223.673 131.272 223.209 128.768 221.824 127.301C220.376 125.768 217.441 126.422 215.451 126.422C212.586 126.422 213.893 122.442 212.936 121.246C211.915 119.97 212.037 118.633 209.957 118.511C208.732 118.439 209.078 113.62 209.078 112.577C209.078 107.935 205.055 107.962 201.386 107.962C200.132 107.962 196.475 107.32 195.55 108.06C194.551 108.859 192.093 109.359 191.497 110.404C190.925 111.403 190.178 111.353 190.178 112.577C190.178 113.665 189.895 114.436 188.859 114.897C187.841 115.349 184.904 115.487 184.904 116.972C184.904 119.715 184.023 120.269 181.192 120.269C179.801 120.269 178.64 122.839 177.432 123.443C176.862 123.728 175.836 124.747 175.332 125.201C174.628 125.834 173.317 125.543 172.377 125.543C169.93 125.543 169.081 126.239 169.081 128.62C169.081 129.797 166.334 131.271 167.42 132.478C168.017 133.141 169.349 133.186 168.202 134.334C167.47 135.065 166.715 135.574 165.809 136.092C164.379 136.909 164.685 139.069 164.685 140.487C164.685 142.028 162.927 142.439 162.927 144.223C162.927 145.411 162.79 147.827 164.075 148.399C166.191 149.339 166.883 150.52 166.883 152.794C166.883 154.219 163.088 155.034 165.32 156.31C166.619 157.052 167.21 159.882 166.541 161.145C165.809 162.528 164.347 163.072 163.587 164.441C162.553 166.302 162.995 167.238 163.904 169.056C164.658 170.563 164.246 172.873 164.246 174.55C164.246 176.4 165.564 177.289 165.564 179.165C165.564 180.705 164.858 180.868 163.806 181.803C163.225 182.319 162.238 183.376 163.806 183.561C164.87 183.686 163.806 187.395 163.806 188.176C163.806 190.169 162.488 191.653 162.488 193.67C162.488 195.501 162.488 197.333 162.488 199.164C162.488 200.051 162.488 200.938 162.488 201.825C162.488 202.977 163.77 202.877 163.147 203.999C162.286 205.549 162.095 207.244 163.269 208.711C164.22 209.899 162.488 212.379 162.488 213.668C162.488 215.579 164.172 216.537 164.246 218.381C164.338 220.679 165.956 221.366 167.225 222.776C167.841 223.461 167.444 225.104 168.202 225.951C169.389 227.278 170.502 227.435 172.133 228.148C173.076 228.561 174 229.461 175.014 229.687C176.377 229.989 176.86 232.079 178.311 232.69C180.614 233.66 178.512 226.043 179.434 225.78C180.644 225.434 181.149 226.809 182.047 226.61C183.492 226.289 183.388 224.992 184.122 224.095C184.801 223.265 185.264 223.595 185.685 224.437C186.178 225.422 187.525 225.755 188.615 225.755C190.403 225.755 194.262 225.021 195.794 225.951C196.558 226.415 198.67 227.947 199.652 227.074C200.06 226.712 200.576 224.994 200.995 224.901C202.823 224.494 206.591 226.256 206.904 224.217C207.238 222.046 208.205 220.116 209.175 218.283C209.638 217.41 209.464 216.604 209.517 215.646C209.569 214.714 210.396 214.431 210.396 213.229C210.396 211.443 209.146 209.481 209.078 207.637C209.004 205.655 208.961 203.563 209.078 201.581C209.123 200.805 210.224 200.399 210.494 199.726C210.969 198.538 211.897 197.342 212.13 196.063C212.538 193.816 212.582 192.791 215.231 192.791C217.081 192.791 218.358 194.337 220.31 193.45C221.62 192.855 221.963 192.651 222.947 191.668C223.601 191.014 224.386 189.478 225.56 189.738C226.547 189.958 226.941 191.863 227.757 191.863C228.615 191.863 229.337 190.903 229.296 190.154C229.251 189.348 228.117 188.855 227.88 187.956C227.509 186.557 227.538 185.215 227.538 183.78C227.538 182.674 228.662 182.3 228.832 181.534C229.065 180.485 229.296 178.913 229.296 177.847C229.296 176.826 229.349 175.789 229.296 174.77C229.227 173.464 227.7 174.049 226.878 173.867C225.269 173.509 224.753 169.99 225.682 168.959C227.088 167.396 227.999 165.307 227.513 163.123C227.085 161.196 227.538 159.66 227.538 157.629" stroke="white" stroke-linecap="round"/>
<path d="M360.519 345.268C357.862 344.166 355.348 341.859 356.768 338.663C357.651 336.678 358.318 334.923 358.318 332.608C358.318 329.532 355.015 328.675 355.015 325.819C355.015 323.439 359.458 324.945 360.519 323.087C361.076 322.113 361.636 321.093 362.171 320.131C362.664 319.243 363.698 318.127 363.822 317.012C363.964 315.734 365.19 315.282 363.904 313.995C363.108 313.2 361.977 312.772 361.05 312.242C358.925 311.028 359.547 307.962 357.869 306.452C357.159 305.813 355.402 306.737 354.648 306.737C353.486 306.737 352.324 306.737 351.162 306.737C349.842 306.737 346.942 303.448 346.942 302.151C346.942 301.164 346.575 300.314 346.575 299.215C346.575 298.515 346.038 298.824 345.76 298.297C345.422 297.659 345.474 297.091 345.474 296.381C345.474 295.149 346.434 293.565 345.474 292.426C344.828 291.659 343.919 290.743 343.619 289.694C342.973 287.433 340.802 286.499 338.787 285.902C337.477 285.514 335.815 285.896 334.465 285.821C333.678 285.777 330.908 285.135 330.429 284.537C330.065 284.081 329.585 284.295 329.247 283.619C328.952 283.029 329.11 282.58 328.941 281.988C328.738 281.279 327.944 280.252 327.86 279.583C327.763 278.801 326.478 278.107 326.392 277.381C326.332 276.868 325.481 275.111 325.108 274.812C323.637 273.635 323.384 270.245 322.641 268.574C322.19 267.559 322.356 266.381 322.356 265.271C322.356 264.158 321.676 263.258 321.622 262.336C321.528 260.744 323.156 257.072 324.374 256.097C325.301 255.356 326.061 254.263 327.33 254.263C328.775 254.263 330.2 253.529 331.611 253.529C332.903 253.529 334.194 253.529 335.485 253.529C336.989 253.529 338.113 252.275 339.419 251.694C341.376 250.824 342.041 252.487 343.843 252.815C345.692 253.151 347.532 253.235 349.429 253.162C351.093 253.098 351.17 251.15 352.446 250.511C354.24 249.615 356.093 249.13 357.767 250.246C358.256 250.572 358.606 251.412 359.052 251.857C359.644 252.449 360.181 253.071 360.723 253.712C362.424 255.722 365.073 254.996 367.492 254.996C370.691 254.996 373.8 254.96 376.849 254.283C378.037 254.019 379.438 254.354 379.968 255.547C380.233 256.143 381.148 258.163 380.519 258.666C379.924 259.142 382.315 261.403 382.761 261.602C384.18 262.232 386.631 263.244 384.657 264.823C383.508 265.742 382.673 266.308 384.29 267.473C385.775 268.542 386.207 269.399 386.207 271.143C386.207 272.351 384.372 272.799 384.372 274.262C384.372 275.795 386.048 275.913 387.307 275.913C388.145 275.913 389.025 275.996 389.856 275.893C390.507 275.811 391.068 275.179 391.711 275.179C393.079 275.179 394.246 276.701 395.564 276.994C396.704 277.247 398.752 277.312 399.601 276.463C400.506 275.558 399.985 274.04 400.599 273.426C401.162 272.863 403.137 273.738 403.678 273.895C405.34 274.377 407.012 274.387 408.591 275.098C409.598 275.551 411.885 274.812 413.015 274.812C414.682 274.812 415.841 275.644 416.848 274.078C417.739 272.692 417.765 271.734 417.765 270.123C417.765 268.971 417.331 267.241 418.499 266.658C419.377 266.219 420.702 265.798 421.149 264.904C422.031 263.14 424.215 264.256 425.471 263.069C426.856 261.761 427.157 260.501 429.344 260.501C432.899 260.501 430.021 265.236 432.892 266.087C436.002 267.008 437.258 270.447 434.115 272.243C433.62 272.526 432.194 273.786 432.097 274.323C431.917 275.314 434.124 277.628 432.81 278.4C430.202 279.935 430.241 281.649 430.241 284.516C430.241 285.998 430.839 286.219 432.26 286.534C434.1 286.943 434.939 286.423 436.561 287.656C437.83 288.62 437.581 290.624 437.581 292.059C437.581 293.535 436.954 293.995 436.296 295.178C436.171 295.404 435.735 296.237 435.746 296.463C435.797 297.482 437.739 299.159 437.519 299.928C437.195 301.066 433.133 300.661 436.113 302.151C437.537 302.862 439.723 304.384 439.395 306.35C439.287 306.998 438.357 307.068 438.315 307.838C438.275 308.549 438.237 308.733 437.866 309.306C436.091 312.05 430.044 309.975 430.996 314.26C431.565 316.82 434.144 318.498 434.278 321.049C434.361 322.625 432.699 323.095 431.424 323.536C429.831 324.087 429.508 325.625 429.508 327.287C429.508 328.374 430.564 329.788 429.324 330.753C428.303 331.547 426.037 330.677 424.819 331.038C422.413 331.751 419.406 333.24 416.827 332.771C412.831 332.045 410.402 332.658 407.123 334.708C406.593 335.039 406.814 335.573 406.206 335.911C405.706 336.188 404.752 336.431 404.187 336.461C402.909 336.528 400.768 335.954 399.784 336.828C399.098 337.438 396.902 338.438 396.848 339.397C396.776 340.699 397.127 341.941 396.298 343.046C395.209 344.498 391.344 345.428 391.344 342.699C391.344 341.637 392.138 340.048 391.629 339.03C391.032 337.835 390.243 336.782 390.243 335.36C390.243 333.958 390.298 332.82 390.59 331.507C390.95 329.886 391.711 328.484 391.711 326.839C391.711 325.52 388.292 318.843 386.227 321.253C385.521 322.076 384.483 323.839 385.31 324.902C385.938 325.711 387.911 326.175 388.041 327.287C388.207 328.693 388.199 329.535 388.041 330.957C387.918 332.064 386.94 333.017 386.94 334.076C386.94 336.57 388.041 338.214 388.041 340.701C388.041 342.385 388.23 342.947 386.737 343.8C385.43 344.547 383.32 345.188 381.803 345.268C380.053 345.36 373.405 346.811 372.446 345.085C371.902 344.106 371.492 342.47 372.079 341.415C372.62 340.441 373.883 339.972 374.382 339.03C375.882 336.196 371.544 335.212 371.141 336.624C370.653 338.332 368.96 335.21 368.96 336.298C368.96 337.483 368.929 339.256 369.408 340.335C370.215 342.151 370.418 345.127 368.042 345.655C365.596 346.199 363.689 346.853 361.253 345.635" stroke="white" stroke-linecap="round"/>
<path d="M396.196 340.212C394.79 341.478 393.575 342.358 392.445 344.167C392.97 345.744 395.587 347.951 397.032 348.754C398.622 349.638 399.859 348.204 401.252 348.204C402.351 348.204 404.813 347.653 403.454 348.938C402.627 349.718 402.353 349.74 402.353 350.935C402.353 351.967 403.471 351.902 404.167 352.424C405.712 353.582 400.984 352.675 400.722 352.628C399.988 352.494 399.882 351.835 399.234 351.547C398.661 351.293 397.625 351.506 396.991 351.506H389.917C388.193 351.506 386.461 351.555 384.739 351.506C383.669 351.476 383.007 350.827 382.088 350.487C381.428 350.242 380.188 349.339 379.601 349.305C376.871 349.144 372.78 348.057 373.75 352.424C374.461 355.622 379.002 355.543 381.436 355.543C384.409 355.543 387.342 355.91 390.243 355.91C393.715 355.91 394.039 359.624 391.527 361.577C389.318 363.296 386.744 363.249 384.005 363.249C382.444 363.249 382.635 365.508 383.495 366.368C384.817 367.69 386.598 366.701 387.841 366.01L387.858 366.001C390.68 364.433 393.129 367.245 395.911 368.04C397.166 368.398 396.825 370.479 398.683 370.588C399.178 370.617 401.986 370.918 401.986 371.404C401.986 371.656 401.64 373.439 401.415 373.503C401.235 373.555 400.192 373.913 400.192 374.074C400.192 374.363 402.341 374.252 402.699 374.462C403.217 374.764 403.808 375.435 404.187 375.909C405.571 377.639 409.485 377.08 411.527 377.193C413.804 377.32 418.015 378.181 419.681 379.68C420.34 380.273 422.222 380.691 423.064 380.878L423.086 380.883C424.554 381.21 425.956 381.964 427.489 381.964C429.401 381.964 431.582 382.24 433.463 381.882C433.699 381.837 436.128 381.466 435.664 380.944C435.437 380.689 434.334 380.679 433.911 380.414C432.476 379.517 431.93 379.395 430.058 379.395C428.467 379.395 427.014 379.028 425.471 379.028C423.624 379.028 421.825 378.661 420.007 378.661C418.25 378.661 417.781 377.925 416.501 377.193C415.573 376.663 416.65 376.173 417.316 376.378C417.74 376.508 418.793 376.678 418.866 376.092C419.014 374.909 421.377 375.359 422.168 375.359C424.706 375.359 427.265 375.184 429.691 374.645C432.299 374.065 435.468 373.933 437.662 372.137C439.141 370.927 439.894 370.511 441.903 370.588C443.056 370.632 442.385 373.157 444.186 373.157C445.831 373.157 446.53 372.834 447.122 374.462C447.602 375.784 448.108 376.684 448.956 377.744C449.405 378.305 451.908 377.927 452.626 377.927C454.158 377.927 454.701 376.487 455.643 375.44C456.25 374.766 456.754 373.799 457.213 372.973C458.066 371.438 459.669 370.827 460.515 369.304C460.948 368.526 461.312 366.552 462.35 366.552C463.523 366.552 464.41 366.185 465.653 366.185C466.999 366.185 468.649 365.926 469.873 366.47C470.289 366.655 471.374 366.679 471.626 367.082C472.004 367.686 472.014 368.019 472.809 368.019H477.029C478.391 368.019 479.528 367.339 480.719 368.019C481.603 368.525 481.133 369.12 482.349 369.12C482.958 369.12 483.211 368.789 483.817 368.753C484.718 368.7 485.825 367.035 486.549 366.633C489.025 365.257 491.623 367.319 493.358 368.957C494.991 370.499 497.456 373.08 499.596 370.405C500.971 368.686 505.357 369.487 507.384 369.487C509.121 369.487 508.861 368.334 510.034 367.999C510.688 367.812 512.594 366.654 512.787 365.981C513.183 364.593 514.723 363.251 516.293 362.902C517.092 362.725 518.991 362.265 519.596 361.781C520.871 360.761 520.517 354.773 519.045 353.993C517.44 353.144 517.577 352.831 517.577 350.956C517.577 349.414 517.345 348.204 515.559 348.204C514.442 348.204 511.475 348.753 510.687 348.122C509.769 347.388 510.003 344.901 508.403 344.901C508.113 344.901 507.21 345.771 506.936 346.002C506.172 346.645 505.262 346.246 504.448 345.92C503.485 345.535 504.053 342.181 504 341.231C503.898 339.393 502.644 339.035 501.331 338.66L501.268 338.642C500.33 338.374 501.94 335.825 502.165 335.544C503.307 334.116 507.165 333.429 507.303 330.957C507.44 328.476 507.033 328.608 504.958 327.491C503.703 326.815 504.24 325.338 503.98 324.168C503.698 322.903 502.823 322.343 502.512 321.253C502.151 319.991 500.285 320.488 499.413 320.294C498.457 320.082 496.341 319.363 496.294 318.195C496.261 317.362 496.735 314.739 496.212 314.158C495.884 313.794 495.018 313.476 494.826 313.139C494.485 312.541 494.464 311.585 493.909 311.141C493.108 310.501 493.115 308.232 493.379 307.308C493.592 306.56 494.512 306.217 494.459 305.27C494.414 304.455 493.743 304.374 493.44 303.802C492.605 302.225 493.462 301.233 491.075 301.233C487.379 301.233 484.571 300.315 482.635 296.83C481.94 295.579 482.458 293.308 481.452 292.446C480.644 291.753 479.15 292.059 478.089 292.059C476.034 292.059 474.106 292.539 472.075 292.426C471.273 292.382 471.787 290.591 470.24 290.591C466.302 290.591 461.421 290.731 457.58 289.878C456.204 289.572 457.89 287.337 456.112 286.942C454.822 286.655 453.207 286.843 452.075 287.472C451.416 287.839 451.158 288.362 451.158 289.123C451.158 290.695 449.115 290.647 447.937 291.04C444.644 292.137 444.624 292.492 442.636 290.306C441.551 289.111 435.379 288.793 435.379 290.408C435.379 293.763 438.247 297.661 439.497 300.785C439.793 301.524 440.149 301.378 440.149 302.334V304.536C440.149 306.482 440.198 307.243 438.518 308.491C436.866 309.718 434.748 310.2 433.014 311.304C431.58 312.217 429.657 312.391 431.159 313.893C432.842 315.576 434.645 315.329 434.645 317.95C434.645 319.625 434.631 320.323 433.177 321.13C432.682 321.406 431.709 322.126 431.709 322.7C431.709 323.218 432.991 323.661 432.586 323.984C431.843 324.579 430.09 325.523 429.854 326.349C429.658 327.035 429.141 327.039 429.141 328.021V330.039C429.141 331.364 426.191 331.324 425.308 331.324C423.152 331.324 421.796 329.165 419.6 330.141C418.445 330.654 417.472 331.681 416.379 332.424C414.677 333.582 411.19 332.675 409.345 332.445C407.504 332.215 405.518 332.424 403.657 332.424C402.79 332.424 400.762 332.512 400.232 333.24C399.504 334.242 400.223 336.334 399.417 337.643C398.572 339.017 397.382 339.145 396.196 340.212Z" stroke="white" stroke-linecap="round"/>
<path d="M461.433 372.056C461.433 372.948 461.667 374.672 460.699 375.277C460.045 375.686 460.497 376.342 460.312 376.989C460.197 377.392 459.406 380.258 460.169 380.476C461.664 380.903 462.276 382.304 463.635 382.983C465.21 383.771 465.981 383.616 465.184 385.919C464.562 387.716 463.588 388.569 461.616 388.569C459.515 388.569 458.194 389.287 456.846 390.934C454.143 394.237 451.396 394.251 447.489 395.256C446.493 395.512 444.002 396.618 443.452 397.58C442.159 399.842 442.049 395.218 440.353 397.376C439.226 398.811 437.456 399.484 436.113 400.679C435.487 401.235 433.525 402.791 432.81 402.88C431.554 403.037 429.596 404.951 428.611 405.796C427.55 406.705 426.843 407.622 426.552 408.935C425.672 412.895 420.989 411.171 418.499 413.522C418.167 413.835 417.429 414.095 417.398 414.623C417.353 415.387 417.597 416.32 417.214 417.008C416.915 417.548 415.153 420.212 415.787 420.494C418.856 421.858 422.901 421.228 426.205 421.228C428.033 421.228 429.861 421.228 431.689 421.228C433.407 421.228 434.219 422.94 435.012 424.327C436.637 427.171 440.207 426.586 442.718 427.915C445.389 429.329 446.855 431.503 450.241 431.503C452.061 431.503 452.665 429.623 454.094 431.136C454.967 432.061 455.784 432.938 456.662 433.868C457.41 434.659 459.194 435.915 459.598 436.824C460.072 437.891 461.066 439.363 461.066 440.494C461.066 442.866 463.752 446.296 462.452 448.75C461.84 449.907 458.607 451.179 459.822 451.665C460.959 452.12 462.113 449.808 463.431 451.502C463.903 452.109 464.088 453.137 463.981 453.888C463.898 454.468 462.794 455.425 463.145 456.089C463.516 456.789 466.496 457.163 467.304 457.639C468.675 458.445 469.139 459.114 469.139 460.676C469.139 461.376 469.139 462.076 469.139 462.776C469.139 464.199 469.281 463.612 470.036 464.366C471.029 465.359 471.18 467.141 472.156 468.117C472.708 468.669 472.892 469.092 473.176 469.871C473.548 470.895 473.973 470.847 474.562 471.583C474.984 472.11 475.556 474.637 475.357 475.334C474.952 476.751 472.705 475.171 471.891 475.171C470.506 475.171 468.007 475.656 466.733 475.09C465.697 474.629 464.896 472.396 464.002 471.501C462.959 470.459 461.222 470.401 459.782 470.401C459.224 470.401 458.265 470.585 457.763 470.319C457.164 470.002 457.062 468.911 456.459 468.566C455.521 468.03 454.884 466.283 454.828 465.263C454.724 463.392 456.89 464.334 458.13 463.714C459.594 462.982 459.091 460.733 458.885 459.596C458.578 457.908 458.257 456.08 458.518 454.254C458.804 452.253 460.475 452.053 462.085 452.053C463.625 452.053 465.43 453.972 466.122 455.355C466.403 455.917 466.729 456.243 467.019 456.823C467.301 457.388 467.069 458.69 467.488 459.025C468.212 459.604 468.054 461.973 468.956 462.694C469.499 463.129 469.211 464.986 469.791 465.712C470.15 466.16 469.857 466.645 470.423 467.098C470.9 467.479 471.341 467.955 471.341 468.566C471.341 470.925 472.589 475.119 475.377 475.518C476.76 475.715 477.964 475.905 479.414 475.905C481.284 475.905 481.692 474.523 482.798 473.418C484.131 472.084 485.209 472.137 486.957 471.501C487.825 471.186 491.214 470.842 491.503 469.83C491.712 469.099 491.55 466.548 491.972 466.079C493.199 464.716 495.372 464.401 496.742 462.98C498.175 461.494 498.129 460.041 498.129 458.128C498.129 457.272 498.028 456.495 498.414 455.722C498.776 454.998 499.613 455.032 499.963 454.418C500.267 453.886 501.001 453.521 501.615 453.521C502.68 453.521 503.195 452.509 504.082 452.134C505.275 451.629 506.527 451.074 507.303 449.933C508.331 448.42 509.848 448.75 511.543 448.75C514.108 448.75 516.581 449.307 519.208 449.097C520.079 449.027 521.763 448.627 522.531 448.2C523.601 447.605 524.579 449.394 525.284 449.933C528.2 452.163 528.871 446.008 529.769 444.428C530.462 443.208 530.788 442.741 530.788 441.329C530.788 440.993 530.574 439.327 531.012 439.23C532.631 438.87 534.341 439.596 535.742 438.475C538.877 435.968 538.184 431.141 541.797 429.016C545.186 427.022 549.375 429.679 552.051 431.687C553.465 432.747 555.298 432.747 556.475 434.357C557.757 436.111 560.394 435.566 562.061 434.887C563.222 434.414 564.315 433.54 565.486 432.971C566.101 432.672 566.681 432.598 567.117 432.054C567.859 431.125 567.691 427.701 569.298 428.404C570.757 429.043 570.419 431.036 570.419 432.319C570.419 434.081 573.752 432.498 574.374 431.503C574.708 430.97 577.678 430.539 578.492 430.423C580.101 430.193 581.795 429.257 581.795 427.283C581.795 424.257 575.659 425.856 577.106 421.677C577.603 420.241 579.372 419.587 580.307 418.496C581.392 417.231 581.253 415.745 581.979 414.44C582.842 412.885 581.981 412.239 584.445 412.421C586.117 412.545 586.847 414.54 587.952 412.054C589.371 408.861 580.421 407.651 578.676 407.651C577.093 407.651 575.179 407.323 573.722 407.936C572.618 408.401 570.652 407.234 569.4 407.284C566.571 407.397 566.051 412.342 564.324 413.685C563.169 414.583 561.185 414.623 559.778 414.623C557.485 414.623 557.481 413.362 556.312 412.054C555.276 410.896 554.688 408.577 552.826 410.75C552.363 411.289 552.438 411.702 552.438 412.421C552.438 413.205 553.562 414.064 553.478 414.44C553.284 415.313 550.618 415.798 549.87 416.172C548.312 416.951 546.367 417.523 544.732 418.211C542.48 419.159 539.353 421.228 536.843 421.228C535.803 421.228 534.871 421.999 533.805 421.147C532.759 420.31 531.557 419.527 530.503 418.578C529.424 417.607 528.578 417.094 527.322 416.295C525.927 415.407 524.012 416.227 522.898 414.99C521.699 413.658 521.981 412.483 521.981 410.668C521.981 410.01 521.858 409.211 522.001 408.568C522.2 407.675 523.051 407.24 523.082 406.183C523.152 403.811 521.822 403.201 520.309 401.963C518.837 400.759 517.793 399.031 516.313 397.763C515.345 396.934 513.374 396.275 512.073 396.275C510.128 396.275 508.316 394.883 506.936 393.503C505.885 392.452 507.203 390.781 506.915 389.486C506.694 388.493 503.999 388.083 503.185 387.917C501.638 387.6 501.693 387.465 500.881 386.021C499.93 384.331 499.597 383.975 499.597 381.964C499.597 379.798 497.067 379.395 495.275 379.395C493.824 379.395 494.478 381.75 493.521 381.576C491.771 381.258 490.797 379.346 489.159 379.048C487.652 378.775 485.143 378.724 483.899 379.844C482.641 380.976 481.031 377.281 480.229 376.541C477.471 373.995 474.653 375.725 471.524 375.725C469.976 375.725 468.875 374.321 467.223 374.258C466.202 374.218 464.942 374.097 464.185 373.34C463.551 372.706 463.114 372.056 462.167 372.056" stroke="white" stroke-linecap="round"/>
<path d="M481.616 293.16C482.534 288.159 485.631 290.518 489.322 289.042C491.954 287.989 494.359 287.289 497.395 287.289C499.144 287.289 500.763 287.705 502.532 287.656C504.23 287.608 505.881 286.284 507.303 285.535C508.215 285.055 510.395 284.243 510.891 283.252C511.51 282.014 511.339 280.384 511.339 279.032C511.339 277.779 511.706 276.558 511.706 275.363C511.706 274.2 510.132 273.309 509.341 272.631C507.469 271.026 504.367 268.551 504.367 266.005C504.367 264.197 506.229 264.322 506.548 262.886C506.886 261.368 505.101 259.943 505.101 258.482C505.101 256.903 504.607 252.428 507.303 252.428C508.398 252.428 508.95 253.474 509.871 253.529C511.789 253.641 513.771 252.667 515.376 251.775C518.367 250.114 520.527 250.96 523.816 250.96C526.018 250.96 530.992 252.411 532.908 250.878C534.431 249.66 537.448 248.169 539.411 249.696C542.142 251.82 545.543 252.642 548.932 251.673C551.73 250.874 553.906 254.062 553.906 256.627C553.906 257.918 553.906 259.21 553.906 260.501C553.906 262.742 554.164 262.311 555.884 263.457C556.768 264.046 554.755 265.234 554.803 265.72C554.813 265.821 556.856 266.473 557.066 266.556C558.775 267.224 561.472 268.023 563.366 267.391C566.227 266.438 569.955 266.005 572.988 266.005C573.886 266.005 574.149 266.131 574.843 266.739C575.901 267.664 577.364 267.87 578.411 268.655C579.228 269.268 580.327 270.291 580.327 271.509C580.327 272.295 579.923 274.382 581.061 274.445C581.428 274.466 582.162 274.225 582.162 274.506C582.162 275.444 581.974 276.267 582.896 276.728C583.63 277.095 584.303 277.344 585.098 277.564C585.547 277.689 586.881 277.526 587.218 277.829C588.824 279.275 588.362 279.95 590.786 279.95C591.255 279.95 592.012 279.806 592.437 280.031C593.014 280.337 592.952 281.226 593.721 281.397C594.482 281.566 595.41 281.417 596.188 281.417C597.37 281.417 596.897 282.038 597.737 282.518C599.096 283.294 600.877 282.218 600.877 284.516C600.877 284.949 600.677 285.75 601.244 285.821C601.91 285.904 601.56 287.16 601.631 287.656C601.83 289.045 604.923 293.16 601.407 293.16C600.155 293.16 599.086 293.472 598.308 294.444C597.347 295.646 597.789 297.04 595.739 296.177C594.836 295.797 593.349 295.346 592.518 296.177C591.296 297.399 592.738 298.581 592.804 299.765C592.891 301.328 590.694 301.048 590.602 302.701C590.541 303.8 592.699 303.377 593.538 304.169C594.384 304.968 595.302 305.395 595.372 306.737C595.468 308.549 595.473 309.173 597.207 310.04C598.785 310.829 597.604 312.773 598.961 313.261C601.068 314.02 599.825 314.531 600.693 316.441C601.201 317.559 602.073 315.024 601.59 317.196C601.446 317.847 600.442 319.562 599.959 319.948C599.058 320.669 598.324 321.77 597.391 322.517C596.466 323.256 594.901 322.409 594.19 323.617C593.329 325.081 592.902 325.157 592.804 326.92C592.736 328.134 591.847 329.76 590.969 330.59C590.145 331.368 588.623 332.509 588.115 333.525C587.881 333.994 588.033 335.619 588.033 335.095C588.033 333.675 587.842 332.396 587.687 330.997C587.405 328.464 584.602 327.769 582.366 328.408C581.434 328.675 580.962 329.856 579.94 329.856C578.295 329.856 576.651 329.856 575.006 329.856C572.631 329.856 569.471 334.034 568.972 336.278C568.665 337.657 568.441 338.991 567.83 340.314C567.188 341.706 565.976 342.713 565.364 344.167C564.81 345.482 565.282 344.418 565.282 343.25C565.282 342.25 565.378 341.403 564.997 340.498C564.63 339.627 564.011 337.634 562.713 337.562C560.117 337.418 557.896 337.562 555.374 337.562C553.909 337.562 552.151 338.451 550.685 338.744C548.523 339.177 546.625 339.815 544.814 341.068C543.939 341.674 543.02 343.069 542.898 344.167C542.709 345.864 541.781 346.458 540.308 347.286C537.965 348.604 534.429 349.627 532.806 347.103C531.114 344.47 531.55 340.437 529.157 338.479C525.764 335.703 525.651 341.888 525.651 343.8C525.651 346.46 528.849 349.415 530.992 350.487C534.048 352.015 532.847 355.183 531.359 357.459C530.345 359.009 529.513 360.703 528.872 362.433C528.537 363.336 527.644 364.117 527.506 365.084C527.45 365.473 527.319 366.61 526.955 366.837C526.092 367.376 525.732 368.629 524.55 368.753C523.102 368.906 521.095 369.476 520.065 370.507C518.477 372.094 520.402 369.287 520.799 368.753C521.909 367.259 523.376 365.89 524.366 364.35C526.005 361.801 527.53 358.316 528.403 355.522C529.051 353.446 528.92 344.277 525.284 347.653C522.801 349.959 523.243 354.323 521.614 357.174C521.362 357.615 519.01 359.731 518.699 358.642C518.325 357.332 517.944 356.21 517.944 354.809C517.944 352.743 518.01 349.029 515.457 348.938C514.873 348.917 511.539 349.395 511.054 348.856C510.676 348.436 510.316 345.889 510.238 345.268C509.957 343.021 505.175 346.613 504.449 343.433C504.162 342.181 505.024 340.445 504.652 339.478C503.946 337.642 501.431 338.365 501.431 335.89C501.431 333.083 506.202 333.186 506.202 330.039C506.202 328.66 506.417 328.142 507.486 327.287C507.823 327.017 507.781 325.8 507.588 325.452C507.25 324.843 506.04 325.167 505.468 324.881C503.913 324.104 503.266 323.469 503.266 321.62C503.266 320.236 502.711 319.581 501.248 319.581C500.507 319.581 499.766 319.581 499.026 319.581C497.298 319.581 497.283 318.926 496.477 317.583C495.644 316.195 495.56 314.946 495.56 313.343C495.56 310.401 495.357 306.925 495.193 303.802C495.069 301.441 491.395 298.451 489.689 301.437C488.47 303.57 485.526 303.613 484.001 301.58C482.708 299.856 481.983 298.704 481.983 296.503C481.983 295.219 482.349 293.993 482.349 292.793" stroke="white" stroke-linecap="round"/>
<path d="M607.482 318.276C606.14 315.927 600.943 319.72 599.776 320.315C598.887 318.538 598.322 317.35 599.694 315.463C601.031 313.625 598.604 309.673 596.657 309.673C595.608 309.673 594.337 309.007 594.272 307.838C594.234 307.17 594.272 306.49 594.272 305.82C594.272 305.141 593.691 304.948 593.558 304.352C593.285 303.124 591.806 302.761 590.684 302.416C588.925 301.874 590.969 301.432 590.969 300.132C590.969 298.968 589.944 298.09 590.255 296.687C590.575 295.247 591.06 294.939 592.518 294.995C594.222 295.06 597.941 296.588 597.941 294.077C597.941 293.021 598.866 291.862 599.776 291.407C600.424 291.083 602.055 291.33 602.324 290.387C602.714 289.023 604.286 285.582 601.978 285.454C601.455 285.425 598.979 284.183 598.675 283.803C597.617 282.48 597.683 281.784 595.739 281.784C594.909 281.784 592.189 282.209 591.703 281.601C590.873 280.564 589.922 279.572 588.604 279.195C588.017 279.028 584.743 277.234 584.731 276.932C584.622 274.226 584.743 276.28 583.1 276.28C579.459 276.28 580.086 272.797 579.96 270.409C579.889 269.047 578.481 268.21 577.371 267.84C576.102 267.417 575.896 266.604 575.271 265.638C574.313 264.157 575.108 264.26 574.802 262.886C574.64 262.157 572.636 261.399 573.192 260.684C574.323 259.23 575.19 259.739 575.19 257.565V253.814C575.19 253.075 575.555 250.784 576.495 250.613C577.182 250.488 580.56 250.15 581.061 250.776C581.766 251.657 583.24 252.061 584.364 252.061C585.926 252.061 585.645 250.16 586.015 249.125C586.901 246.646 587.299 244.089 587.299 241.419C587.299 240.501 587.662 238.661 587.096 237.933C586.469 237.127 585.465 236.243 585.465 235.181C585.465 234.025 585.653 232.889 584.527 232.245C583.635 231.735 582.529 230.206 582.529 229.126C582.529 228.076 582.414 227.355 582.529 226.374C582.664 225.226 584.364 224.807 584.364 223.255C584.364 222.184 583.256 219.859 582.08 219.768C581.276 219.707 579.198 219.693 578.492 219.32C577.876 218.993 576.85 215.955 576.678 215.182C576.374 213.812 575.19 213.306 575.19 211.879C575.19 210.372 577.386 209.178 578.778 209.127C579.966 209.083 580.668 208.426 581.795 208.393C582.864 208.361 583.186 209.127 584.221 209.127C585.221 209.127 586.459 209.325 587.442 209.106C587.768 209.034 588.034 207.589 588.196 207.292C588.748 206.281 588.9 206.898 589.583 206.925C591.878 207.017 597.292 206.602 594.109 203.418C592.672 201.982 594.469 202.434 595.372 202.073C596.763 201.517 597.215 200.86 598.125 199.749C599.09 198.569 599.776 198.609 599.776 197.017C599.776 195.805 599.377 194.87 600.795 194.815C601.57 194.786 602.414 193.466 602.712 192.797C603.302 191.468 603.883 191.385 604.913 190.412C606.016 189.371 605.309 188.569 605.668 187.313C605.93 186.395 607.092 186.679 607.482 186.192C608.959 184.345 608.692 182.693 608.95 180.504C609.08 179.4 617.795 180.373 618.858 180.524C620.576 180.77 620.309 182.254 621.06 183.358C621.824 184.482 623.104 183.955 624.179 184.194C625.265 184.435 626.669 184.666 627.665 185.193C628.378 185.571 628.032 187.519 628.032 188.292C628.032 189.719 627.782 190.494 627.114 191.696C626.185 193.369 627.73 193.197 628.766 193.633C630.417 194.328 632.336 193.834 634.025 194.448C634.571 194.647 634.27 197.078 634.27 197.568C634.27 198.892 635.387 199.361 636.472 199.953C638.001 200.787 635.763 201.392 636.676 202.175C637.258 202.674 638.604 204.748 638.959 205.457C639.424 206.388 638.242 207.307 637.573 207.74C636.295 208.567 638.567 209.409 638.286 210.391C638.026 211.302 637.078 212.235 637.654 213.53C638.054 214.43 639.407 214.909 639.407 215.915C639.407 216.959 638.369 217.695 638.694 218.831C638.925 219.64 640.5 222.393 641.242 222.786C642.434 223.416 643.862 222.703 645.075 223.255C646.584 223.941 647.507 222.977 648.581 224.62C649.533 226.076 648.36 226.826 648.214 228.209C648.103 229.263 647.847 230.196 647.847 231.328C647.847 232.499 650.205 231.931 650.865 232.53C651.994 233.557 652.168 234.036 652.653 235.369L652.659 235.385C653.338 237.252 655.555 238.484 657.187 239.391L657.205 239.401C658.445 240.09 660.268 239.336 661.506 240.237C662.648 241.067 662.795 241.256 663.443 242.683C664.035 243.986 664.03 245.456 665.828 245.456H669.865C670.786 245.456 672.363 245.098 672.984 245.843C673.533 246.501 673.168 248.441 673.168 249.309C673.168 251.649 673.515 253.896 670.599 253.896C668.116 253.896 665.828 254.093 665.828 256.831C665.828 258.146 665.818 258.966 665.298 260.154C664.608 261.731 665.375 263.777 665.074 265.434C664.807 266.901 662.969 266.33 661.873 266.372C660.37 266.43 660.66 268.26 658.489 267.656C657.348 267.339 655.793 267.107 655.105 268.207C654.58 269.047 653.378 271.447 652.251 271.51C650.211 271.623 646.38 271.526 646.38 274.364C646.38 276.775 647.417 278.603 646.176 280.908C644.67 283.705 643.126 287.338 645.646 289.857C646.528 290.74 647.871 290.977 648.765 291.692C649.497 292.278 647.692 293.057 647.297 293.364C645.234 294.968 647.48 297.509 647.48 299.582C647.48 300.656 647.893 302.61 647.114 303.435C645.632 305.004 644.306 305.637 642.139 305.637C639.988 305.637 639.277 301.576 636.757 302.416C635.366 302.879 634.092 303.435 632.619 303.435C630.641 303.435 628.79 304.731 626.747 304.882C624.954 305.015 623.142 304.834 621.345 304.903C619.576 304.971 618.559 306.303 617.39 307.471C616.333 308.528 615.55 309.579 614.74 310.692C614.245 311.373 613.401 313.549 613.353 314.444C613.288 315.687 612.209 318.847 610.785 318.847C610.017 318.847 607.931 319.062 607.482 318.276Z" stroke="white" stroke-linecap="round"/>
<path d="M619.818 180.092C619.818 176.763 619.266 173.157 618.356 169.973C617.909 168.407 618.501 166.863 617.829 165.352C617.569 164.767 616.683 163.714 616.66 163.129C616.411 156.905 624.835 158.782 624.556 153.77C624.464 152.108 619.66 147.761 620.988 145.99C621.652 145.105 623.441 144.89 623.503 143.767C623.573 142.509 623.503 141.225 623.503 139.965C623.503 138.006 623.339 134.208 621.807 132.829C620.379 131.544 616.377 130.896 614.554 130.635C611.075 130.138 610.247 126.836 608.47 124.552C606.909 122.544 605.126 119.112 604.581 116.655C603.91 113.638 604.845 113.353 601.685 111.917C600.502 111.38 599.315 111.427 598.468 110.338C597.471 109.056 597.239 109.022 595.602 109.022C593.057 109.022 590.602 109.144 588.202 110.104C585.585 111.151 585.394 111.429 583.786 113.497C582.993 114.516 583.297 115.471 581.651 115.836C580.683 116.051 579.483 115.866 578.492 115.866C576.202 115.866 574.069 117.171 572.701 118.995C571.175 121.03 570.55 123.236 567.7 123.236C565.965 123.236 564.216 120.61 563.371 119.258C562.206 117.394 556.848 121.033 555.592 119.843C554.348 118.665 553.639 117.065 552.316 115.983C551.365 115.204 550.686 113.91 549.567 113.35C547.662 112.398 545.551 112.747 543.483 112.707C541.152 112.662 539.032 111.78 536.64 112.297C533.248 113.031 532.18 114.314 530.732 117.211C529.494 119.687 525.832 119.974 523.596 120.838C522.21 121.373 520.4 122.924 518.974 121.656C518.153 120.926 517.529 120.996 516.752 121.773C516.064 122.461 515.445 123.187 514.646 123.762C513.254 124.764 512.118 123.76 511.078 124.61C510.027 125.47 509.145 126.254 507.978 126.921C506.855 127.562 507.012 129.428 505.872 130.08C505.371 130.366 505.417 132.308 505.053 132.946C504.472 133.963 502.421 132.363 502.421 134.028C502.421 135.081 502.421 136.134 502.421 137.187C502.421 138.41 501.157 138.846 500.871 139.848C500.069 142.652 500.06 144.898 503.474 145.873C505.86 146.555 507.453 146.926 510.054 146.926C512.338 146.926 512.95 150.215 512.95 151.956C512.95 157.056 519.164 157.649 522.952 159.444C525.693 160.742 526.426 161.869 524.941 164.299C524.493 165.032 523.081 165.944 524.005 166.521C524.719 166.967 525.634 167.662 525.584 168.51C525.533 169.379 520.911 168.831 519.91 170.207C518.162 172.61 521.373 175.232 521.373 177.05C521.373 179.759 517.824 180.618 515.699 180.618C511.561 180.618 510.387 180.599 508.329 184.304C507.855 185.156 506.495 190.555 507.393 191.03C508.368 191.547 510.222 190.561 511.37 190.621C512.884 190.701 515.21 191.428 516.635 191.937C519.957 193.123 518.917 197.753 523.712 196.383C524.904 196.042 525.461 196.208 526.111 197.669C526.617 198.809 527.992 198.518 529.006 198.518C532.209 198.518 535.399 198.33 538.482 199.015C540.459 199.454 543.6 199.214 545.326 198.254C547.86 196.847 547.695 202.931 547.695 204.045C547.695 205.253 551.735 207.155 552.433 208.725C552.924 209.83 554.27 214.573 555.329 214.808C558.076 215.419 560.661 215.533 560.856 219.049C560.922 220.227 561.312 221.462 561.383 222.734C561.486 224.6 563.495 223.024 564.307 222.617C566.008 221.767 566.819 219.143 569.162 219.049C573.333 218.882 582.962 222.432 579.165 214.837C578.853 214.214 577.74 213.374 577.703 212.732C577.613 211.216 577.642 209.63 577.703 208.111C577.752 206.878 583.506 207.467 584.546 207.467C585.652 207.467 591.767 208.662 591.917 207.467C592.088 206.096 593.248 203.035 594.315 201.969C595.589 200.694 599.813 200.631 599.813 198.781C599.813 195.852 599.439 193.628 601.656 191.411C603.171 189.895 604.891 187.612 606.394 186.409C607.073 185.866 607.184 183.843 607.184 182.987C607.184 181.732 607.696 181.798 608.236 180.852C609.97 177.818 621.924 180.361 621.924 178.776C621.924 177.713 621.444 177.076 620.608 176.407C619.891 175.833 620.093 174.241 619.526 173.511C618.079 171.651 618.169 168.896 617.186 166.931" stroke="white" stroke-linecap="round"/>
<path d="M506.106 191.147C505.678 188.955 505.456 184.163 508.738 183.777C510.324 183.591 511.351 181.564 512.716 181.174C514.463 180.675 516.235 179.538 517.688 178.63C518.502 178.121 518.214 177.036 518.214 176.144C518.214 174.6 518.616 174.621 519.267 173.482C519.851 172.46 523.002 170.675 524.005 170.616C525.416 170.533 524.148 165.624 524.034 164.825C523.641 162.074 521.664 160.642 519.267 159.444C517.746 158.683 516.613 156.901 515.582 155.612C514.423 154.164 512.749 153.318 511.897 151.401C511.003 149.39 507.871 147.053 505.579 146.926C503.686 146.821 502.057 137.379 503.357 135.754C504.664 134.119 503.245 131.52 501.631 131.162C500.153 130.833 496.372 130.692 495.167 131.776C493.852 132.96 490.771 133.238 488.996 133.238C485.91 133.238 486.627 130.766 486.627 128.5C486.627 125.745 482.112 125.655 481.889 123.762C481.612 121.407 478.086 119.754 477.151 117.65C476.271 115.67 474.159 111.464 472.004 110.718C469.968 110.014 465.754 110.302 463.639 110.894C460.697 111.717 456.996 113.038 454.631 114.93C452.437 116.685 451.245 114.115 449.513 113.731C448.512 113.508 448.195 112.707 447.144 112.707C446.091 112.707 445.038 112.707 443.985 112.707C441.441 112.707 438.896 112.707 436.352 112.707C432.122 112.707 427.33 112.802 425.15 116.919C423.262 120.484 417.647 120.604 413.861 120.604C408.946 120.604 404.384 119.551 399.354 119.551C393.116 119.551 392.92 122.464 392.92 127.974C392.92 130.353 394.345 130.549 396.078 132.185C396.645 132.72 397.975 133.218 398.155 134.028C398.387 135.072 397.705 136.502 398.769 137.187C400.894 138.553 403.273 138.679 403.449 141.662C403.541 143.224 404.278 145.213 405.291 146.429C406.676 148.091 404.617 151.019 406.315 152.717C407.533 153.935 411.214 153.963 411.872 155.115C413.055 157.185 411.744 158.965 411.872 161.14C411.944 162.363 416.61 162.26 416.61 164.562C416.61 167.999 417.325 172.222 414.914 175.237C413.007 177.621 416.71 178.042 417.107 179.829C417.762 182.778 414.358 182.833 412.398 182.724C410.157 182.6 408.426 180.964 405.847 181.701C404.408 182.112 409.26 185.296 410.293 185.357C412.497 185.486 414.531 185.29 416.347 186.702C417.731 187.779 419.942 189.257 421.874 188.398C425.049 186.987 432.138 188.768 432.959 192.464C433.08 193.008 433.435 194.802 433.983 194.833C434.978 194.888 437.501 193.886 438.194 194.54C440.217 196.45 439.527 200.344 441.616 201.969C442.842 202.923 445.561 205.786 447.553 204.192C449.583 202.568 451.489 208.888 453.198 205.128C456.161 198.608 463.099 207.764 466.125 208.52C467.039 208.749 481.087 214.934 481.363 212.732C481.61 210.753 483.469 208.999 483.469 206.648C483.469 203.587 483.469 200.526 483.469 197.465C483.469 192.87 494.326 198.19 495.05 191.674C495.595 186.774 503.21 189.437 505.579 190.621" stroke="white" stroke-linecap="round"/>
<path d="M465.043 210.1C464.368 213.172 464.291 215.89 460.831 215.89C459.489 215.89 454.624 214.552 454.514 216.417C454.285 220.307 457.143 218.782 459.135 221.272C460.257 222.675 461.649 225.074 459.778 226.01C457.878 226.96 454.453 226.188 453.052 227.589C451.773 228.868 452.408 232.03 452.408 233.79C452.408 235.281 452.408 236.773 452.408 238.264C452.408 239.262 450.896 240.206 450.419 241.16C449.994 242.011 449.528 243.582 449.805 244.553C449.866 244.765 451.041 246.91 451.092 246.951C453.248 248.675 448.351 251.153 447.641 251.981C446.193 253.671 446.346 252.803 444.921 251.806C444.103 251.233 442.406 253.934 442.406 254.614C442.406 257.16 439.838 259.454 437.434 260.141C436.395 260.438 435.644 260.638 434.392 260.638C432.597 260.638 432.695 261.691 431.35 261.691C425.685 261.691 422.732 262.644 419.886 267.482C418.897 269.163 415.175 269.611 413.451 270.524C411.468 271.574 409.953 273.183 407.953 274.326C405.884 275.508 403.406 276.331 401.109 276.987C399.691 277.393 398.31 277.607 396.722 277.485C394.791 277.336 396.45 274.852 394.236 274.852C392.393 274.852 390.551 274.852 388.708 274.852C386.628 274.852 386.725 274.424 385.286 273.273C384.679 272.788 385.023 270.849 385.023 270.114C385.023 268.365 384.189 268.895 383.561 267.482C382.897 265.988 386.313 262.348 383.97 262.218C381.768 262.095 379.759 260.85 379.759 258.533C379.759 257.984 380.07 255.544 379.437 255.403C377.922 255.067 376.059 255.374 374.494 255.374C371.897 255.374 369.524 255.9 366.831 255.9C363.841 255.9 361.254 254.549 359.754 251.923C358.849 250.341 354.325 251.162 352.617 251.162C349.858 251.162 348.722 252.766 346.329 253.297C345.102 253.57 344.227 253.795 342.907 253.795C341.158 253.795 340.344 252.215 338.696 252.215C333.761 252.215 329.491 253.795 324.482 253.795C322.77 253.795 322.43 251.689 321.06 251.689C319.269 251.689 318.545 252.108 316.994 252.625C315.358 253.17 309.136 254.032 307.928 252.478C306.852 251.095 307.175 251.162 305.003 251.162C303.937 251.162 303.033 251.438 302.108 251.952C301.186 252.464 299.762 253.195 298.686 252.625C298.133 252.332 296.366 249.231 296.873 249.086C302.323 247.529 301.56 239.322 307.372 238.03C310.289 237.382 312.893 235.866 314.713 233.526C316.373 231.393 318.253 233.702 320.533 234.579C324.091 235.948 324.775 232.916 327.348 232.181C328.364 231.891 329.138 229.673 330.273 229.169C332.039 228.384 331.407 230.974 332.495 228.525C333.391 226.511 334.776 224.434 335.011 222.208C335.331 219.169 338.888 219.711 341.328 219.576C344.05 219.424 347.382 217.187 350.161 218.113C353.361 219.18 356.153 221.167 359.49 219.312C362.046 217.892 364.27 219.049 367.095 219.049C370.227 219.049 371.178 217.297 372.388 214.574C373.311 212.498 373.7 208.609 376.337 208.023C379.534 207.312 381.89 207.829 385.023 207.994C387.498 208.124 391.447 207.12 393.329 208.93C397.09 212.546 395.062 205.554 396.605 205.362C399.713 204.973 396.481 199.571 399.764 199.571C402.475 199.571 404.25 199.287 406.344 200.916C408.498 202.591 408.233 204.341 411.111 204.864C412.856 205.182 413.914 205.565 415.44 204.192C415.824 203.846 417.583 202.338 417.955 202.232C419.821 201.699 421.371 198.304 421.845 196.646C422.313 195.01 421.445 190.178 422.927 189.159C423.922 188.475 424.58 188.515 425.823 188.515C427.696 188.515 427.35 188.779 428.309 189.978C430.235 192.385 429.118 193.78 432.93 193.78C435.832 193.78 437.491 194.984 437.668 197.991C437.723 198.934 440.429 198.518 441.09 198.518C443.064 198.518 443.235 200.073 444.278 201.413C445.298 202.725 444.865 203.153 446.617 203.256C447.308 203.296 449.026 203.984 449.484 204.572C452.079 207.908 452.123 205.547 454.777 204.367C456.266 203.705 460.402 204.957 461.358 206.151C461.97 206.917 463.384 207.081 463.464 208.52C463.56 210.263 463.942 210.004 464.517 211.152" stroke="white" stroke-linecap="round"/>
<path d="M336.064 66.9061C337.329 66.3939 341.183 65.5919 340.012 63.4842C339.489 62.5425 338.755 62.1755 338.696 61.1152C338.53 58.1342 337.116 55.2122 337.116 52.0486C337.116 48.7958 336.838 45.6684 336.59 42.5726C336.443 40.7301 335.072 38.3441 336.999 36.8987C340.911 33.9648 345.992 31.7767 346.592 26.3697C346.781 24.6771 349.136 21.9543 350.395 20.6958C351.608 19.4823 355.669 19.6939 357.004 20.6958C362.344 24.7004 363.138 17.6576 367.65 17.4201C370.996 17.244 373.162 16.9961 376.483 18.0636C379.922 19.169 383.418 18.9995 387.012 18.9995C390.832 18.9995 397.13 21.2102 400.173 17.8296C401.128 16.7688 402.315 13.6094 402.396 12.1557C402.451 11.162 401.401 10.4539 401.401 9.75741C401.401 8.39015 402.717 8.53621 401.986 6.8912C399.159 0.528647 411.413 6.39638 412.925 6.77421C416.35 7.63064 419.833 7.41765 423.337 7.41765C426.284 7.41765 427.753 5.75069 429.771 3.73252C431.494 2.00957 432.585 1.24442 435.035 1.10029C437.285 0.96797 438.721 -0.506731 438.721 2.67963C438.721 7.5384 433.878 11.3141 439.657 15.3143C441.712 16.7377 443.635 15.994 443.459 18.9995C443.415 19.7401 439.611 22.0534 438.721 22.1582C435.79 22.5029 439.327 26.7055 439.247 27.4226C439.045 29.2395 433.931 29.5699 432.813 30.4643C432.139 31.0037 430.994 30.5006 430.297 31.371C429.609 32.2316 429.771 33.2017 429.771 34.2664C429.771 36.1191 430.824 37.5369 430.824 39.5309C430.824 41.1624 430.797 44.3409 431.467 45.8483C432.122 47.3203 434.385 50.2567 433.866 51.7561C433.217 53.6309 429.699 55.8344 428.192 57.4301C426.845 58.8565 427.553 62.1739 428.601 63.338C430.363 65.2958 427.178 67.7222 426.495 69.0119C425.446 70.9931 425.559 72.6107 425.559 74.9198C425.559 76.059 426.303 77.1162 426.057 78.2247C425.843 79.1876 424.442 79.2559 425.15 80.5937C425.644 81.526 427.433 82.0825 428.162 82.9335C428.949 83.8507 429.24 84.9323 430.063 85.8582C430.326 86.1536 430.824 87.817 430.824 88.2272C430.824 89.3128 431.843 89.2716 432.286 90.0698C433.397 92.0697 434.311 96.2255 433.339 98.4929C432.507 100.435 429.771 102.757 429.771 104.81C429.771 107 431.35 108.465 431.35 110.718C431.35 112.628 429.494 117.168 427.139 117.445C426.125 117.564 424.538 118.152 423.717 118.79C422.422 119.797 421.649 119.592 420.295 120.194C415.991 122.107 409.528 123.898 404.794 123.762C401.716 123.674 400.747 122.678 398.594 120.721C397.306 119.55 395.056 118.498 393.329 118.498C390.604 118.498 389.761 117.652 389.761 114.813C389.761 113.026 390.504 110.204 388.182 110.075C385.785 109.942 383.692 109.951 381.338 110.075C378.818 110.207 376.502 110.601 373.968 110.601C369.432 110.601 364.377 114.172 360.807 110.601C358.942 108.737 358.701 107.907 358.701 105.337C358.701 102.654 359.037 101.041 357.121 99.0194C355.254 97.0487 351.161 97.9665 348.581 97.9665C346.778 97.9665 344.339 97.2252 342.79 96.1531C339.814 94.0923 341.888 92.7766 340.685 90.0698C340.216 89.0149 339.531 88.4529 338.696 87.7008C337.909 86.9927 336.158 86.1561 335.654 85.3317C335.062 84.3625 335.011 83.5385 335.011 82.4363C335.011 80.9084 334.379 81.3077 333.431 80.3597C330.872 77.8001 335.597 74.9901 333.431 72.697C331.178 70.3107 333.886 69.4908 335.654 68.076C336.788 67.169 338.245 64.236 339.222 63.7474" stroke="white" stroke-linecap="round"/>
<path d="M626.505 194.374C626.678 193.487 626.673 190.515 627.54 189.821C628.131 189.348 627.73 187.271 628.069 186.51C628.932 184.567 624.175 183.001 623.171 182.165C621.916 181.119 621.539 181.163 621.539 179.475C621.539 178.327 621.914 176.387 621.447 175.336C620.422 173.031 619.385 170.836 618.021 168.714C616.788 166.796 616.31 163.871 618.642 162.414C619.63 161.796 622.499 157.665 622.757 156.505C623.234 154.361 622.366 152.197 622.366 150.09C622.366 148.663 624.218 147.756 623.999 146.549C623.696 144.883 622.366 144.103 622.366 142.433C622.366 140.107 625.588 138.703 626.505 136.639C627.652 134.058 627.322 130.854 628.666 128.569C629.691 126.827 632.97 126.673 633.564 128.753C634.239 131.118 640.086 129.123 641.726 130.316C643.527 131.626 644.644 131.88 646.992 131.88C647.782 131.88 650.243 132.03 650.601 132.708C651.2 133.839 651.505 134.947 652.073 136.019C653.441 138.603 656.472 138.187 658.557 139.513C661.114 141.141 664.224 138.817 665.915 136.938C667.67 134.988 670.01 137.369 670.697 138.916C671.659 141.08 674.855 140.985 677.02 140.985C678.936 140.985 680.932 140.468 682.791 140.571C684.212 140.65 683.921 143.449 684.539 144.204C685.759 145.695 686.715 148.848 689.206 148.848C690.9 148.848 692.594 148.848 694.287 148.848C695.553 148.848 696.426 148.161 697.69 148.021C699.947 147.77 702.755 145.223 704.91 146.986C708.125 149.617 703.641 149.712 702.565 151.746C701.43 153.889 701.564 156.401 703.714 157.77C705.48 158.893 708.559 160.699 709.463 162.506C709.902 163.385 709.105 165.15 709.693 165.495C711.352 166.471 709.533 167.851 708.451 168.392C705.908 169.664 705.041 171.44 704.335 173.91C703.662 176.266 704.554 177.808 702.565 179.797C701.024 181.338 697.113 182.788 694.977 183.177C694.234 183.312 690.723 182.873 690.655 184.027C690.568 185.492 690.948 186.335 692.31 187.016C695.471 188.597 697.175 188.994 700.794 188.994C703.414 188.994 705.746 187.128 707.715 189.316C709.798 191.63 705.714 193.954 704.312 194.696C702.373 195.723 699.209 194.925 697.483 196.65C696.491 197.643 695.621 199.162 695.621 200.582C695.621 201.423 695.583 203.985 695.115 204.629C693.076 207.433 695.212 209.135 698.081 208.239C702.083 206.988 702.066 217.327 704.128 219.39C705.989 221.251 701.994 224.153 703.163 225.322C704.941 227.101 708.451 223.219 708.451 227.69C708.451 229.09 708.649 229.553 707.117 229.553C705.428 229.553 705.554 229.84 705.554 231.415C705.554 232.583 705.612 233.767 705.554 234.933C705.469 236.641 703.079 238.329 702.335 239.899C701.029 242.657 704.726 243.544 704.726 245.487C704.726 247.607 703.569 249.78 702.565 251.488C701.034 254.09 697.955 254.385 695.207 254.385C691.866 254.385 688.524 254.385 685.182 254.385C683.593 254.385 678.315 253.527 677.227 254.615C676.328 255.514 675.092 255.213 673.778 255.213C671.783 255.213 671.959 254.688 672.031 252.821C672.094 251.163 673.996 248.465 672.536 246.843C671.123 245.272 667.695 245.28 665.616 245.28C662.334 245.28 665.001 240.429 662.006 240.313C659.38 240.212 655.175 240.604 654.211 237.232C653.488 234.702 652.169 233.278 649.176 233.278C648.351 233.278 645.543 233.789 645.543 232.657C645.543 231.178 646.725 230.737 647.198 229.553C647.42 229 648.784 227.996 649.268 227.483C650.239 226.456 650.509 225.983 650.509 224.586C650.509 222.015 647.176 222.103 644.922 222.103C642.614 222.103 640.99 221.914 640.99 219.413C640.99 216.63 638.864 216.424 637.771 214.24C636.851 212.4 639.782 209.767 638.277 208.262C637.433 207.417 636.251 203.866 637.679 202.973C639.115 202.076 635.289 197.79 634.782 196.65C633.548 193.873 630.686 194.936 628.161 194.788C627.146 194.728 628.071 188.277 627.54 187.108C626.483 184.783 623.194 184.161 623.194 181.544" stroke="white" stroke-linecap="round"/>
<path d="M438.195 3.58066C439.721 3.28281 441.194 3.08048 442.747 3.1668C443.832 3.22705 444.324 3.99453 445.553 3.99453C448.202 3.99453 451.823 3.02667 454.313 2.15512C455.874 1.60876 455.876 1.22069 456.612 2.54599C457.178 3.56437 457.463 4.63779 457.969 5.65001C458.752 7.21587 461.414 9.0776 462.82 10.2026C466.408 13.0727 466.752 17.1965 466.752 21.5839C466.752 22.6392 466.391 24.4028 466.982 25.3317C467.856 26.7051 469.17 27.8787 469.971 29.2405C470.931 30.8725 474.905 30.358 476.478 31.9306C478.236 33.6889 480.118 36.8232 477.099 38.2536C474.743 39.3696 471.178 39.8222 468.614 40.392C465.583 41.0655 466.516 44.1536 467.993 45.7952C468.817 46.7103 469.669 47.3769 470.569 48.1865C471.379 48.9156 472.585 48.6801 473.167 49.727C474.565 52.2438 473.095 54.1814 472.04 56.5558C471.318 58.1801 472.618 57.5997 473.788 58.1193C474.876 58.603 474.793 59.5966 474.592 60.9014C474.426 61.9849 471.178 67.4403 473.788 67.7303C475.12 67.8783 476.978 68.6972 478.34 68.0522C479.67 67.4222 480.121 66.5395 481.858 66.9255C482.786 67.1317 483.065 68.7879 483.95 68.9489C485.077 69.1536 487.378 67.8474 488.273 68.7419C489.575 70.0444 490.34 71.9522 492.504 71.8689C493.946 71.8135 495.241 70.4974 496.55 70.0065C498.838 69.1486 500.609 67.5358 502.758 66.5806C505.236 65.4795 507.725 68.1194 507.725 70.4204C507.725 72.1397 506.23 76.5873 509.38 76.4215C510.139 76.3815 515.141 74.3385 515.565 75.8237C516.261 78.2596 514.347 79.6575 514.347 81.8938C514.347 84.787 516.978 84.9277 518.072 87.389C518.553 88.4725 519.313 89.4125 519.313 90.7C519.313 92.0075 518.485 92.7296 518.485 94.1259C518.485 95.2602 518.485 96.3945 518.485 97.5288C518.485 98.7678 519.313 99.2218 519.313 100.219C519.313 101.493 519.646 103.268 520.325 104.335C521.073 105.51 522.128 104.989 522.946 105.898C524.104 107.184 525.494 109.512 525.912 111.393C526.065 112.083 526.726 113.307 527.361 113.67C528.443 114.288 527.509 115.326 528.096 116.061C529.935 118.359 526.8 120.391 525.314 121.533C522.774 123.487 518.979 118.556 516.83 120.705C514.935 122.6 513.761 124.086 511.243 125.442C508.798 126.758 506.995 125.348 505.655 128.362C505.286 129.193 502.934 130.852 502.138 131.029C500.399 131.415 498.227 131.052 496.458 131.052C493.84 131.052 491.38 131.033 488.871 131.489C485.09 132.176 485.199 130.283 485.376 126.913C485.425 125.99 486.2 125.02 485.698 124.016C485.128 122.878 483.824 122.752 483.1 121.947C481.992 120.717 478.902 118.85 478.754 117.073C478.601 115.237 477.302 111.496 475.006 111.209C473.404 111.009 469.44 110.555 467.993 111.278C466.618 111.966 466.976 112.527 465.096 112.428C464.473 112.395 464.207 111.646 463.625 111.646C463.052 111.646 462.04 112.299 461.578 112.658C460.808 113.257 460.096 114.497 459.072 114.497C457.356 114.497 455.639 114.497 453.922 114.497C451.882 114.497 450.666 112.842 448.335 112.842C445.851 112.842 443.512 112.697 441.092 112.428C438.672 112.159 436.192 112.428 433.642 112.428C432.613 112.428 430.745 112.867 430.745 111.393C430.745 110.385 430.45 108.795 430.837 107.875C431.937 105.264 430.169 103.061 432.631 101.047C433.43 100.393 434.745 100.318 434.447 98.9773C434.129 97.5464 432.815 97.3718 432.815 95.8733C432.815 93.1859 433.229 90.6351 433.229 88.0098C433.229 86.7053 432.688 86.0935 432.424 84.9058C431.911 82.597 430.809 82.0222 429.596 80.1463C429.367 79.7928 427.613 79.1768 427.112 78.9967C425.665 78.4755 424.398 76.6063 424.146 74.973C423.952 73.7076 425.732 73.3776 426.423 72.4897C427.297 71.3651 427.434 70.7263 427.434 69.2938C427.434 68.167 427.02 67.2326 427.02 66.0748C427.02 64.6471 428.129 63.0908 426.814 61.7752C425.302 60.2638 431.241 60.2499 431.159 58.1193C431.119 57.0627 428.947 55.3451 430.01 54.1646C430.914 53.1593 432.455 52.8955 432.792 51.3825C433.052 50.2107 433.793 48.3628 433.412 47.2208C433.087 46.2456 431.21 45.0066 431.159 44.1398C431.092 42.9984 431.32 41.9015 430.837 40.8288C430.314 39.6649 429.09 38.5155 429.09 37.2879C429.09 35.3295 429.471 33.1051 431.987 32.9653C433.367 32.8886 432.426 31.7459 433.229 30.896C434.168 29.9008 435.16 28.393 436.539 27.9989C438.816 27.3484 437.241 23.8872 439.023 22.2047C440.289 21.0086 444.711 21.1043 443.368 18.6869C442.638 17.3717 442.202 16.7332 440.839 15.7898C439.601 14.9328 437.025 13.9783 436.218 12.6858C434.935 10.6335 433.519 8.44236 434.47 6.06388C435.384 3.77873 438.598 4.69153 440.264 3.58066" stroke="white" stroke-linecap="round"/>
</svg>
