<svg width="164" height="164" viewBox="0 0 164 164" fill="none" xmlns="http://www.w3.org/2000/svg">
<path d="M82 6.83325L20.5 34.1666V75.1666C20.5 113.092 46.74 148.557 82 157.167C117.26 148.557 143.5 113.092 143.5 75.1666V34.1666L82 6.83325Z" fill="#1E1E1E"/>
<path d="M82 11L24 36.8182V75.5454C24 111.368 48.7467 144.867 82 153C115.253 144.867 140 111.368 140 75.5454V36.8182L82 11Z" fill="white"/>
<path d="M82 15L27 39.3636V75.9091C27 109.714 50.4667 141.325 82 149C113.533 141.325 137 109.714 137 75.9091V39.3636L82 15Z" fill="#1E1E1E"/>
<path d="M53.1825 80.1H50.5825V86H48.0225V72H50.5825V77.86H53.2625L57.2825 72H60.0425L55.2625 78.78L60.2225 86H57.2825L53.1825 80.1ZM62.0073 72H64.5673V81.94L72.0873 72H74.5073V86H71.9473V76.08L64.4273 86H62.0073V72ZM88.9327 83.82V86H78.4327V72H88.6527V74.18H81.0327V77.82H87.7927V79.96H81.0327V83.82H88.9327ZM101.051 78.72C101.944 78.96 102.624 79.3733 103.091 79.96C103.558 80.5333 103.791 81.2533 103.791 82.12C103.791 83.3467 103.338 84.3 102.431 84.98C101.524 85.66 100.211 86 98.4911 86H91.8511V72H98.1111C99.6844 72 100.911 72.3133 101.791 72.94C102.671 73.5667 103.111 74.4533 103.111 75.6C103.111 76.3333 102.931 76.9667 102.571 77.5C102.224 78.0333 101.718 78.44 101.051 78.72ZM94.4111 77.98H97.8911C98.7311 77.98 99.3711 77.8133 99.8111 77.48C100.251 77.1467 100.471 76.6533 100.471 76C100.471 75.3467 100.251 74.8533 99.8111 74.52C99.3711 74.1733 98.7311 74 97.8911 74H94.4111V77.98ZM98.4111 84C100.251 84 101.171 83.3067 101.171 81.92C101.171 80.56 100.251 79.88 98.4111 79.88H94.4111V84H98.4111ZM116.04 72V86H113.44V74.18H110.48V72H116.04Z" fill="white"/>
</svg>
