<svg width="1259" height="448" viewBox="0 0 1259 448" fill="none" xmlns="http://www.w3.org/2000/svg">
<path d="M629 446.5C749.674 446.5 847.5 348.674 847.5 228C847.5 107.326 749.674 9.5 629 9.5C508.326 9.5 410.5 107.326 410.5 228C410.5 348.674 508.326 446.5 629 446.5Z" stroke="#B4B4B4" stroke-opacity="0.5" stroke-width="3"/>
<path d="M844.208 270.836L844.284 276.291L844.2 270.291L850.248 270.22" stroke="#B4B4B4"/>
<path d="M411.792 264.387L411.716 268.976L411.8 263.928L405.752 263.868" stroke="#B4B4B4"/>
<path d="M409 266.207L210.32 331" stroke="#B4B4B4" stroke-dasharray="3 3"/>
<path d="M209 331H6.19888e-06" stroke="#B4B4B4" stroke-dasharray="3 3"/>
<path d="M411.792 188.613L411.716 184.024L411.8 189.072L405.752 189.132" stroke="#B4B4B4"/>
<path d="M409 186.793L210.32 122" stroke="#B4B4B4" stroke-dasharray="3 3"/>
<path d="M209 122H6.19888e-06" stroke="#B4B4B4" stroke-dasharray="3 3"/>
<path d="M847 273L1045.68 350" stroke="#B4B4B4" stroke-dasharray="3 3"/>
<path d="M1046 350H1256" stroke="#B4B4B4" stroke-dasharray="3 3"/>
<path d="M847.208 188.613L847.284 184.024L847.2 189.072L853.248 189.132" stroke="#B4B4B4"/>
<path d="M850 186.793L1048.68 122" stroke="#B4B4B4" stroke-dasharray="3 3"/>
<path d="M1049 122H1259" stroke="#B4B4B4" stroke-dasharray="3 3"/>
<path d="M788 6.83325L726.5 34.1666V75.1666C726.5 113.092 752.74 148.557 788 157.167C823.26 148.557 849.5 113.092 849.5 75.1666V34.1666L788 6.83325Z" fill="#1E1E1E"/>
<path d="M788 11L730 36.8182V75.5454C730 111.368 754.747 144.867 788 153C821.253 144.867 846 111.368 846 75.5454V36.8182L788 11Z" fill="white"/>
<path d="M788 15L733 39.3636V75.9091C733 109.714 756.467 141.325 788 149C819.533 141.325 843 109.714 843 75.9091V39.3636L788 15Z" fill="#1E1E1E"/>
<path d="M759.182 80.1H756.583V86H754.022V72H756.583V77.86H759.263L763.283 72H766.042L761.263 78.78L766.222 86H763.283L759.182 80.1ZM768.007 72H770.567V81.94L778.087 72H780.507V86H777.947V76.08L770.427 86H768.007V72ZM794.933 83.82V86H784.433V72H794.653V74.18H787.033V77.82H793.793V79.96H787.033V83.82H794.933ZM807.051 78.72C807.944 78.96 808.624 79.3733 809.091 79.96C809.558 80.5333 809.791 81.2533 809.791 82.12C809.791 83.3467 809.338 84.3 808.431 84.98C807.524 85.66 806.211 86 804.491 86H797.851V72H804.111C805.684 72 806.911 72.3133 807.791 72.94C808.671 73.5667 809.111 74.4533 809.111 75.6C809.111 76.3333 808.931 76.9667 808.571 77.5C808.224 78.0333 807.718 78.44 807.051 78.72ZM800.411 77.98H803.891C804.731 77.98 805.371 77.8133 805.811 77.48C806.251 77.1467 806.471 76.6533 806.471 76C806.471 75.3467 806.251 74.8533 805.811 74.52C805.371 74.1733 804.731 74 803.891 74H800.411V77.98ZM804.411 84C806.251 84 807.171 83.3067 807.171 81.92C807.171 80.56 806.251 79.88 804.411 79.88H800.411V84H804.411ZM822.04 72V86H819.44V74.18H816.48V72H822.04Z" fill="white"/>
</svg>
