<svg width="24" height="18" viewBox="0 0 24 18" fill="none" xmlns="http://www.w3.org/2000/svg">
<path d="M23.0767 2.13092C22.2529 2.49231 21.375 2.73185 20.4598 2.84815C21.4013 2.286 22.1199 1.40262 22.4578 0.337846C21.5799 0.861231 20.6107 1.23092 19.5778 1.43723C18.7442 0.549693 17.5562 0 16.2602 0C13.7458 0 11.7215 2.04092 11.7215 4.54292C11.7215 4.90292 11.7519 5.24908 11.8267 5.57862C8.05085 5.39446 4.70977 3.58477 2.46531 0.828C2.07347 1.50785 1.84362 2.286 1.84362 3.12369C1.84362 4.69662 2.65362 6.09092 3.86101 6.89815C3.13131 6.88431 2.41547 6.67246 1.80901 6.33877C1.80901 6.35262 1.80901 6.37062 1.80901 6.38862C1.80901 8.59569 3.38331 10.4289 5.44777 10.8512C5.07808 10.9523 4.67516 11.0008 4.25701 11.0008C3.96624 11.0008 3.6727 10.9842 3.39716 10.9232C3.98562 12.7218 5.65547 14.0442 7.64101 14.0871C6.09578 15.2958 4.13377 16.0242 2.00977 16.0242C1.63731 16.0242 1.28008 16.0075 0.922852 15.9618C2.9347 17.2592 5.31901 18 7.89024 18C16.2478 18 20.817 11.0769 20.817 5.076C20.817 4.87523 20.8101 4.68139 20.8004 4.48892C21.7018 3.84923 22.4592 3.05031 23.0767 2.13092Z" fill="#1E1E1E" fill-opacity="0.5"/>
</svg>
