<svg width="102" height="142" viewBox="0 0 102 142" fill="none" xmlns="http://www.w3.org/2000/svg">
<path d="M35.4821 139.276C34.1398 136.927 28.9429 140.72 27.776 141.315C26.8875 139.538 26.3223 138.35 27.6944 136.463C29.0313 134.625 26.6042 130.673 24.6568 130.673C23.6083 130.673 22.3366 130.007 22.2716 128.838C22.2345 128.17 22.2716 127.49 22.2716 126.82C22.2716 126.141 21.6905 125.948 21.5581 125.352C21.2853 124.124 19.8059 123.761 18.6836 123.416C16.9247 122.874 18.969 122.432 18.969 121.132C18.969 119.968 17.9436 119.09 18.2555 117.687C18.5754 116.247 19.0602 115.939 20.5184 115.995C22.2216 116.06 25.9412 117.588 25.9412 115.077C25.9412 114.021 26.8657 112.862 27.776 112.407C28.4239 112.083 30.0551 112.33 30.3243 111.387C30.7142 110.023 32.2856 106.582 29.9777 106.454C29.4552 106.425 26.9793 105.183 26.6751 104.803C25.6173 103.48 25.6829 102.784 23.7395 102.784C22.9089 102.784 20.1892 103.209 19.7029 102.601C18.8731 101.564 17.9223 100.572 16.6042 100.195C16.0173 100.028 12.7428 98.2338 12.7307 97.9324C12.6224 95.2256 12.7433 97.28 11.0998 97.28C7.4586 97.28 8.08598 93.7972 7.96027 91.4087C7.88859 90.0467 6.48078 89.2098 5.37118 88.84C4.10222 88.417 3.89644 87.6042 3.27136 86.6382C2.31317 85.1574 3.10787 85.2603 2.80247 83.886C2.64051 83.1572 0.636364 82.3986 1.19193 81.6843C2.32271 80.2304 3.18982 80.7387 3.18982 78.5651V74.814C3.18982 74.0748 3.5547 71.7842 4.49455 71.6133C5.18179 71.4884 8.55962 71.1495 9.06114 71.7764C9.76596 72.6574 11.2405 73.0608 12.3638 73.0608C13.9262 73.0608 13.6455 71.1599 14.0151 70.1251C14.9006 67.6457 15.2994 65.0889 15.2994 62.419C15.2994 61.5012 15.662 59.6612 15.0956 58.9329C14.4691 58.1274 13.4646 57.2434 13.4646 56.1807C13.4646 55.0245 13.6532 53.8887 12.5269 53.245C11.6351 52.7355 10.529 51.2057 10.529 50.1259C10.529 49.0759 10.4135 48.355 10.529 47.3737C10.664 46.2262 12.3638 45.8066 12.3638 44.2546C12.3638 43.1837 11.2564 40.8589 10.0805 40.7685C9.2761 40.7066 7.19783 40.6934 6.49244 40.32C5.87557 39.9934 4.84985 36.9547 4.67803 36.1815C4.37369 34.812 3.18982 34.306 3.18982 32.8789C3.18982 31.3717 5.38597 30.1783 6.77785 30.1267C7.96564 30.0827 8.66796 29.4259 9.79506 29.3928C10.8643 29.3613 11.186 30.1267 12.2211 30.1267C13.221 30.1267 14.4595 30.3247 15.4421 30.1063C15.768 30.0339 16.0341 28.5895 16.1964 28.2919C16.748 27.2808 16.8999 27.8976 17.5827 27.925C19.878 28.0168 25.2925 27.6024 22.1085 24.4185C20.6721 22.9821 22.4687 23.4345 23.3725 23.073C24.7626 22.5169 25.2154 21.8602 26.1247 20.7489C27.0901 19.5689 27.776 19.609 27.776 18.0171C27.776 16.8053 27.3765 15.8699 28.7953 15.8153C29.5698 15.7856 30.4145 14.4658 30.7117 13.7971C31.3025 12.4677 31.8832 12.3848 32.9134 11.4119C34.0156 10.3709 33.3089 9.56901 33.6677 8.3131C33.9301 7.39466 35.092 7.67941 35.4821 7.19184C36.9593 5.34537 36.6925 3.69252 36.9499 1.50399C37.0798 0.399922 45.7947 1.3725 46.8578 1.52438C48.5755 1.76977 48.3091 3.25445 49.0595 4.35811C49.8239 5.48218 51.1037 4.95507 52.1787 5.19395C53.2647 5.43529 54.669 5.66569 55.6648 6.1929C56.3782 6.57056 56.0317 8.51878 56.0317 9.29165C56.0317 10.7194 55.7821 11.4943 55.1143 12.6962C54.1848 14.3694 55.7297 14.1967 56.7657 14.6329C58.4175 15.3284 60.3356 14.8339 62.0254 15.4484C62.5709 15.6467 62.27 18.0777 62.27 18.5675C62.27 19.892 63.3872 20.3612 64.4718 20.9528C66.0015 21.7871 63.7628 22.3925 64.6756 23.1749C65.2582 23.6742 66.6044 25.7481 66.9589 26.4571C67.4242 27.3877 66.2421 28.3073 65.5726 28.7404C64.2951 29.5671 66.5665 30.4094 66.2862 31.3907C66.0258 32.3019 65.0783 33.2345 65.6542 34.5302C66.0543 35.4304 67.4074 35.9085 67.4074 36.9154C67.4074 37.9593 66.3694 38.6948 66.6939 39.8307C66.9251 40.6399 68.4996 43.3925 69.2422 43.7857C70.4336 44.4164 71.8623 43.7034 73.0749 44.2546C74.5844 44.9407 75.5067 43.9769 76.5814 45.6205C77.5333 47.0764 76.36 47.8258 76.2144 49.2085C76.1034 50.263 75.8475 51.196 75.8475 52.3276C75.8475 53.4991 78.2053 52.931 78.8647 53.5305C79.9943 54.5574 80.1684 55.0361 80.6531 56.3691L80.6587 56.3846C81.3379 58.2524 83.5546 59.4839 85.1875 60.3911L85.2049 60.4007C86.4449 61.0896 88.2681 60.336 89.5064 61.2366C90.6481 62.0668 90.7946 62.256 91.4432 63.683C92.0355 64.9861 92.0297 66.4555 93.8284 66.4555H97.8649C98.7862 66.4555 100.363 66.0977 100.984 66.8429C101.533 67.5013 101.168 69.4415 101.168 70.3086C101.168 72.6492 101.515 74.8956 98.5988 74.8956C96.1165 74.8956 93.8284 75.0927 93.8284 77.8312C93.8284 79.146 93.8183 79.9658 93.2983 81.1542C92.6083 82.7314 93.3755 84.7767 93.0741 86.4343C92.8074 87.901 90.9694 87.33 89.8734 87.3721C88.3701 87.4299 88.6603 89.2595 86.4892 88.6565C85.3478 88.3394 83.7927 88.1067 83.1051 89.2069C82.5801 90.0469 81.3776 92.4469 80.251 92.5095C78.2106 92.6229 74.3796 92.5265 74.3796 95.3636C74.3796 97.7745 75.417 99.6026 74.1758 101.908C72.6696 104.705 71.1262 108.338 73.6457 110.857C74.5281 111.74 75.8714 111.977 76.7649 112.692C77.4965 113.278 75.6921 114.057 75.297 114.364C73.2341 115.968 75.4805 118.509 75.4805 120.582C75.4805 121.656 75.8928 123.61 75.1135 124.435C73.6318 126.004 72.3061 126.637 70.1392 126.637C67.9877 126.637 67.2772 122.576 64.7572 123.416C63.3665 123.879 62.0923 124.435 60.6187 124.435C58.6413 124.435 56.7897 125.731 54.7474 125.882C52.9536 126.015 51.1417 125.834 49.345 125.903C47.5765 125.971 46.5588 127.303 45.39 128.471C44.3333 129.528 43.5496 130.579 42.7397 131.692C42.2448 132.373 41.4005 134.549 41.3534 135.444C41.288 136.687 40.2091 139.847 38.7847 139.847C38.0169 139.847 35.9313 140.062 35.4821 139.276Z" stroke="white" stroke-linecap="round"/>
</svg>
