<svg width="132" height="184" viewBox="0 0 132 184" fill="none" xmlns="http://www.w3.org/2000/svg">
<path d="M62.4178 183L63.3573 176.399L57.7204 170.741L50.6743 167.912L42.6887 169.798L31.4149 176.399L25.3083 174.513L23.8991 181.585C17.3227 180.8 3.60623 176.399 1.35148 165.083C-0.903282 153.767 8.24102 160.054 13.095 164.611L14.5041 157.067L13.095 154.238L19.6713 147.166L25.3083 145.751L26.7174 135.85L36.1122 133.021L33.2938 128.777L38.9307 123.591L33.2938 119.347L36.1122 115.104L33.2938 109.446V106.617L42.2189 106.145L46.4466 101.43V112.275L49.265 105.202L56.7809 106.145L62.4178 115.104L64.7665 113.689L64.2967 108.974L66.6454 108.031L73.2218 112.275L76.51 111.332L81.2074 113.689V117.461L87.7838 121.705L95.2997 129.72C95.926 129.877 96.8028 130.286 95.2997 130.663C93.7965 131.04 96.8655 128.934 98.5878 127.834L93.4207 119.347L84.9653 112.275L77.4495 108.031L71.3428 102.373L76.51 99.0726V85.399L68.0547 82.0985L60.5388 77.3834V70.3109L58.1901 69.3679L59.5993 65.1244L60.5388 51.9223L56.7809 57.5803H52.0835V50.9793L49.265 49.0933L43.1584 48.1503V41.0777L46.4466 38.7202V25.0466L49.265 22.2176L44.5676 16.0881L41.2794 18.4456L34.2333 17.0311L31.4148 10.4301L36.582 8.07254L43.1584 3.35751L48.3255 8.07254L59.5993 7.12953L67.1152 1.94301L73.2218 3.35751L76.51 1L81.6772 7.12953H91.072L87.7838 14.2021L91.5417 25.9896L95.2997 28.3472V37.7772L109.392 38.2487L110.331 44.3782H114.089V57.5803L117.847 59.4663L119.726 60.4093H126.303L123.954 65.1244L131 66.5389V71.7254L128.651 75.9689L121.605 78.3264L119.726 80.2124L122.545 83.0415L126.303 88.6995V96.2435L125.363 100.016L110.331 102.373L108.452 104.259V109.446V116.047L99.9971 126.891L84.9653 144.337L66.6454 158.953L60.5388 164.611L61.0085 167.44L66.6454 167.912V180.643L62.4178 183Z" stroke="white"/>
</svg>
