<svg width="112" height="125" viewBox="0 0 112 125" fill="none" xmlns="http://www.w3.org/2000/svg">
<path d="M4.06353 66.9061C5.32895 66.3939 9.18283 65.5919 8.01188 63.4842C7.48873 62.5425 6.75466 62.1755 6.69576 61.1152C6.53015 58.1342 5.11642 55.2122 5.11642 52.0486C5.11642 48.7958 4.83764 45.6684 4.58997 42.5726C4.44257 40.7301 3.07213 38.3441 4.99943 36.8987C8.91124 33.9648 13.9917 31.7767 14.5925 26.3697C14.7805 24.6771 17.136 21.9543 18.3946 20.6958C19.6081 19.4823 23.6685 19.6939 25.0044 20.6958C30.3438 24.7004 31.1376 17.6576 35.6503 17.4201C38.9964 17.244 41.1618 16.9961 44.4829 18.0636C47.922 19.169 51.4178 18.9995 55.0119 18.9995C58.8325 18.9995 65.1305 21.2102 68.173 17.8296C69.1277 16.7688 70.315 13.6094 70.3958 12.1557C70.451 11.162 69.4014 10.4539 69.4014 9.75741C69.4014 8.39015 70.7175 8.53621 69.9863 6.8912C67.1585 0.528647 79.4134 6.39638 80.9247 6.77421C84.3504 7.63064 87.8326 7.41765 91.3367 7.41765C94.2838 7.41765 95.7529 5.75069 97.771 3.73252C99.494 2.00957 100.585 1.24442 103.035 1.10029C105.285 0.96797 106.721 -0.506731 106.721 2.67963C106.721 7.5384 101.878 11.3141 107.657 15.3143C109.712 16.7377 111.635 15.994 111.459 18.9995C111.415 19.7401 107.611 22.0534 106.721 22.1582C103.79 22.5029 107.327 26.7055 107.247 27.4226C107.045 29.2395 101.931 29.5699 100.813 30.4643C100.139 31.0037 98.9938 30.5006 98.2975 31.371C97.609 32.2316 97.771 33.2017 97.771 34.2664C97.771 36.1191 98.8239 37.5369 98.8239 39.5309C98.8239 41.1624 98.7974 44.3409 99.4674 45.8483C100.122 47.3203 102.385 50.2567 101.866 51.7561C101.217 53.6309 97.6987 55.8344 96.1917 57.4301C94.8446 58.8565 95.5535 62.1739 96.6011 63.338C98.3631 65.2958 95.1781 67.7222 94.4954 69.0119C93.4465 70.9931 93.5595 72.6107 93.5595 74.9198C93.5595 76.059 94.303 77.1162 94.0566 78.2247C93.8427 79.1876 92.4418 79.2559 93.15 80.5937C93.6436 81.526 95.433 82.0825 96.1624 82.9335C96.9486 83.8507 97.2405 84.9323 98.0635 85.8582C98.3261 86.1536 98.8239 87.817 98.8239 88.2272C98.8239 89.3128 99.8429 89.2716 100.286 90.0698C101.397 92.0697 102.311 96.2255 101.339 98.4929C100.507 100.435 97.771 102.757 97.771 104.81C97.771 107 99.3504 108.465 99.3504 110.718C99.3504 112.628 97.4938 117.168 95.1388 117.445C94.1248 117.564 92.5382 118.152 91.7169 118.79C90.4224 119.797 89.6494 119.592 88.295 120.194C83.9906 122.107 77.5285 123.898 72.7941 123.762C69.7165 123.674 68.7466 122.678 66.5937 120.721C65.3063 119.55 63.0556 118.498 61.3292 118.498C58.6037 118.498 57.7611 117.652 57.7611 114.813C57.7611 113.026 58.5038 110.204 56.1817 110.075C53.7848 109.942 51.6918 109.951 49.3379 110.075C46.8183 110.207 44.5019 110.601 41.9677 110.601C37.4318 110.601 32.3774 114.172 28.8065 110.601C26.9422 108.737 26.7007 107.907 26.7007 105.337C26.7007 102.654 27.0371 101.041 25.1214 99.0194C23.2545 97.0487 19.1611 97.9665 16.5813 97.9665C14.7777 97.9665 12.3389 97.2252 10.7903 96.1531C7.81359 94.0923 9.88758 92.7766 8.68456 90.0698C8.21575 89.0149 7.53146 88.4529 6.69576 87.7008C5.90906 86.9927 4.15787 86.1561 3.65407 85.3317C3.06172 84.3625 3.01064 83.5385 3.01064 82.4363C3.01064 80.9084 2.37926 81.3077 1.4313 80.3597C-1.12838 77.8001 3.59694 74.9901 1.4313 72.697C-0.822437 70.3107 1.88552 69.4908 3.65407 68.076C4.78784 67.169 6.24509 64.236 7.22221 63.7474" stroke="white" stroke-linecap="round"/>
</svg>
