<svg width="127" height="117" viewBox="0 0 127 117" fill="none" xmlns="http://www.w3.org/2000/svg">
<path d="M120.818 72.092C120.818 68.7629 120.266 65.157 119.356 61.9725C118.909 60.4072 119.501 58.8632 118.829 57.3515C118.569 56.7666 117.683 55.714 117.66 55.1287C117.411 48.9048 125.835 50.782 125.556 45.7697C125.464 44.1078 120.66 39.7609 121.988 37.99C122.652 37.1046 124.441 36.8898 124.503 35.7672C124.573 34.5088 124.503 33.2249 124.503 31.9651C124.503 30.0061 124.339 26.2076 122.807 24.8288C121.379 23.5437 117.377 22.8957 115.554 22.6353C112.075 22.1383 111.247 18.8361 109.47 16.5519C107.909 14.5437 106.126 11.1116 105.581 8.6552C104.91 5.63755 105.845 5.35331 102.685 3.91718C101.502 3.37956 100.315 3.42691 99.4679 2.33785C98.4709 1.0559 98.2392 1.02173 96.6017 1.02173C94.0568 1.02173 91.6017 1.14406 89.2022 2.10387C86.5846 3.15093 86.3942 3.42873 84.7859 5.49652C83.9927 6.51635 84.2966 7.47058 82.6509 7.83629C81.6835 8.05126 80.4828 7.86553 79.4922 7.86553C77.2021 7.86553 75.0692 9.17111 73.7013 10.995C72.1752 13.0297 71.5504 15.2358 68.7 15.2358C66.9645 15.2358 65.2164 12.6101 64.3715 11.2582C63.2061 9.39363 57.8478 13.033 56.5918 11.8431C55.3478 10.6646 54.6386 9.06454 53.3161 7.98252C52.3649 7.2043 51.6861 5.90992 50.5669 5.35029C48.6615 4.39762 46.5509 4.74661 44.4835 4.70685C42.1518 4.66201 40.032 3.78014 37.6397 4.2974C34.2483 5.03067 33.18 6.31449 31.7318 9.2109C30.4939 11.6866 26.8318 11.9735 24.5955 12.8375C23.2101 13.3728 21.4004 14.9239 19.9745 13.6564C19.1529 12.9262 18.529 12.9962 17.7517 13.7734C17.064 14.4611 16.4449 15.187 15.6459 15.7622C14.2544 16.7641 13.1176 15.7596 12.0778 16.6104C11.0268 17.4703 10.1447 18.254 8.9776 18.9209C7.85528 19.5622 8.0115 21.4283 6.87181 22.0796C6.37056 22.366 6.41741 24.3079 6.05289 24.9458C5.47181 25.9627 3.42066 24.3631 3.42066 26.0279C3.42066 27.0808 3.42066 28.1337 3.42066 29.1866C3.42066 30.41 2.15694 30.8458 1.87057 31.8481C1.06932 34.6525 1.06042 36.8978 4.47355 37.873C6.8604 38.5549 8.45257 38.9259 11.0541 38.9259C13.3376 38.9259 13.9496 42.2154 13.9496 43.9564C13.9496 49.0563 20.1637 49.6491 23.9521 51.4436C26.6929 52.7419 27.4257 53.8689 25.9409 56.2986C25.493 57.0315 24.0815 57.9442 25.005 58.5214C25.7185 58.9674 26.6342 59.6624 26.5843 60.5102C26.5332 61.3787 21.911 60.8307 20.9104 62.2065C19.1622 64.6103 22.3727 67.232 22.3727 69.0503C22.3727 71.7593 18.8242 72.6185 16.6988 72.6185C12.5605 72.6185 11.3868 72.5987 9.32856 76.3036C8.8552 77.1556 7.49506 82.5552 8.39266 83.0304C9.36815 83.5469 11.2221 82.5605 12.3703 82.621C13.8837 82.7006 16.21 83.4282 17.6347 83.9371C20.9566 85.1235 19.9174 89.7526 24.7125 88.3826C25.9042 88.0421 26.461 88.2076 27.1108 89.6695C27.617 90.8086 28.9916 90.5177 30.0062 90.5177C33.2091 90.5177 36.3987 90.3296 39.4823 91.0149C41.4593 91.4542 44.5996 91.2136 46.3261 90.2544C48.8602 88.8466 48.6951 94.9306 48.6951 96.0453C48.6951 97.2529 52.7352 99.1546 53.4331 100.725C53.9245 101.83 55.2704 106.573 56.3285 106.808C59.0762 107.419 61.6609 107.533 61.8562 111.049C61.9217 112.227 62.312 113.462 62.3827 114.734C62.4864 116.6 64.4945 115.024 65.3074 114.617C67.0081 113.767 67.8189 111.143 70.1624 111.049C74.3329 110.882 83.9621 114.432 80.1649 106.837C79.8529 106.214 78.7403 105.374 78.7025 104.732C78.6134 103.216 78.6418 101.63 78.7025 100.111C78.7518 98.8777 84.5063 99.4672 85.5463 99.4672C86.6516 99.4672 92.7673 100.662 92.9166 99.4672C93.0879 98.0965 94.2483 95.0353 95.3148 93.9688C96.5894 92.6942 100.813 92.6311 100.813 90.7809C100.813 87.8523 100.439 85.6276 102.656 83.4106C104.171 81.8954 105.891 79.6116 107.394 78.4094C108.073 77.8658 108.184 75.8425 108.184 74.9875C108.184 73.7323 108.696 73.7976 109.236 72.8524C110.97 69.8183 122.924 72.361 122.924 70.7759C122.924 69.7125 122.444 69.0759 121.608 68.4069C120.891 67.8333 121.093 66.2412 120.526 65.5114C119.079 63.6512 119.169 60.8961 118.186 58.9309" stroke="white" stroke-linecap="round"/>
</svg>
