<svg width="134" height="105" viewBox="0 0 134 105" fill="none" xmlns="http://www.w3.org/2000/svg">
<path d="M114.106 82.1475C113.678 79.9545 113.456 75.1633 116.738 74.7772C118.324 74.5906 119.351 72.5642 120.716 72.1742C122.463 71.6749 124.235 70.5378 125.688 69.6298C126.502 69.1207 126.214 68.0363 126.214 67.1438C126.214 65.5996 126.616 65.6206 127.267 64.4823C127.851 63.4597 131.002 61.6751 132.005 61.6161C133.416 61.533 132.148 56.6244 132.034 55.8251C131.641 53.0741 129.664 51.6421 127.267 50.4437C125.746 49.6831 124.613 47.901 123.582 46.6123C122.423 45.164 120.749 44.318 119.897 42.4008C119.003 40.3904 115.871 38.0533 113.579 37.926C111.686 37.8208 110.057 28.3786 111.357 26.7536C112.664 25.1189 111.245 22.5204 109.631 22.1618C108.153 21.8334 104.372 21.6922 103.167 22.776C101.852 23.9599 98.7714 24.2384 96.9963 24.2384C93.91 24.2384 94.6273 21.7663 94.6273 19.5003C94.6273 16.7452 90.1119 16.6547 89.8892 14.7623C89.6122 12.4071 86.0865 10.754 85.1512 8.64969C84.2714 6.67018 82.159 2.4642 80.0037 1.71814C77.9683 1.01355 73.7536 1.30157 71.6391 1.89362C68.6972 2.71736 64.9956 4.03801 62.631 5.92971C60.4366 7.68522 59.2446 5.11544 57.5128 4.73058C56.5119 4.50816 56.1948 3.70694 55.1438 3.70694C54.0909 3.70694 53.038 3.70694 51.9851 3.70694C49.4406 3.70694 46.8961 3.70694 44.3516 3.70694C40.1222 3.70694 35.3295 3.80159 33.15 7.91851C31.2621 11.4845 25.6468 11.6036 21.8606 11.6036C16.946 11.6036 12.3838 10.5507 7.35411 10.5507C1.11617 10.5507 0.919762 13.4643 0.919762 18.9739C0.919762 21.3527 2.34533 21.5486 4.07844 23.1855C4.64461 23.7202 5.97497 24.218 6.15498 25.028C6.38702 26.0722 5.70476 27.5024 6.76917 28.1867C8.89382 29.5526 11.2732 29.6789 11.4487 32.6615C11.5406 34.2244 12.2784 36.2133 13.2913 37.4288C14.6764 39.091 12.6168 42.0188 14.3149 43.7169C15.5328 44.9347 19.2136 44.9633 19.8718 46.1151C21.0546 48.185 19.7439 49.9648 19.8718 52.14C19.9438 53.3633 24.6099 53.2603 24.6099 55.5619C24.6099 58.9986 25.3252 63.2225 22.9135 66.2371C21.0067 68.6206 24.71 69.0421 25.1071 70.8289C25.7624 73.7781 22.358 73.8332 20.3983 73.7243C18.157 73.5998 16.4264 71.9637 13.847 72.7007C12.4079 73.1119 17.2601 76.2958 18.2925 76.3566C20.4972 76.4863 22.5313 76.29 24.3466 77.7019C25.7314 78.7789 27.9424 80.2569 29.8743 79.3983C33.0493 77.9872 40.1377 79.7681 40.959 83.4636C41.08 84.0082 41.4354 85.8022 41.9826 85.8326C42.9777 85.8879 45.5014 84.8859 46.1942 85.5401C48.2166 87.4502 47.527 91.3441 49.6161 92.9689C50.8423 93.9226 53.5605 96.7858 55.5532 95.1917C57.583 93.5679 59.4886 99.8879 61.1979 96.1276C64.1611 89.6085 71.0994 98.7638 74.1251 99.5202C75.0387 99.7486 89.0875 105.934 89.3628 103.732C89.6102 101.753 91.4686 99.9995 91.4686 97.6484C91.4686 94.5872 91.4686 91.526 91.4686 88.4648C91.4686 83.8698 102.326 89.19 103.05 82.6739C103.595 77.7741 111.21 80.4366 113.579 81.621" stroke="white" stroke-linecap="round"/>
</svg>
