<svg width="96" height="126" viewBox="0 0 96 126" fill="none" xmlns="http://www.w3.org/2000/svg">
<path d="M1.19853 66.8411C0.82909 64.9016 0.463224 63.5057 1.41829 61.7866C1.98087 60.7739 2.82686 59.8729 3.29849 58.9297C4.07327 57.3801 3.39616 53.943 3.39616 52.2391C3.39616 46.8746 3.09864 41.4296 3.39616 36.0743C3.42505 35.5543 5.27825 34.8772 5.78914 34.7313C6.35845 34.5686 6.88168 32.2316 6.91238 31.679C7.01551 29.8226 7.70888 28.5804 9.20768 27.3814C11.0165 25.9344 12.1867 26.0564 12.1867 23.328C12.1867 20.6811 12.4375 18.9179 13.5053 16.5153C13.9342 15.5503 14.003 14.6163 14.482 13.6584C15.0992 12.4241 15.6493 13.011 16.8017 12.7549C18.0795 12.471 18.5868 11.2153 19.6586 10.6794C20.3908 10.3133 21.37 10.4777 22.1249 10.1422C24.6521 9.01898 25.6933 6.83975 26.9108 4.64811C28.0161 2.65871 29.4609 2.76097 31.5259 3.79347C34.5965 5.3288 35.2338 4.48966 38.3385 3.10976C40.1908 2.28656 42.6681 -1.73516 43.857 2.42606C44.0981 3.26968 45.3374 4.2642 45.6884 5.40507C46.3913 7.68965 48.2703 7.0655 50.3767 7.0655C51.6183 7.0655 52.1832 6.13948 53.4045 6.18645C54.7808 6.23938 55.8589 6.98469 56.9207 7.74921C58.3426 8.77298 57.9316 13.5073 59.216 13.6584C62.7438 14.0734 64.3893 10.8445 65.4671 8.04223C66.5236 5.29528 70.2752 7.15105 72.4995 7.0655C74.0801 7.00471 74.2844 5.3074 76.1378 5.3074C77.6563 5.3074 78.1136 5.35301 78.9948 6.72365C80.2983 8.75143 79.8738 11.4351 79.8738 13.7561C79.8738 15.6516 80.3475 15.5462 81.8517 15.8805C83.1543 16.1699 83.2717 17.0183 83.7319 18.0537C84.6039 20.0158 83.5632 21.3163 82.4133 22.3513C80.3275 24.2285 78.9948 24.5425 78.9948 27.7233C78.9948 33.2987 86.9062 31.9866 86.9062 37.6126C86.9062 38.3629 87.2874 40.6656 86.8086 41.2509C86.2743 41.9039 85.1608 42.1201 84.7086 42.9113C83.2465 45.4701 86.7798 45.6661 86.9062 47.9415C86.9658 49.0139 87.4914 49.8277 87.3213 51.0182C87.1808 52.0018 86.4667 52.7144 86.4667 53.6553C86.4667 55.8696 89.9829 54.7429 89.9829 56.732C89.9829 59.0034 89.5481 59.9071 87.9806 61.5668C87.1543 62.4418 83.5316 65.3721 85.3679 66.8411C86.1407 67.4594 85.5877 71.3234 85.5877 72.3352C85.5877 74.8148 83.7046 75.1682 86.2469 77.1456C88.2373 78.6937 90.131 78.492 91.3015 81.1257C92.2806 83.3287 93.0596 84.7084 93.0596 87.2791C93.0596 89.6098 94.3782 90.3899 94.3782 92.5534C94.3782 93.8798 94.253 94.2948 93.5968 95.4104C93.2509 95.9984 92.4306 97.0546 92.6445 97.8033C92.9316 98.8084 93.8786 99.2241 93.9387 100.245C93.9539 100.504 94.426 102.305 94.5979 102.443C96.2004 103.725 94.2857 105.847 93.0596 106.496C91.2478 107.455 88.6637 108.029 87.4434 109.915C86.5761 111.255 86.2457 112.959 84.7086 113.773C82.9675 114.695 83.39 117.485 83.39 119.145C83.39 122.252 80.8728 121.334 79.0924 122.759C76.974 124.453 71.4863 126.663 68.9833 123.882C68.266 123.085 67.9986 121.654 67.5671 120.683C67.0714 119.568 66.1183 118.904 65.7113 117.729C65.0483 115.813 64.8387 112.877 63.7822 111.233C62.3153 108.951 58.6978 108.606 56.3347 110.11C54.3874 111.349 53.1126 112.552 50.6209 112.552C48.4422 112.552 45.9658 112.112 43.6129 112.112C41.7008 112.112 39.5824 112.552 37.899 112.552C36.1327 112.552 32.4415 111.897 30.8666 112.772C28.9789 113.82 27.0472 114.845 24.9574 113.626C22.773 112.352 20.675 112.552 18.1203 112.552C16.6396 112.552 14.9477 109.702 14.482 108.596C14.1634 107.84 14.8376 106.058 14.1646 105.519C13.137 104.697 11.8041 104.097 10.6728 103.224C8.50106 101.549 11.1344 99.5757 12.7239 98.1452C13.5996 97.3571 14.5988 98.5442 15.4831 97.1685C15.9943 96.3733 16.1424 95.721 16.1424 94.7755C16.1424 93.5844 15.3865 94.0031 14.9215 93.2127C14.3441 92.2312 15.6977 91.1586 16.1424 90.3802C16.5564 89.6558 14.2297 88.6832 13.5297 88.1582C12.8408 87.6415 13.4316 85.7882 12.6262 85.7408C11.8974 85.6979 10.2792 85.6569 9.79372 85.0327C9.12297 84.1703 8.93862 83.1276 8.13328 82.3222C6.81292 81.0019 5.72828 80.244 4.73916 78.513C4.33031 77.7975 2.53611 74.7599 2.95664 74.3131C3.37903 73.8643 4.75205 72.709 4.03103 72.091C2.41942 70.7096 1.45298 68.9231 0.759003 66.8411" stroke="white" stroke-linecap="round"/>
</svg>
