<svg width="95" height="130" viewBox="0 0 95 130" fill="none" xmlns="http://www.w3.org/2000/svg">
<path d="M10.505 68.374C10.6781 67.487 10.6732 64.5146 11.5397 63.8214C12.1314 63.348 11.7304 61.2712 12.0685 60.5105C12.9324 58.5669 8.175 57.0014 7.17109 56.1649C5.91584 55.1188 5.53861 55.1629 5.53861 53.4747C5.53861 52.3272 5.91372 50.387 5.44664 49.336C4.42232 47.0313 3.38479 44.836 2.02073 42.7141C0.787676 40.7961 0.309948 37.8714 2.64153 36.4141C3.62986 35.7964 6.49942 31.6651 6.75722 30.505C7.23371 28.3608 6.36634 26.1967 6.36634 24.0901C6.36634 22.6634 8.21823 21.7559 7.99883 20.5492C7.69591 18.8831 6.36634 18.103 6.36634 16.4335C6.36634 14.1067 9.58771 12.7033 10.505 10.6393C11.6524 8.05772 11.3222 4.85387 12.6663 2.56891C13.6912 0.82663 16.9695 0.67295 17.5638 2.75285C18.2394 5.11767 24.0856 3.12316 25.7262 4.31635C27.5267 5.62578 28.6441 5.87985 30.9915 5.87985C31.7816 5.87985 34.2429 6.03045 34.6014 6.70759C35.2004 7.83901 35.5054 8.94653 36.0729 10.0185C37.4413 12.6033 40.4725 12.187 42.5568 13.5134C45.1144 15.141 48.2239 12.8167 49.9145 10.9382C51.6698 8.98791 54.0098 11.3694 54.697 12.9156C55.659 15.0801 58.8551 14.985 61.02 14.985C62.9362 14.985 64.9321 14.4678 66.7911 14.5711C68.2123 14.65 67.921 17.4491 68.5386 18.2039C69.7589 19.6954 70.715 22.8485 73.2061 22.8485C74.8999 22.8485 76.5937 22.8485 78.2875 22.8485C79.5525 22.8485 80.4256 22.1613 81.6904 22.0207C83.9468 21.77 86.7555 19.2232 88.9101 20.986C92.1251 23.6165 87.6413 23.7123 86.5648 25.7455C85.4303 27.8886 85.5639 30.4011 87.7145 31.7696C89.4803 32.8933 92.5592 34.6992 93.4626 36.5061C93.9019 37.3847 93.1051 39.1496 93.6926 39.4952C95.3523 40.4715 93.5329 41.8513 92.451 42.3922C89.9081 43.6637 89.041 45.4405 88.3353 47.9105C87.6624 50.2656 88.5539 51.8075 86.5648 53.7966C85.0239 55.3376 81.1129 56.7882 78.9772 57.1765C78.2336 57.3117 74.7225 56.8732 74.6546 58.0273C74.5685 59.492 74.948 60.3352 76.3101 61.0163C79.4709 62.5967 81.1747 62.9937 84.7944 62.9937C87.4136 62.9937 89.7462 61.1278 91.7152 63.3156C93.7979 65.6297 89.7138 67.9539 88.3123 68.6959C86.3728 69.7226 83.2086 68.9251 81.4835 70.6502C80.4906 71.6431 79.621 73.1621 79.621 74.582C79.621 75.4229 79.5832 77.9853 79.1152 78.6287C77.0759 81.4328 79.2119 83.1352 82.0813 82.2386C86.0828 80.9881 86.0656 91.3272 88.1283 93.39C89.9891 95.2507 85.9939 98.1533 87.1626 99.3221C88.9413 101.101 92.451 97.2189 92.451 101.69C92.451 103.09 92.6492 103.553 91.1174 103.553C89.4278 103.553 89.5539 103.84 89.5539 105.415C89.5539 106.583 89.6122 107.767 89.5539 108.933C89.4685 110.641 87.0786 112.329 86.3349 113.899C85.0288 116.657 88.7261 117.544 88.7261 119.487C88.7261 121.607 87.5694 123.78 86.5648 125.488C85.0341 128.09 81.9547 128.385 79.2072 128.385C75.8656 128.385 72.524 128.385 69.1824 128.385C67.5928 128.385 62.3151 127.527 61.2269 128.615C60.3278 129.514 59.0917 129.213 57.778 129.213C55.7834 129.213 55.9588 128.688 56.0305 126.821C56.0943 125.163 57.9957 122.465 56.5364 120.843C55.1226 119.272 51.6955 119.28 49.6156 119.28C46.3337 119.28 49.0007 114.429 46.0057 114.313C43.3804 114.212 39.1746 114.604 38.2112 111.232C37.4883 108.702 36.169 107.278 33.1758 107.278C32.3515 107.278 29.543 107.789 29.543 106.657C29.543 105.178 30.7246 104.737 31.1984 103.553C31.4195 103 32.7841 101.996 33.2678 101.483C34.2385 100.456 34.5094 99.9829 34.5094 98.5864C34.5094 96.0148 31.1762 96.1031 28.9222 96.1031C26.6139 96.1031 24.9904 95.9143 24.9904 93.413C24.9904 90.63 22.8636 90.424 21.7714 88.2397C20.8514 86.3996 23.7825 83.7667 22.2773 82.2616C21.433 81.4173 20.2512 77.8659 21.6795 76.9732C23.1153 76.0759 19.2891 71.7903 18.7824 70.6502C17.548 67.8729 14.6857 68.9364 12.1605 68.7878C11.1459 68.7282 12.0709 62.277 11.5397 61.1083C10.4829 58.7834 7.19408 58.1606 7.19408 55.5441" stroke="white" stroke-linecap="round"/>
</svg>
