<svg width="123" height="124" viewBox="0 0 123 124" fill="none" xmlns="http://www.w3.org/2000/svg">
<path d="M0.615572 45.16C1.53415 40.1588 4.63067 42.5183 8.32169 41.0419C10.9537 39.9891 13.3591 39.2887 16.3948 39.2887C18.1436 39.2887 19.7629 39.7048 21.5322 39.6556C23.2301 39.6085 24.8808 38.2837 26.3026 37.5354C27.2151 37.0551 29.3954 36.2425 29.8907 35.2521C30.5097 34.014 30.3392 32.3843 30.3392 31.0321C30.3392 29.779 30.7061 28.5575 30.7061 27.3625C30.7061 26.1998 29.1321 25.3086 28.3413 24.6307C26.4694 23.0262 23.367 20.5507 23.367 18.0051C23.367 16.1974 25.2292 16.3219 25.5483 14.886C25.8856 13.3681 24.1009 11.9432 24.1009 10.4825C24.1009 8.90282 23.6069 4.42767 26.3026 4.42767C27.3979 4.42767 27.9495 5.47432 28.8713 5.52854C30.7887 5.64133 32.7709 4.66683 34.3757 3.7753C37.3666 2.11366 39.5272 2.95984 42.8157 2.95984C45.0184 2.95984 49.9918 4.41137 51.9081 2.87829C53.4313 1.65974 56.4477 0.168556 58.4114 1.69587C61.1424 3.81993 64.5431 4.64162 67.9319 3.67337C70.7301 2.87391 72.9063 6.0619 72.9063 8.6273C72.9063 9.91844 72.9063 11.2096 72.9063 12.5007C72.9063 14.7421 73.1644 14.3105 74.8838 15.4568C75.7683 16.0465 73.7547 17.2342 73.8033 17.7197C73.8134 17.8209 75.8564 18.4735 76.0662 18.5555C77.775 19.2242 80.4719 20.0226 82.3656 19.3914C85.227 18.4376 88.9547 18.0051 91.9881 18.0051C92.8863 18.0051 93.1488 18.1314 93.8432 18.739C94.9009 19.6644 96.3637 19.87 97.4109 20.6554C98.2281 21.2683 99.3272 22.2909 99.3272 23.5095C99.3272 24.295 98.9226 26.3819 100.061 26.4451C100.428 26.4655 101.162 26.2249 101.162 26.5063C101.162 27.444 100.974 28.2674 101.896 28.7284C102.63 29.0953 103.303 29.3435 104.098 29.5643C104.547 29.6891 105.881 29.5258 106.218 29.8293C107.824 31.2752 107.362 31.9495 109.786 31.9495C110.255 31.9495 111.012 31.8059 111.437 32.031C112.014 32.3365 111.952 33.226 112.721 33.3969C113.482 33.566 114.41 33.4173 115.188 33.4173C116.37 33.4173 115.897 34.0381 116.737 34.5182C118.096 35.2944 119.877 34.2178 119.877 36.5161C119.877 36.9489 119.677 37.75 120.244 37.8208C120.91 37.9041 120.56 39.1597 120.631 39.6556C120.83 41.0446 123.923 45.16 120.407 45.16C119.155 45.16 118.086 45.4718 117.308 46.4443C116.347 47.646 116.789 49.0403 114.739 48.1772C113.836 47.7966 112.349 47.3461 111.518 48.1772C110.296 49.3991 111.738 50.5805 111.804 51.7652C111.891 53.3278 109.694 53.0485 109.602 54.7009C109.541 55.7998 111.699 55.3769 112.538 56.1687C113.384 56.9684 114.302 57.3946 114.372 58.7374C114.468 60.5493 114.473 61.173 116.207 62.04C117.785 62.829 116.604 64.7727 117.961 65.2611C120.068 66.0198 118.825 66.5306 119.693 68.4414C120.201 69.5591 121.073 67.0239 120.59 69.1957C120.446 69.8466 119.442 71.5622 118.959 71.9479C118.058 72.669 117.324 73.77 116.391 74.5166C115.466 75.2562 113.901 74.4088 113.19 75.6175C112.329 77.0811 111.902 77.1566 111.804 78.9201C111.736 80.1338 110.847 81.7601 109.969 82.5897C109.145 83.3681 107.623 84.5086 107.115 85.5253C106.881 85.994 107.033 87.6191 107.033 87.0951C107.033 85.6747 106.842 84.3955 106.687 82.9974C106.405 80.4638 103.602 79.7693 101.366 80.4083C100.434 80.6746 99.9622 81.8558 98.9399 81.8558C97.2954 81.8558 95.6508 81.8558 94.0063 81.8558C91.6307 81.8558 88.4706 86.0335 87.9719 88.2775C87.6655 89.6566 87.4408 90.9913 86.8303 92.3141C86.1878 93.7061 84.9758 94.7129 84.3635 96.1671C83.8098 97.4823 84.282 96.4182 84.282 95.2497C84.282 94.25 84.3777 93.4027 83.9965 92.4975C83.6298 91.6265 83.011 89.634 81.7133 89.5619C79.1168 89.4176 76.896 89.5619 74.3741 89.5619C72.9092 89.5619 71.1515 90.451 69.6852 90.7443C67.5225 91.1768 65.6248 91.8147 63.8139 93.0684C62.9388 93.6742 62.0195 95.0692 61.8975 96.1671C61.709 97.8638 60.7807 98.4581 59.3084 99.2863C56.9653 100.604 53.429 101.627 51.8062 99.1028C50.1137 96.4701 50.5497 92.437 48.157 90.4793C44.764 87.7032 44.6505 93.8877 44.6505 95.8002C44.6505 98.4599 47.8487 101.415 49.9918 102.487C53.0481 104.015 51.8471 107.183 50.3587 109.459C49.3452 111.009 48.5126 112.703 47.8716 114.433C47.5374 115.336 46.6438 116.117 46.5057 117.084C46.4501 117.473 46.3189 118.61 45.9552 118.837C45.0923 119.376 44.7321 120.629 43.5496 120.753C42.1022 120.906 40.0954 121.476 39.0646 122.507C37.4769 124.094 39.402 121.287 39.7985 120.753C40.9087 119.259 42.3761 117.89 43.3662 116.35C45.0047 113.801 46.5296 110.316 47.4027 107.522C48.0515 105.446 47.9197 96.2768 44.2836 99.6532C41.8007 101.959 42.243 106.323 40.614 109.174C40.3617 109.615 38.0098 111.731 37.6987 110.642C37.3247 109.332 36.9444 108.21 36.9444 106.809C36.9444 104.743 37.0097 101.029 34.4572 100.938C33.8729 100.917 30.539 101.395 30.0537 100.856C29.6761 100.436 29.3159 97.8888 29.2383 97.268C28.9574 95.0213 24.1753 98.6127 23.4485 95.4332C23.1623 94.1812 24.024 92.4446 23.6524 91.4782C22.9461 89.6419 20.4313 90.365 20.4313 87.8902C20.4313 85.0829 25.2017 85.1863 25.2017 82.0392C25.2017 80.6602 25.4169 80.1424 26.4861 79.2871C26.8232 79.0174 26.7814 77.8004 26.588 77.4523C26.2496 76.8431 25.0398 77.1674 24.4678 76.8814C22.9134 76.1042 22.2661 75.4691 22.2661 73.6196C22.2661 72.2359 21.711 71.5809 20.2478 71.5809C19.5071 71.5809 18.7664 71.5809 18.0257 71.5809C16.2982 71.5809 16.2832 70.9262 15.4774 69.5831C14.6443 68.1946 14.56 66.9457 14.56 65.3427C14.56 62.4013 14.3574 58.9251 14.193 55.8018C14.0687 53.4406 10.395 50.4508 8.68864 53.4369C7.46965 55.5702 4.52557 55.6127 3.0008 53.5796C1.7078 51.8556 0.98253 50.7035 0.98253 48.5034C0.98253 47.2187 1.34949 45.9929 1.34949 44.793" stroke="white" stroke-linecap="round"/>
</svg>
