<svg width="107" height="132" viewBox="0 0 107 132" fill="none" xmlns="http://www.w3.org/2000/svg">
<path d="M15.1949 2.58066C16.7214 2.28281 18.1937 2.08048 19.7475 2.1668C20.832 2.22705 21.3239 2.99453 22.5526 2.99453C25.2022 2.99453 28.8227 2.02667 31.3128 1.15512C32.8738 0.608761 32.8758 0.220686 33.6121 1.54599C34.1778 2.56437 34.4625 3.63779 34.9686 4.65001C35.7516 6.21587 38.4139 8.0776 39.8201 9.20256C43.4077 12.0727 43.7519 16.1965 43.7519 20.5839C43.7519 21.6392 43.3906 23.4028 43.9818 24.3317C44.8557 25.7051 46.1697 26.8787 46.9708 28.2405C47.9308 29.8725 51.9051 29.358 53.4778 30.9306C55.236 32.6889 57.1183 35.8232 54.0986 37.2536C51.7425 38.3696 48.1782 38.8222 45.6143 39.392C42.5831 40.0655 43.516 43.1536 44.9935 44.7952C45.817 45.7103 46.6691 46.3769 47.5686 47.1865C48.3788 47.9156 49.5852 47.6801 50.1668 48.727C51.5651 51.2438 50.0955 53.1814 49.0402 55.5558C48.3183 57.1801 49.6185 56.5997 50.7876 57.1193C51.876 57.603 51.7931 58.5966 51.5924 59.9014C51.4257 60.9849 48.1778 66.4403 50.7876 66.7303C52.1202 66.8783 53.9784 67.6972 55.3402 67.0522C56.6702 66.4222 57.121 65.5395 58.858 65.9255C59.786 66.1317 60.0648 67.7879 60.9504 67.9489C62.0767 68.1536 64.3785 66.8474 65.273 67.7419C66.5755 69.0444 67.3397 70.9522 69.5037 70.8689C70.9457 70.8135 72.2415 69.4974 73.5504 69.0065C75.8383 68.1486 77.6092 66.5358 79.7584 65.5806C82.236 64.4795 84.7248 67.1194 84.7248 69.4204C84.7248 71.1397 83.23 75.5873 86.3803 75.4215C87.1392 75.3815 92.141 73.3385 92.5653 74.8237C93.2613 77.2596 91.3467 78.6575 91.3467 80.8938C91.3467 83.787 93.9776 83.9277 95.0715 86.389C95.5531 87.4725 96.3131 88.4125 96.3131 89.7C96.3131 91.0075 95.4854 91.7296 95.4854 93.1259C95.4854 94.2602 95.4854 95.3945 95.4854 96.5288C95.4854 97.7678 96.3131 98.2218 96.3131 99.2189C96.3131 100.493 96.6462 102.268 97.3248 103.335C98.0725 104.51 99.1281 103.989 99.946 104.898C101.104 106.184 102.494 108.512 102.912 110.393C103.065 111.083 103.726 112.307 104.361 112.67C105.443 113.288 104.509 114.326 105.096 115.061C106.935 117.359 103.8 119.391 102.314 120.533C99.7736 122.487 95.9789 117.556 93.8299 119.705C91.9351 121.6 90.7611 123.086 88.2427 124.442C85.798 125.758 83.9948 124.348 82.6555 127.362C82.286 128.193 79.9344 129.852 79.1376 130.029C77.399 130.415 75.2272 130.052 73.4584 130.052C70.8395 130.052 68.3798 130.033 65.8708 130.489C62.0896 131.176 62.1986 129.283 62.3759 125.913C62.4245 124.99 63.1997 124.02 62.6978 123.016C62.1284 121.878 60.8238 121.752 60.0996 120.947C58.9925 119.717 55.9022 117.85 55.754 116.073C55.6011 114.237 54.3021 110.496 52.0062 110.209C50.4045 110.009 46.4399 109.555 44.9935 110.278C43.618 110.966 43.9764 111.527 42.0964 111.428C41.4727 111.395 41.2066 110.646 40.6248 110.646C40.052 110.646 39.0396 111.299 38.5785 111.658C37.8079 112.257 37.0963 113.497 36.0723 113.497C34.3555 113.497 32.6387 113.497 30.9219 113.497C28.8824 113.497 27.6662 111.842 25.3347 111.842C22.8506 111.842 20.5121 111.697 18.092 111.428C15.6717 111.159 13.1924 111.428 10.6424 111.428C9.61279 111.428 7.7453 111.867 7.7453 110.393C7.7453 109.385 7.45016 107.795 7.83727 106.875C8.93694 104.264 7.16911 102.061 9.6307 100.047C10.4301 99.3926 11.7451 99.3181 11.4471 97.9773C11.1291 96.5464 9.81464 96.3718 9.81464 94.8733C9.81464 92.1859 10.2285 89.6351 10.2285 87.0098C10.2285 85.7053 9.68771 85.0935 9.42377 83.9058C8.91071 81.597 7.80948 81.0222 6.59567 79.1463C6.36695 78.7928 4.6128 78.1768 4.11246 77.9967C2.66489 77.4755 1.39768 75.6063 1.1464 73.973C0.951735 72.7076 2.73215 72.3776 3.42268 71.4897C4.29738 70.3651 4.43436 69.7263 4.43436 68.2938C4.43436 67.167 4.02049 66.2326 4.02049 65.0748C4.02049 63.6471 5.12917 62.0908 3.81355 60.7752C2.30218 59.2638 8.24112 59.2499 8.15917 57.1193C8.11853 56.0627 5.94707 54.3451 7.00954 53.1646C7.91429 52.1593 9.45541 51.8955 9.79165 50.3825C10.052 49.2107 10.7931 47.3628 10.4125 46.2208C10.0874 45.2456 8.21016 44.0066 8.15917 43.1398C8.09203 41.9984 8.31997 40.9015 7.83727 39.8288C7.3135 38.6649 6.08983 37.5155 6.08983 36.2879C6.08983 34.3295 6.47109 32.1051 8.98691 31.9653C10.3671 31.8886 9.42585 30.7459 10.2285 29.896C11.1684 28.9008 12.16 27.393 13.5395 26.9989C15.8162 26.3484 14.2413 22.8872 16.0227 21.2047C17.2892 20.0086 21.7113 20.1043 20.3683 17.6869C19.6376 16.3717 19.2018 15.7332 17.8391 14.7898C16.6012 13.9328 14.0254 12.9783 13.2176 11.6858C11.9349 9.63353 10.5187 7.44236 11.4701 5.06388C12.3842 2.77873 15.598 3.69153 17.2643 2.58066" stroke="white" stroke-linecap="round"/>
</svg>
