<svg width="107" height="109" viewBox="0 0 107 109" fill="none" xmlns="http://www.w3.org/2000/svg">
<path d="M86.1481 14.782C80.6992 14.782 77.6169 20.4973 71.5461 18.3959C69.1865 17.5791 68.4395 15.7918 67.2485 13.7076C66.7752 12.8794 66.809 12.2853 66.809 11.2658C66.809 9.63813 66.2597 9.53234 65.5881 8.18912C65.0864 7.18571 65.9299 6.25845 65.9299 5.30778C65.9299 4.18159 64.5578 2.50031 63.5125 2.03574C61.5868 1.17985 60.2728 0.717163 58.1161 0.717163C56.3777 0.717163 56.6199 1.16393 55.3813 1.93807C54.7555 2.32919 54.4436 3.41296 53.8429 4.01361C52.9191 4.93742 51.5395 4.6729 50.3267 4.6729C48.8958 4.6729 47.6056 4.23338 46.1512 4.23338C45.1916 4.23338 44.5047 5.0574 43.5141 5.11243C41.1308 5.24483 38.544 5.55196 36.2619 5.55196C35.3053 5.55196 33.8484 5.25718 32.9654 5.64963C32.2184 5.98162 30.6442 7.10862 29.8887 6.77286C27.8777 5.87905 25.9072 6.87054 23.9551 6.87054C21.6415 6.87054 21.6457 8.55117 21.5377 10.3868C21.4925 11.156 20.6587 11.3843 20.6587 12.3646C20.6587 13.4171 20.2191 14.0123 20.2191 15.0018C20.2191 17.0068 20.5515 18.5663 20.6587 20.4959C20.7156 21.5204 22.391 22.2826 20.9029 23.133C19.9537 23.6754 19.7796 25.0027 19.7796 25.9899C19.7796 27.6599 24.1129 28.7707 20.9029 30.605C19.811 31.2289 21.5104 32.4303 21.9773 32.7049C22.7488 33.1588 22.8563 34.5863 22.8563 35.4398C22.8563 36.2908 22.6471 37.4546 22.8807 38.2723C23.1526 39.224 24.1749 39.2146 24.1749 40.4943C24.1749 41.3052 23.7525 41.98 22.8563 42.0327C21.8377 42.0926 20.8265 40.5418 20.2191 40.8118C18.6853 41.4935 18.8455 44.6698 16.9227 44.6698C16.3032 44.6698 14.6538 44.9645 14.1634 44.5722C13.3779 43.9438 13.0008 43.3512 11.8681 43.3512C9.30261 43.3512 8.74734 44.3184 7.27753 46.2082C6.6022 47.0765 6.65761 47.5412 6.59382 48.6256C6.57996 48.8612 5.02667 50.4048 4.73804 50.7255C3.45491 52.1512 3.41171 54.1999 3.51713 56.0975C3.6355 58.2281 4.46838 59.9233 3.29737 62.0311C2.36255 63.7138 3.51713 66.0815 3.51713 67.6229C3.51713 68.6356 2.15197 69.4027 1.53926 70.138C0.640415 71.2166 1.67725 72.3271 2.36948 73.0193C3.98387 74.6337 4.05959 76.1078 4.93339 78.0739C5.48147 79.3071 4.74494 83.3482 6.81358 83.3482C9.01661 83.3482 11.7355 82.754 13.3821 84.2272C15.0428 85.7132 17.1062 85.1652 18.6808 86.4249C19.4122 87.0099 19.2416 87.7301 19.7796 88.4027C20.292 89.0432 20.8953 89.3407 21.1226 90.1364C21.4303 91.2132 27.1127 90.9686 28.033 91.7969C28.4685 92.1889 28.1306 94.6834 28.1306 95.191C28.1306 97.0938 29.0077 96.3214 30.548 96.5584C32.9413 96.9266 36.0421 96.7991 36.0421 99.6107C36.0421 101.964 36.5841 103.566 39.3386 103.566C40.498 103.566 40.1373 101.808 41.3164 101.808C42.6522 101.808 43.0745 103.81 43.0745 104.787C43.0745 106.246 45.0909 106.643 46.371 106.643C47.9925 106.643 48.0974 105.459 48.7884 104.25C49.4914 103.02 50.6673 104.241 51.4255 104.885C52.3495 105.67 53.8511 105.182 54.9418 105.666C55.928 106.105 57.1944 105.497 58.2138 105.788C59.0417 106.025 59.8715 107.083 60.9242 107.083C64.0416 107.083 65.7778 105.325 69.0066 105.325C69.8764 105.325 71.1316 105.562 71.8879 105.08C73.7662 103.885 74.0755 104.721 75.3797 105.764C77.0262 107.081 80.122 107.083 82.1924 107.083C84.2446 107.083 86.1584 107.522 88.126 107.522C90.2165 107.522 88.9008 104.778 90.5434 103.908C92.1888 103.037 92.9982 101.226 94.7189 100.27C97.117 98.9377 97.1363 97.2685 97.1363 94.7759C97.1363 92.3821 98.9033 89.9828 101.19 89.1597C102.656 88.6318 104.567 86.857 105.683 85.7412C106.39 85.0335 106.146 80.1462 105.487 79.7343C103.425 78.4452 103.227 76.9271 103.705 74.7774C103.932 73.7567 102.166 73.4234 101.532 73.1414C100.364 72.6224 100.653 71.736 100.653 70.6019C100.653 69.9279 101.643 68.8438 100.433 68.8438C99.3343 68.8438 98.6135 67.9647 97.3561 67.9647C94.5199 67.9647 95.3782 64.8819 95.3782 62.7881C95.3782 61.8023 95.1801 60.7883 94.9143 59.8579C94.7328 59.2229 93.1806 59.1446 93.1806 58.0754C93.1806 56.8319 94.0596 56.2422 94.0596 54.9987C94.0596 53.387 93.1606 53.4444 92.0818 52.5813C90.3779 51.2182 94.2085 48.4767 94.9387 47.7465C96.5273 46.1579 95.8239 42.8295 95.4026 40.9339C94.9434 38.8672 90.7464 39.9968 90.0062 38.5165C89.6714 37.8467 89.5072 35.8414 89.0051 35.4398C88.3608 34.9244 88.1056 34.2696 87.8818 33.4863C87.5291 32.2517 88.7697 30.6574 90.1039 29.8236C92.1595 28.5389 90.1039 26.7201 90.1039 25.1109C90.1039 24.1938 90.4027 22.8559 89.5667 22.254C89.01 21.8531 87.5593 20.8432 87.4667 20.0563C87.354 19.0981 86.1972 18.2531 86.1481 17.4192C86.0973 16.5551 86.9216 15.6083 86.1481 15.2215" stroke="white" stroke-linecap="round"/>
</svg>
