<svg width="111" height="112" viewBox="0 0 111 112" fill="none" xmlns="http://www.w3.org/2000/svg">
<path d="M61.6078 7.55319L63.4871 1L71.0043 4.74468L74.2931 3.80851L78.9914 7.55319L80.8707 13.1702L86.0388 17.8511L89.7974 20.1915L94.0259 17.8511L104.362 25.8085L102.013 33.766L110 43.5957V51.0851H99.194L96.375 57.1702L91.6767 63.2553L83.2198 67V70.2766L78.9914 68.4043L70.5345 67V70.2766L66.306 80.5745L64.8966 83.383L70.5345 86.6596L64.8966 88.5319H58.319H52.681L47.0431 91.3404L43.7543 88.5319L34.3578 96.0213L33.4181 103.043V105.851V111H29.1897L26.8405 108.191H18.8534L16.9741 105.851V103.043H12.7457L8.51724 100.702L7.10776 96.9575V93.6809L5.22845 88.5319V84.7872L3.81897 80.5745V64.6596L1 59.9787L36.2371 23L43.7543 20.1915L47.0431 13.1702H58.319L61.6078 7.55319Z" stroke="white"/>
</svg>
