<svg width="119" height="98" viewBox="0 0 119 98" fill="none" xmlns="http://www.w3.org/2000/svg">
<path d="M39.5195 96.268C36.8615 95.166 34.3476 92.8595 35.7684 89.6628C36.6507 87.6776 37.3177 85.9233 37.3177 83.608C37.3177 80.5319 34.0151 79.6748 34.0151 76.8193C34.0151 74.4386 38.4581 75.945 39.5195 74.0875C40.0764 73.1128 40.6364 72.0934 41.1708 71.1314C41.6644 70.2429 42.6983 69.1265 42.8221 68.0123C42.9642 66.7338 44.1903 66.2817 42.9037 64.9951C42.1084 64.1999 40.9772 63.7719 40.0495 63.2418C37.9254 62.028 38.5472 58.9623 36.8692 57.4521C36.1588 56.8127 34.402 57.7375 33.6482 57.7375C32.4861 57.7375 31.3241 57.7375 30.1621 57.7375C28.842 57.7375 25.9421 54.4479 25.9421 53.1505C25.9421 52.1636 25.5751 51.3139 25.5751 50.2148C25.5751 49.5145 25.0384 49.8239 24.7596 49.2974C24.4218 48.6593 24.4742 48.0914 24.4742 47.3811C24.4742 46.1492 25.4337 44.5655 24.4742 43.4261C23.8284 42.6592 22.9188 41.7434 22.619 40.6943C21.973 38.4332 19.8019 37.4993 17.7874 36.9024C16.4773 36.5142 14.8149 36.8958 13.4655 36.8209C12.6779 36.7771 9.90786 36.1352 9.42895 35.5365C9.06479 35.0813 8.58454 35.2952 8.24653 34.6191C7.95162 34.0293 8.10973 33.5797 7.94074 32.9882C7.73816 32.2792 6.9439 31.2518 6.86025 30.5826C6.7626 29.8014 5.47787 29.1072 5.39242 28.3808C5.33209 27.8681 4.4815 26.1109 4.10806 25.8121C2.63716 24.6354 2.38392 21.2448 1.64129 19.5739C1.19023 18.559 1.35588 17.3814 1.35588 16.2712C1.35588 15.1576 0.676204 14.2576 0.621965 13.3356C0.528368 11.7444 2.15554 8.07218 3.37415 7.0973C4.30131 6.35557 5.06138 5.26251 6.3302 5.26251C7.77526 5.26251 9.20024 4.52859 10.6114 4.52859C11.9025 4.52859 13.1937 4.52859 14.4848 4.52859C15.989 4.52859 17.1127 3.27459 18.4194 2.6938C20.3758 1.82429 21.0413 3.48742 22.8433 3.81506C24.692 4.15119 26.532 4.2346 28.4292 4.16163C30.0927 4.09765 30.1702 2.1495 31.4464 1.51138C33.24 0.6146 35.0927 0.129934 36.7673 1.24636C37.2558 1.57202 37.6063 2.41155 38.0517 2.85689C38.6442 3.44942 39.1808 4.07092 39.7234 4.71207C41.4244 6.72243 44.0726 5.99642 46.4917 5.99642C49.6908 5.99642 52.7999 5.96049 55.8491 5.28289C57.0373 5.01884 58.4382 5.35412 58.9683 6.54686C59.2332 7.14287 60.1475 9.16295 59.5187 9.666C58.9242 10.1416 61.3152 12.4034 61.7612 12.6017C63.1802 13.2323 65.6307 14.2439 63.6572 15.8227C62.5081 16.7419 61.6726 17.3083 63.2902 18.473C64.7753 19.5422 65.2065 20.3988 65.2065 22.1426C65.2065 23.3511 63.3718 23.7987 63.3718 25.2617C63.3718 26.7953 65.0482 26.913 66.3074 26.913C67.1451 26.913 68.0255 26.9964 68.8557 26.8926C69.5072 26.8112 70.0676 26.1791 70.7109 26.1791C72.0786 26.1791 73.2465 27.7007 74.564 27.9935C75.7041 28.2469 77.7523 28.3117 78.6005 27.4635C79.5059 26.558 78.9849 25.0404 79.5994 24.4259C80.1619 23.8634 82.1371 24.7378 82.6778 24.8947C84.3396 25.3772 86.0118 25.3869 87.591 26.0976C88.5976 26.5505 90.8846 25.8121 92.0148 25.8121C93.682 25.8121 94.8413 26.6435 95.8475 25.0782C96.7388 23.6918 96.7649 22.7344 96.7649 21.1232C96.7649 19.9711 96.3309 18.2415 97.4988 17.6575C98.3766 17.2186 99.7023 16.7978 100.149 15.9043C101.031 14.1395 103.215 15.2559 104.471 14.0695C105.856 12.7613 106.157 11.5008 108.344 11.5008C111.899 11.5008 109.021 16.2363 111.892 17.0867C115.002 18.0084 116.258 21.4474 113.115 23.2434C112.62 23.5265 111.194 24.7856 111.097 25.3229C110.917 26.3137 113.124 28.6276 111.81 29.4002C109.202 30.9347 109.241 32.6492 109.241 35.5161C109.241 36.9976 109.839 37.2187 111.26 37.5344C113.1 37.9433 113.939 37.4229 115.561 38.6557C116.83 39.6202 116.581 41.624 116.581 43.0592C116.581 44.5347 115.954 44.9952 115.296 46.1783C115.171 46.4036 114.735 47.2373 114.746 47.4627C114.797 48.4822 116.739 50.1587 116.519 50.9284C116.195 52.0656 112.133 51.6608 115.113 53.1505C116.537 53.8625 118.723 55.3838 118.395 57.3501C118.287 57.9977 117.357 58.0682 117.315 58.8383C117.275 59.5488 117.237 59.7331 116.866 60.3062C115.091 63.0495 109.044 60.9755 109.996 65.2601C110.565 67.8204 113.144 69.4984 113.278 72.0488C113.361 73.625 111.699 74.0947 110.424 74.536C108.831 75.0873 108.508 76.6249 108.508 78.2871C108.508 79.3737 109.564 80.7884 108.324 81.7528C107.303 82.5472 105.037 81.6771 103.819 82.0382C101.413 82.7512 98.4062 84.24 95.8271 83.7711C91.8309 83.0445 89.4023 83.6583 86.1231 85.7078C85.5931 86.0391 85.8143 86.5725 85.2057 86.9106C84.7064 87.188 83.7521 87.4313 83.1875 87.4611C81.9088 87.5284 79.7678 86.9535 78.784 87.828C78.0977 88.4381 75.9016 89.4379 75.8483 90.3967C75.776 91.6987 76.1265 92.9411 75.2979 94.0459C74.2087 95.4981 70.3439 96.428 70.3439 93.6993C70.3439 92.6368 71.1385 91.048 70.6294 90.0298C70.0319 88.8347 69.2431 87.7824 69.2431 86.3602C69.2431 84.9583 69.2979 83.8198 69.5896 82.5071C69.9498 80.8864 70.7109 79.4845 70.7109 77.8386C70.7109 76.52 67.292 69.8435 65.2269 72.2527C64.5214 73.0758 63.4829 74.839 64.3095 75.9019C64.9385 76.7105 66.9105 77.1753 67.0413 78.2871C67.2068 79.6932 67.1993 80.5348 67.0413 81.9567C66.9183 83.0643 65.9405 84.017 65.9405 85.0758C65.9405 87.5703 67.0413 89.2137 67.0413 91.7015C67.0413 93.3849 67.2304 93.9466 65.7366 94.8002C64.4301 95.5468 62.3199 96.1882 60.803 96.268C59.0533 96.3601 52.4048 97.8111 51.4456 96.0846C50.9017 95.1056 50.4923 93.4704 51.0787 92.415C51.6197 91.4411 52.8833 90.9724 53.3823 90.0298C54.8823 87.1965 50.5444 86.212 50.1409 87.6242C49.6529 89.3321 47.9595 86.2103 47.9595 87.298C47.9595 88.483 47.9289 90.2565 48.408 91.3345C49.2153 93.1509 49.4183 96.1274 47.0421 96.6554C44.5957 97.199 42.6889 97.8527 40.2534 96.635" stroke="white" stroke-linecap="round"/>
</svg>
