<svg width="63" height="109" viewBox="0 0 63 109" fill="none" xmlns="http://www.w3.org/2000/svg">
<path d="M59.3226 5.30133C59.6815 6.89671 61.3976 8.61696 60.6411 9.94077C59.7544 11.4926 57.5644 10.8012 57.5644 13.457C57.5644 15.1896 58.883 15.5684 58.883 17.2662C58.883 18.8185 58.3895 20.3127 57.4668 21.4661C55.2067 24.2912 58.6542 27.0261 59.2981 29.2799C59.7058 30.7068 59.3419 32.3373 58.3458 33.3334C57.0798 34.5993 58.883 36.1104 58.883 37.3868C58.883 38.6319 57.452 39.4284 57.1005 40.6588C56.51 42.7256 57.1249 44.2858 57.1249 46.3971C57.1249 48.0567 58.004 49.371 58.004 51.0121C58.004 52.9783 57.6864 53.8964 56.7831 55.6027C55.7815 57.4947 57.5644 57.2838 57.5644 59.1433C57.5644 61.0147 56.5571 61.5885 56.2215 63.0991C55.3817 66.8781 55.3668 70.3333 55.3668 74.307C55.3668 76.193 54.4878 77.0576 54.4878 78.922C54.4878 80.4008 55.3668 81.976 55.3668 83.3173C55.3668 85.1884 55.8063 86.843 55.8063 88.7137C55.8063 90.2924 57.0305 91.9465 57.1249 93.6462C57.328 97.3018 60.7243 99.6245 61.4958 103.096C62.3608 106.989 59.4685 108.151 56.2459 108.151C52.5295 108.151 50.7694 102.955 50.1169 100.019C49.6889 98.0934 48.3187 98.3785 46.5763 98.481C45.9119 98.5201 45.7542 99.7507 45.4775 99.7507C45.2383 99.7507 45.0065 99.0917 44.9158 98.9205C44.5795 98.2852 43.9085 98.481 43.2554 98.481C42.1906 98.481 41.0111 98.6739 40.0811 98.0415C39.0896 97.3673 38.9771 95.8438 37.5172 95.8438C36.329 95.8438 32.5114 95.1932 32.5114 93.4264C32.5114 89.2597 33.183 84.8557 27.872 84.8557C26.1592 84.8557 23.5838 84.7768 22.7442 83.0975C22.3748 82.3589 22.5109 81.0569 21.45 80.9243C20.0783 80.7529 18.5163 80.8228 17.128 80.8999C16.0927 80.9574 16.0583 81.6419 15.4676 80.4604C14.9979 79.5211 14.6907 79.0524 14.4664 78.043C14.2835 77.22 12.9289 76.9034 12.2932 76.6023C11.1491 76.0604 11.285 75.481 10.7549 74.5268C9.89725 72.9831 7.31207 73.819 6.2375 71.6699C5.42026 70.0354 5.80224 68.9947 7.11656 67.8118C7.67797 67.3065 9.24445 63.8413 8.06886 63.3188C5.47927 62.1679 3.48425 62.8339 4.40614 59.6073C4.57623 59.012 5.26078 59.0065 5.26078 58.2643C5.26078 57.1655 5.26078 56.0667 5.26078 54.9678C5.26078 52.9385 2.42743 52.7627 2.18409 50.5726C1.97051 48.6503 1.18371 47.8106 1.72014 45.9331C2.15175 44.4225 0.865509 42.9764 0.865509 41.5623C0.865509 40.9306 1.33262 40.4635 1.96433 40.4635C2.96336 40.4635 3.24107 39.6257 3.9422 39.5844C5.45761 39.4953 7.11487 38.6384 7.80026 37.1914C8.5092 35.6948 7.79458 33.0366 9.41186 32.1125C10.5931 31.4374 12.7576 32.0387 13.8071 30.9892C14.3837 30.4127 15.0517 30.6237 15.5652 30.1102C16.1417 29.5337 15.8094 27.7088 15.8094 26.9358C15.8094 25.5152 15.1686 22.8824 17.128 22.8824C18.9943 22.8824 20.8914 23.3219 22.5977 23.3219C23.4116 23.3219 24.2255 23.3219 25.0395 23.3219C26.5591 23.3219 26.0233 23.0279 26.5778 21.808C27.0602 20.7468 27.6766 18.3342 27.6766 17.1685C27.6766 15.197 26.6124 14.6783 25.3813 13.3105C23.149 10.8302 29.8133 11.8388 30.3382 9.47683C30.9483 6.73156 31.8495 3.54322 35.1486 3.54322C38.1874 3.54322 43.7011 5.9156 46.3321 3.76298C49.4604 1.20348 52.399 0.906059 56.5877 0.906059C57.9446 0.906059 60.5671 0.838006 60.6411 2.76184C60.6805 3.78402 61.0858 7.05689 60.2016 7.49896" stroke="white" stroke-linecap="round"/>
</svg>
