<svg width="170" height="91" viewBox="0 0 170 91" fill="none" xmlns="http://www.w3.org/2000/svg">
<path d="M169.043 22.0995C168.368 25.1721 168.291 27.8904 164.831 27.8904C163.489 27.8904 158.624 26.5522 158.514 28.4169C158.285 32.3075 161.143 30.7822 163.135 33.2719C164.257 34.6747 165.649 37.0745 163.778 38.0099C161.878 38.9601 158.453 38.1878 157.052 39.5893C155.773 40.8683 156.408 44.0297 156.408 45.7896C156.408 47.2812 156.408 48.7728 156.408 50.2644C156.408 51.2616 154.896 52.206 154.419 53.1599C153.994 54.0107 153.528 55.5823 153.805 56.5525C153.866 56.7652 155.041 58.9097 155.092 58.9508C157.248 60.6752 152.351 63.1534 151.641 63.9813C150.193 65.6707 150.346 64.8032 148.921 63.8058C148.103 63.2329 146.406 65.9339 146.406 66.6135C146.406 69.1602 143.838 71.4544 141.434 72.1412C140.395 72.4381 139.644 72.6384 138.392 72.6384C136.597 72.6384 136.695 73.6913 135.35 73.6913C129.685 73.6913 126.732 74.644 123.886 79.4822C122.897 81.1632 119.175 81.6112 117.451 82.5239C115.468 83.5736 113.953 85.1828 111.953 86.326C109.884 87.5084 107.406 88.3313 105.109 88.9875C103.691 89.3926 102.31 89.6069 100.722 89.4847C98.7908 89.3362 100.45 86.8525 98.2359 86.8525C96.3933 86.8525 94.5508 86.8525 92.7082 86.8525C90.6285 86.8525 90.7253 86.4243 89.2863 85.2731C88.6795 84.7877 89.0231 82.8491 89.0231 82.1144C89.0231 80.3646 88.1888 80.8954 87.5607 79.4822C86.8968 77.9884 90.3125 74.3479 87.9702 74.2177C85.7679 74.0954 83.7586 72.8504 83.7586 70.5326C83.7586 69.9842 84.0697 67.5438 83.4369 67.4032C81.9222 67.0666 80.059 67.3739 78.4941 67.3739C75.8972 67.3739 73.524 67.9004 70.8314 67.9004C67.8411 67.9004 65.2544 66.5492 63.7536 63.9228C62.8495 62.3405 58.3251 63.1624 56.6174 63.1624C53.8583 63.1624 52.7219 64.7657 50.3292 65.2974C49.1022 65.5701 48.227 65.7946 46.9073 65.7946C45.1583 65.7946 44.3437 64.2153 42.6958 64.2153C37.7611 64.2153 33.4915 65.7946 28.4817 65.7946C26.7698 65.7946 26.4296 63.6888 25.0598 63.6888C23.2695 63.6888 22.5453 64.1078 20.9945 64.6247C19.3576 65.1703 13.1359 66.0317 11.9279 64.4785C10.8516 63.0946 11.1749 63.1624 9.00318 63.1624C7.9374 63.1624 7.03278 63.4381 6.10773 63.952C5.1859 64.4642 3.76228 65.1946 2.68582 64.6247C2.13264 64.3318 0.366103 61.2305 0.872507 61.0858C6.32287 59.5286 5.55987 51.3221 11.3722 50.0304C14.2886 49.3823 16.8934 47.8661 18.7132 45.5264C20.3728 43.3926 22.2526 45.7021 24.5334 46.5793C28.0914 47.9478 28.775 44.9162 31.3479 44.181C32.3641 43.8907 33.1381 41.6728 34.2726 41.1686C36.0391 40.3835 35.4072 42.9736 36.4954 40.5252C37.3906 38.511 38.7763 36.4342 39.0106 34.2078C39.3305 31.1687 42.8879 31.7111 45.328 31.5756C48.0497 31.4244 51.3822 29.1871 54.1606 30.1132C57.3614 31.1802 60.1528 33.1666 63.4904 31.3123C66.0463 29.8924 68.27 31.0491 71.0946 31.0491C74.2266 31.0491 75.1781 29.2974 76.3884 26.5743C77.311 24.4983 77.6997 20.609 80.3367 20.023C83.5341 19.3125 85.8898 19.8288 89.0231 19.9937C91.4976 20.124 95.4468 19.1196 97.3292 20.9296C101.09 24.5455 99.0619 17.5544 100.605 17.3615C103.713 16.973 100.481 11.5706 103.764 11.5706C106.475 11.5706 108.25 11.2874 110.344 12.916C112.498 14.5911 112.233 16.341 115.111 16.8643C116.856 17.1816 117.914 17.5653 119.44 16.1916C119.824 15.8463 121.583 14.3385 121.955 14.2321C123.821 13.6989 125.371 10.3043 125.845 8.64589C126.313 7.00952 125.445 2.17782 126.927 1.15865C127.922 0.475061 128.58 0.515214 129.823 0.515214C131.696 0.515214 131.35 0.779218 132.309 1.97757C134.235 4.38488 133.118 5.77968 136.93 5.77968C139.832 5.77968 141.491 6.98403 141.668 9.99125C141.723 10.9338 144.429 10.5177 145.09 10.5177C147.064 10.5177 147.235 12.0728 148.278 13.4132C149.298 14.7249 148.865 15.1527 150.617 15.2557C151.308 15.2963 153.026 15.9835 153.484 16.5718C156.079 19.9085 156.123 17.5467 158.777 16.3671C160.266 15.7053 164.402 16.9569 165.358 18.1512C165.97 18.9165 167.384 19.0812 167.464 20.5202C167.56 22.2627 167.942 22.0037 168.517 23.1524" stroke="white" stroke-linecap="round"/>
</svg>
