<svg width="99" height="79" viewBox="0 0 99 79" fill="none" xmlns="http://www.w3.org/2000/svg">
<path d="M55.2433 25.9765C52.9715 26.2935 50.117 25.4409 48.5527 23.8766C47.731 23.0549 46.9369 21.8766 45.8179 21.5568C44.5813 21.2035 43.1821 20.6154 41.8621 20.2382C40.5098 19.8519 41.8903 16.5636 40.5435 15.9651C38.8246 15.2011 36.9518 15.5349 35.025 15.4279C33.1309 15.3226 33.2669 12.5859 33.2669 11.2524C33.2669 9.71271 33.7065 8.63694 33.7065 7.07687C33.7065 5.63622 31.5418 4.66089 30.3856 4.00018C28.8988 3.1506 26.8095 3.56065 25.1357 3.56065C23.1615 3.56065 23.3423 0.835075 21.8392 0.923492C20.2119 1.01922 19.6416 3.89705 19.6416 5.099C19.6416 7.54789 15.9136 5.90601 15.6859 7.95592C15.3054 11.3803 13.9848 14.0945 12.3894 16.9662C11.4684 18.624 11.478 19.8311 10.0697 21.2394C8.94404 22.365 7.00157 22.8424 5.82094 24.0231C4.6144 25.2296 4.88155 26.3949 3.18378 26.88C1.9576 27.2303 1.62101 29.8632 1.62101 30.909C1.62101 32.8506 1.18149 34.6646 1.18149 36.6228C1.18149 39.3147 2.96566 38.206 4.25817 39.8216C6.40478 42.5049 6.89533 45.4456 6.89533 48.8319C6.89533 54.1713 13.3069 46.7607 13.9278 52.3481C14.0331 53.296 14.8041 55.4637 15.344 56.2062C17.0189 58.5092 19.2229 58.062 22.0346 58.062C26.3704 58.062 26.2345 62.0649 26.2345 65.3141C26.2345 65.9684 27.9854 68.9654 28.4077 67.4874C28.736 66.3385 31.6127 66.8525 32.7297 66.8525C36.2341 66.8525 35.9673 60.2101 40.2017 61.6758C41.3149 62.0612 42.7679 64.2421 43.6202 65.0944C44.3142 65.7884 44.0407 66.3554 45.1342 66.413C46.4796 66.4838 47.9494 67.0247 49.2852 67.2676C52.9472 67.9334 57.4284 66.2563 60.5176 68.0734C63.8606 70.0399 65.6985 73.0059 69.943 73.0059C70.5105 73.0059 71.5724 72.7865 71.9697 73.25C72.4054 73.7584 73.2124 75.0412 73.7034 75.3012C75.1996 76.0933 76.5363 76.9616 78.294 76.9616C81.2459 76.9616 86.3276 79.01 88.1101 75.643C88.794 74.3512 91.0535 74.3244 92.3833 74.3244C94.5904 74.3244 96.098 73.9815 97.5355 72.2245C99.5586 69.7518 95.9139 66.2989 94.1414 65.3141C91.5961 63.9001 90.8449 60.6021 90.8449 57.8422C90.8449 54.7898 88.0856 50.59 84.7892 50.59C83.3171 50.59 79.9963 51.2179 79.0754 49.711C78.2468 48.3551 78.5382 46.6307 78.5382 45.0959C78.5382 40.2509 71.6179 43.7366 69.8453 42.1413C67.9673 40.4511 68.9947 33.3857 65.7919 33.0089C64.0893 32.8086 63.1657 32.1306 61.8362 31.3485C60.3878 30.4965 60.5502 28.6398 59.4188 27.7346C57.5305 26.224 53.6587 26.0459 51.2875 25.0975C50.5932 24.8197 48.0499 23.5828 47.7713 23.0952C46.9757 21.7028 44.5776 23.027 43.4737 21.9231C43.1326 21.582 43.4016 20.2823 43.376 19.8231C43.3075 18.5891 42.1248 18.9184 41.6179 18.2848C41.1452 17.6938 39.2744 17.113 38.5413 16.7465" stroke="white" stroke-linecap="round"/>
</svg>
