<svg width="103" height="112" viewBox="0 0 103 112" fill="none" xmlns="http://www.w3.org/2000/svg">
<path d="M7.47901 110.455C8.99717 110.455 13.3593 111.196 14.1696 109.576C15.0511 107.813 13.9321 105.602 14.8533 103.862C15.783 102.106 17.2322 102.026 19.2486 102.104C19.9054 102.129 24.3235 102.831 24.6206 103.203C25.709 104.563 27.8818 102.752 28.5763 101.884C29.782 100.377 31.1501 99.9061 32.9716 99.9061C34.8762 99.9061 36.7808 99.9061 38.6854 99.9061C39.5195 99.9061 40.9641 99.5702 41.4202 100.346C41.7118 100.841 42.1974 100.942 42.5435 101.322C42.8819 101.695 42.7973 102.836 43.3493 102.958C48.1792 104.032 51.1191 102.705 53.5316 98.148C54.2764 96.7411 55.8297 95.7522 56.9502 94.6318C58.1367 93.4453 59.6079 92.4855 61.0036 91.5551C61.8665 90.9798 62.2454 89.8478 63.1036 89.3574C64.4217 88.6042 66.0325 87.0554 66.3512 85.6215C67.1493 82.0301 69.6898 84.1167 72.0894 83.1064C72.9265 82.7539 73.9637 83.0483 74.7266 82.6669C75.4669 82.2967 75.9606 81.6016 76.5824 81.1041C77.4001 80.4499 80.2004 83.464 81.9788 82.0808C86.5477 78.5272 82.8649 74.1145 82.6381 69.5787C82.5375 67.5662 83.3105 66.1639 83.5171 64.3044C83.7381 62.3157 83.9567 60.4377 83.9567 58.3708C83.9567 57.4529 83.0776 56.9912 83.0776 56.1732C83.0776 55.2307 83.8786 55.0621 84.3962 54.4151C85.2554 53.341 87.1917 52.1429 88.3519 51.4605C90.7441 50.0533 89.515 47.8823 90.6472 45.8443C91.0911 45.0453 91.8349 44.4906 92.21 43.6467C92.7287 42.4795 91.8681 41.4391 91.8681 40.3502C91.8681 39.2562 93.0121 36.8418 93.846 36.1747C95.5362 34.8226 92.5894 31.4429 95.3843 30.119C96.9485 29.3781 99.0416 30.488 100.659 29.6795C103.4 28.3086 102.21 26.3321 101.562 24.0633C101.054 22.2863 97.723 22.1098 96.0681 22.1098C94.9275 22.1098 94.0774 21.3742 92.9425 21.8901C91.6371 22.4835 90.027 23.6921 88.5961 23.2331C87.2429 22.799 83.5171 22.1839 83.5171 20.3517C83.5171 19.3262 83.5171 18.3006 83.5171 17.2751C83.5171 14.9845 83.7426 12.7525 81.5637 11.3659C79.875 10.2913 76.0179 11.1217 74.0429 11.1217C71.2042 11.1217 68.6437 9.98233 65.9605 9.14381C64.0825 8.55693 62.3804 7.60547 60.4176 7.60547C59.2536 7.60547 58.0897 7.60547 56.9258 7.60547C55.6064 7.60547 55.4539 6.58148 54.4107 5.84736C52.2641 4.33682 50.8432 3.01427 48.355 2.42882C46.2099 1.92409 43.531 1.4521 41.3226 1.4521C38.9893 1.4521 36.3409 1.40541 34.046 0.988151C31.8638 0.591392 29.4438 -0.0990989 27.7949 1.54977C25.3757 3.96895 27.8885 8.98267 25.7194 11.5856C24.9009 12.5678 24.6206 15.7463 24.6206 17.0553C24.6206 19.0285 24.17 21.6456 24.9624 23.4284C25.8513 25.4285 25.8354 27.6522 27.5996 29.2399C29.0844 30.5763 30.629 33.0012 32.3367 33.9771C35.3376 35.6919 38.4647 41.6109 39.4668 44.8676C40.5411 48.3591 41.4723 54.617 39.5645 57.9557C39.0754 58.8115 38.5841 59.3801 38.0017 60.1289C37.3155 61.0111 36.8874 62.2181 36.268 62.9614C35.6665 63.6833 36.2691 64.9599 36.0238 65.8183C35.9726 65.9978 34.0149 67.1036 33.6553 67.2834C31.0425 68.5898 30.3344 68.8441 30.3344 71.7764C30.3344 72.7131 30.7829 77.2724 29.6751 77.0263C28.5097 76.7673 27.3997 75.2897 26.3787 74.6333C24.5257 73.4421 23.472 73.5345 21.1532 73.5345C20.0316 73.5345 18.9213 74.5741 17.9788 74.3647C16.5548 74.0482 14.1925 70.6726 12.7533 71.4345C11.5109 72.0923 10.5235 75.777 9.77432 77.0507C8.50502 79.2085 6.32723 78.0905 4.40232 79.053C0.737998 80.8851 3.69058 87.6645 3.52327 90.676C3.4881 91.3091 2.74055 92.4411 2.20469 92.776C1.49766 93.2179 1.46618 94.3948 1.22797 95.169C0.586502 97.2537 0.886112 99.6768 0.886112 101.86C0.886112 103.759 2.87216 105.343 3.52327 107.134C3.8016 107.899 4.60707 109.136 5.50114 109.136C6.42021 109.136 6.95001 110.571 7.91854 110.894" stroke="white" stroke-linecap="round"/>
</svg>
