<svg width="174" height="106" viewBox="0 0 174 106" fill="none" xmlns="http://www.w3.org/2000/svg">
<path d="M46.4329 1.05591C46.4329 1.94758 46.6671 3.6719 45.699 4.27698C45.0448 4.68587 45.4966 5.34217 45.3116 5.98945C45.1966 6.39209 44.406 9.25756 45.1689 9.47555C46.6642 9.90277 47.276 11.3038 48.6346 11.9831C50.2095 12.7706 50.9813 12.6156 50.184 14.9188C49.562 16.7158 48.5879 17.569 46.6164 17.569C44.5152 17.569 43.1937 18.2866 41.8459 19.9338C39.1431 23.2373 36.3962 23.251 32.4885 24.2558C31.4933 24.5117 29.0016 25.6179 28.452 26.5799C27.1593 28.842 27.0487 24.2181 25.3532 26.376C24.226 27.8106 22.4563 28.4844 21.1128 29.6786C20.4866 30.2352 18.5246 31.7911 17.8102 31.8804C16.5536 32.0374 14.5956 33.9514 13.6106 34.7956C12.5497 35.705 11.8433 36.6222 11.5515 37.9352C10.6715 41.895 5.9888 40.1705 3.49883 42.5221C3.16705 42.8355 2.42899 43.0954 2.39795 43.623C2.35303 44.3867 2.59657 45.3205 2.21447 46.0082C1.91468 46.5479 0.153144 49.2124 0.787414 49.4943C3.85572 50.858 7.90078 50.2283 11.2049 50.2283C13.0329 50.2283 14.8609 50.2283 16.6889 50.2283C18.4066 50.2283 19.2192 51.9397 20.0119 53.327C21.637 56.1709 25.2071 55.5857 27.718 56.915C30.3891 58.3291 31.8554 60.5031 35.2407 60.5031C37.0613 60.5031 37.6649 58.6233 39.0937 60.1361C39.9669 61.0606 40.7843 61.9382 41.6624 62.8679C42.4098 63.6592 44.1943 64.9155 44.5981 65.824C45.0724 66.891 46.0659 68.3627 46.0659 69.4935C46.0659 71.8656 48.7515 75.2958 47.4522 77.7501C46.8399 78.9067 43.6072 80.1793 44.8224 80.6654C45.9592 81.1201 47.1133 78.8084 48.4308 80.5023C48.9027 81.1091 49.0884 82.137 48.9812 82.8875C48.8982 83.4684 47.7939 84.4255 48.1454 85.0892C48.516 85.7894 51.4961 86.1632 52.3042 86.6386C53.6752 87.4451 54.139 88.1144 54.139 89.6762C54.139 90.3762 54.139 91.0761 54.139 91.776C54.139 93.1994 54.2815 92.6117 55.036 93.3662C56.0288 94.359 56.1797 96.1408 57.1562 97.1173C57.7081 97.6692 57.8923 98.0915 58.1755 98.8706C58.5482 99.8953 58.9733 99.8474 59.5618 100.583C59.9837 101.11 60.556 103.637 60.3569 104.334C59.9521 105.751 57.7048 104.171 56.8912 104.171C55.506 104.171 53.0073 104.656 51.7334 104.09C50.6973 103.629 49.8963 101.396 49.0016 100.501C47.9588 99.4587 46.2218 99.4006 44.7816 99.4006C44.2241 99.4006 43.2652 99.5848 42.7633 99.3191C42.1642 99.0019 42.0621 97.9107 41.4586 97.5658C40.5205 97.0298 39.8843 95.283 39.8276 94.2632C39.7237 92.3925 41.8902 93.3338 43.1303 92.7138C44.5938 91.9821 44.0913 89.7327 43.8846 88.5957C43.5777 86.908 43.2568 85.08 43.5176 83.2545C43.8036 81.2529 45.4752 81.0527 47.0853 81.0527C48.6249 81.0527 50.4301 82.9719 51.1218 84.3553C51.4027 84.9171 51.7287 85.243 52.0188 85.8232C52.3014 86.3883 52.0693 87.6902 52.4877 88.0249C53.2117 88.6041 53.0537 90.973 53.9555 91.6945C54.499 92.1292 54.2105 93.9856 54.7914 94.7117C55.15 95.16 54.857 95.6449 55.4234 96.098C55.9001 96.4794 56.3408 96.9547 56.3408 97.5658C56.3408 99.925 57.5887 104.119 60.3773 104.518C61.76 104.715 62.9641 104.905 64.4138 104.905C66.2838 104.905 66.6923 103.523 67.798 102.418C69.1314 101.084 70.2086 101.137 71.9568 100.501C72.8247 100.186 76.2139 99.8417 76.503 98.8298C76.7117 98.0994 76.5496 95.5479 76.9719 95.0787C78.1985 93.7158 80.3721 93.4009 81.7424 91.9799C83.1753 90.494 83.1287 89.041 83.1287 87.1279C83.1287 86.2716 83.0277 85.495 83.4141 84.7223C83.7762 83.9981 84.6126 84.0315 84.9635 83.4175C85.267 82.8864 86.0008 82.5205 86.6148 82.5205C87.68 82.5205 88.1951 81.5093 89.0815 81.1343C90.2754 80.6292 91.5266 80.0737 92.3026 78.9325C93.3312 77.4199 94.8476 77.7501 96.543 77.7501C99.1077 77.7501 101.581 78.3069 104.208 78.0967C105.079 78.027 106.763 77.6268 107.531 77.1997C108.601 76.6055 109.579 78.3935 110.284 78.9325C113.2 81.1631 113.871 75.0079 114.769 73.4281C115.462 72.2083 115.788 71.7407 115.788 70.3294C115.788 69.9928 115.574 68.327 116.012 68.2296C117.631 67.8698 119.341 68.5959 120.742 67.4753C123.877 64.9675 123.184 60.1408 126.797 58.0159C130.186 56.0221 134.375 58.6793 137.051 60.6866C138.465 61.747 140.298 61.7468 141.475 63.3572C142.757 65.1109 145.394 64.5665 147.061 63.8872C148.222 63.4141 149.315 62.5397 150.486 61.9709C151.101 61.6723 151.681 61.5982 152.117 61.0535C152.859 60.1254 152.691 56.7013 154.298 57.4043C155.757 58.0428 155.419 60.0361 155.419 61.3185C155.419 63.0809 158.752 61.4982 159.374 60.5031C159.708 59.9697 162.678 59.539 163.492 59.4226C165.101 59.1928 166.795 58.2566 166.795 56.2831C166.795 53.2566 160.659 54.8562 162.106 50.6768C162.603 49.2414 164.372 48.5867 165.307 47.4965C166.392 46.2308 166.253 44.7452 166.979 43.4395C167.842 41.8854 166.981 41.2387 169.445 41.4213C171.117 41.5451 171.847 43.5396 172.952 41.0543C174.371 37.8605 165.421 36.6508 163.676 36.6508C162.093 36.6508 160.179 36.3227 158.722 36.9362C157.618 37.401 155.652 36.2338 154.4 36.2839C151.571 36.397 151.051 41.3419 149.324 42.6852C148.169 43.5834 146.185 43.623 144.778 43.623C142.485 43.623 142.481 42.3615 141.312 41.0543C140.276 39.8964 139.688 37.5768 137.826 39.7496C137.363 40.2889 137.438 40.7018 137.438 41.4213C137.438 42.2047 138.562 43.0642 138.478 43.4395C138.284 44.3134 135.618 44.798 134.87 45.1724C133.312 45.9513 131.367 46.5227 129.732 47.211C127.48 48.1592 124.353 50.2283 121.843 50.2283C120.803 50.2283 119.871 50.9992 118.805 50.1467C117.759 49.3095 116.557 48.5273 115.503 47.578C114.424 46.607 113.578 46.0939 112.322 45.2947C110.927 44.4071 109.012 45.2273 107.898 43.99C106.699 42.6579 106.981 41.483 106.981 39.668C106.981 39.0103 106.858 38.2111 107.001 37.5682C107.2 36.6751 108.051 36.2403 108.082 35.183C108.152 32.811 106.822 32.2007 105.309 30.963C103.837 29.7586 102.793 28.0313 101.313 26.7633C100.345 25.9336 98.3736 25.2751 97.0731 25.2751C95.1276 25.2751 93.3158 23.8827 91.9357 22.5026C90.8851 21.452 92.203 19.781 91.9153 18.4864C91.6945 17.4929 88.9985 17.0831 88.1845 16.9166C86.6378 16.6003 86.6931 16.4647 85.8809 15.0207C84.9303 13.3309 84.5965 12.9754 84.5965 10.9638C84.5965 8.79777 82.0674 8.39506 80.2746 8.39506C78.824 8.39506 79.4777 10.7503 78.5213 10.5764C76.7715 10.2583 75.7965 8.3463 74.1586 8.04849C72.6525 7.77465 70.1427 7.72414 68.8989 8.84357C67.6408 9.97579 66.0306 6.28066 65.2293 5.54095C62.4706 2.99451 59.6531 4.72549 56.5242 4.72549C54.9755 4.72549 53.8746 3.32119 52.2227 3.25766C51.202 3.2184 49.9415 3.09671 49.1851 2.34026C48.5509 1.70606 48.1141 1.05591 47.1668 1.05591" stroke="white" stroke-linecap="round"/>
</svg>
