<svg width="69" height="127" viewBox="0 0 69 127" fill="none" xmlns="http://www.w3.org/2000/svg">
<path d="M66.5377 49.7496C64.5941 47.8059 61.7673 46.4856 60.0425 44.3776C58.7687 42.8207 60.0073 39.5294 59.4809 37.687C59.2346 36.8251 57.4901 36.292 57.7716 35.0254C57.9698 34.1333 59.5721 33.5322 60.3843 33.4871C62.3674 33.3769 62.8176 30.6948 61.4587 29.336C60.22 28.0973 59.1764 27.0694 61.0436 25.5756C62.6731 24.272 62.2093 21.7682 60.8239 20.3013C59.3758 18.768 56.4408 19.4222 54.4507 19.4222C51.5857 19.4222 52.893 15.4422 51.9357 14.2456C50.9151 12.9698 51.0369 11.6331 48.9566 11.5107C47.7317 11.4387 48.0776 6.62005 48.0776 5.57713C48.0776 0.934808 44.0552 0.962095 40.3859 0.962095C39.1316 0.962095 35.4746 0.320034 34.5499 1.05977C33.5509 1.859 31.0934 2.35936 30.4965 3.40391C29.9254 4.40345 29.1779 4.35298 29.1779 5.57713C29.1779 6.66467 28.8954 7.4364 27.8594 7.89685C26.8413 8.34932 23.9036 8.48655 23.9036 9.97239C23.9036 12.7153 23.0226 13.2688 20.1921 13.2688C18.8008 13.2688 17.64 15.839 16.4317 16.4432C15.8622 16.7279 14.8363 17.7472 14.3317 18.2013C13.6283 18.8344 12.317 18.5432 11.3771 18.5432C8.93021 18.5432 8.08066 19.2393 8.08066 21.6198C8.08066 22.7965 5.33403 24.271 6.42023 25.4779C7.01736 26.1414 8.34938 26.1859 7.20161 27.3337C6.47 28.0653 5.71455 28.5741 4.80863 29.0918C3.37941 29.9085 3.6854 32.0691 3.6854 33.4871C3.6854 35.028 1.92729 35.4394 1.92729 37.223C1.92729 38.4109 1.78951 40.8272 3.07494 41.3985C5.19086 42.339 5.88303 43.5195 5.88303 45.7938C5.88303 47.219 2.08809 48.0345 4.32027 49.31C5.61869 50.052 6.20992 52.8816 5.54118 54.1448C4.80886 55.5281 3.34733 56.0719 2.58658 57.4413C1.55307 59.3016 1.99498 60.2382 2.90402 62.0563C3.65757 63.5634 3.24587 65.8732 3.24587 67.5504C3.24587 69.4005 4.56445 70.2889 4.56445 72.1654C4.56445 73.7053 3.85806 73.8677 2.80634 74.8026C2.22519 75.3192 1.23813 76.3762 2.80634 76.5607C3.87029 76.6859 2.80634 80.3948 2.80634 81.1757C2.80634 83.1693 1.48776 84.6534 1.48776 86.6698C1.48776 88.5012 1.48776 90.3325 1.48776 92.1639C1.48776 93.0511 1.48776 93.9383 1.48776 94.8255C1.48776 95.9773 2.77007 95.8773 2.14705 96.9987C1.28566 98.5492 1.0953 100.244 2.26914 101.711C3.2196 102.899 1.48776 105.379 1.48776 106.668C1.48776 108.579 3.1721 109.537 3.24587 111.381C3.33778 113.679 4.95566 114.366 6.22488 115.776C6.84085 116.461 6.44375 118.104 7.20161 118.951C8.38913 120.278 9.50236 120.435 11.1329 121.148C12.0761 121.561 13 122.461 14.0143 122.687C15.3771 122.989 15.8599 125.079 17.3107 125.69C19.6139 126.66 17.5122 119.043 18.434 118.78C19.6442 118.434 20.1495 119.809 21.0467 119.61C22.4919 119.289 22.3882 117.992 23.1222 117.095C23.8013 116.265 24.2639 116.595 24.685 117.437C25.1775 118.422 26.5252 118.755 27.6152 118.755C29.4033 118.755 33.2624 118.021 34.7941 118.951C35.5583 119.415 37.67 120.947 38.6522 120.074C39.0596 119.712 39.5764 117.994 39.9952 117.901C41.8232 117.494 45.5907 119.256 45.9044 117.217C46.2384 115.046 47.205 113.116 48.1753 111.283C48.6377 110.41 48.4639 109.604 48.5171 108.646C48.5689 107.714 49.3962 107.431 49.3962 106.229C49.3962 104.443 48.1459 102.481 48.0776 100.637C48.0042 98.6551 47.961 96.5635 48.0776 94.5813C48.1232 93.8052 49.2243 93.3993 49.4938 92.7255C49.9689 91.5379 50.8972 90.3424 51.1299 89.0628C51.5384 86.8158 51.582 85.7907 54.231 85.7907C56.0814 85.7907 57.3578 87.3374 59.3099 86.45C60.6201 85.8545 60.9634 85.6512 61.9471 84.6675C62.6006 84.014 63.3865 82.4777 64.5598 82.7385C65.5472 82.9579 65.9408 84.8629 66.7575 84.8629C67.6146 84.8629 68.3375 83.903 68.2958 83.1536C68.2511 82.3479 67.1175 81.8548 66.8796 80.9559C66.5093 79.5573 66.5377 78.2148 66.5377 76.7804C66.5377 75.6743 67.6616 75.3 67.8319 74.534C68.0651 73.4846 68.2958 71.9127 68.2958 70.8468C68.2958 69.8257 68.3495 68.7892 68.2958 67.7701C68.2271 66.4638 66.7004 67.0493 65.8784 66.8667C64.2689 66.509 63.7533 62.9904 64.6819 61.9586C66.0883 60.396 66.9988 58.3074 66.5133 56.1227C66.085 54.1956 66.5377 52.6597 66.5377 50.6286" stroke="white" stroke-linecap="round"/>
</svg>
