<svg width="108" height="56" viewBox="0 0 108 56" fill="none" xmlns="http://www.w3.org/2000/svg">
<path d="M1.66789 53.7079C2.9335 52.1354 4.74458 50.0893 4.74458 47.994C4.74458 45.8696 4.74458 43.7453 4.74458 41.6209C4.74458 38.8137 3.41466 34.9798 5.42828 32.3908C6.23963 31.3477 7.97401 30.654 9.13984 30.0711C10.8795 29.2013 11.2081 27.0749 12.4607 25.8223C13.4365 24.8465 14.7535 23.9208 15.6351 22.8433C16.4263 21.8763 15.5389 17.6279 16.856 17.2516C19.8952 16.3832 22.9209 16.3481 26.257 16.3481C26.8188 16.3481 30.9125 16.7959 31.2139 16.4946C32.0974 15.6111 32.6301 12.5267 32.8499 11.318C33.1091 9.89193 32.288 7.83253 33.3138 6.67852C34.3339 5.53097 33.6797 2.78165 34.8522 1.84372C37.3156 -0.127024 41.2315 1.8203 42.7881 3.82159C43.5154 4.75678 45.1628 5.10353 46.3043 4.89599C47.389 4.69877 49.981 4.15708 50.7972 3.50416C52.4197 2.20616 52.43 5.12903 52.6774 5.99481C53.0441 7.27839 54.6338 8.38063 55.8273 8.77848C57.1091 9.20574 58.9948 8.87615 60.3447 8.87615C61.98 8.87615 62.8214 10.1023 64.0807 10.7319C65.1498 11.2665 68.3806 11.0645 68.9155 11.7331C69.7113 12.7278 71.7582 13.883 72.8712 12.8319C74.1717 11.6036 76.3211 7.4023 78.5851 8.5343C79.3538 8.91868 79.9801 9.82864 80.9536 9.0715C81.6077 8.56273 81.577 7.63489 82.5408 8.46104C83.1853 9.01349 84.3026 10.836 85.2756 10.5366C85.9594 10.3262 86.717 9.35034 87.3756 9.31568C89.3173 9.21348 92.2527 8.79406 94.1638 9.34009C95.4528 9.70836 97.1453 10.3663 98.0219 8.87615C99.8498 5.7687 104.522 8.01316 106.178 9.85288C106.475 10.1829 107.043 17.9181 106.471 18.0818C105.282 18.4213 103.558 18.1062 102.319 18.1062C100.158 18.1062 99.2158 19.2671 97.6801 20.5236C96.5276 21.4666 95.0916 21.7788 94.0662 22.5991C92.2325 24.0661 91.8933 20.3038 90.2325 20.3038C88.5992 20.3038 88.01 22.062 86.4965 22.062C84.4419 22.062 84.3505 21.4069 82.7606 20.5236C81.3255 19.7264 80.4492 18.8527 79.3664 20.2062C78.2272 21.6302 79.0246 21.945 79.0246 23.6003C79.0246 26.2975 72.8712 21.342 72.8712 25.7979C72.8712 28.9607 69.8259 29.5339 67.3771 29.5339C64.8486 29.5339 62.302 29.7262 60.3447 31.292C59.735 31.7798 58.5204 33.8536 58.3913 34.564C58.1376 35.9591 55.8105 36.0715 55.7297 37.4454C55.4904 41.5137 52.9869 42.5171 49.1368 42.7197C48.2099 42.7685 47.6395 43.5988 46.7194 43.5988C45.8485 43.5988 44.9775 43.5988 44.1066 43.5988C42.7067 43.5988 41.3067 43.5988 39.9067 43.5988C38.3147 43.5988 37.0164 44.1131 35.7312 45.1127C34.235 46.2764 32.8254 45.3178 31.6534 44.3801C30.0436 43.0923 25.1362 43.0952 23.107 43.6964C20.7035 44.4086 17.6184 44.9851 15.8304 46.7731C14.0689 48.5346 11.8144 51.4842 9.4817 52.2916C8.18994 52.7388 6.74533 53.2683 5.40387 53.2683C4.01751 53.2683 2.82266 54.5869 1.22836 54.5869" stroke="white" stroke-linecap="round"/>
</svg>
