<svg width="87" height="113" viewBox="0 0 87 113" fill="none" xmlns="http://www.w3.org/2000/svg">
<path d="M52.2284 111.466C54.8318 107.886 55.305 105.059 55.305 100.698C55.305 99.0779 55.305 97.4581 55.305 95.8384C55.305 93.5342 53.5014 93.033 55.0609 91.028C57.4887 87.9065 60.639 84.6441 63.4607 81.8224C65.192 80.0911 65.4175 79.9607 65.8781 77.4271C66.1007 76.2031 68.4035 74.5458 69.5897 74.5458C71.5166 74.5458 73.155 73.6667 75.0837 73.6667C77.0588 73.6667 78.8831 74.1062 80.7976 74.1062C83.4654 74.1062 83.8743 72.9916 83.8743 70.59C83.8743 68.6599 82.9952 67.1957 82.9952 65.4134C82.9952 61.6923 85.6324 59.8032 85.6324 56.0856C85.6324 51.6302 85.195 49.1954 81.3348 46.4161C79.8195 45.3251 78.0708 44.1569 76.2314 43.3394C74.0555 42.3723 70.1381 44.0588 68.3199 42.2406C66.9199 40.8405 66.7193 39.2135 66.3176 37.4058C65.765 34.919 64.5761 33.9171 62.5817 33.0105C61.5002 32.5189 59.2608 32.5015 59.2608 30.8129C59.2608 28.8581 61.4584 29.0697 61.4584 27.2966C61.4584 26.0794 56.6326 25.5753 58.6015 24.0002C59.6113 23.1924 61.1273 21.6183 59.9201 20.6793C58.3343 19.4459 56.6236 17.8939 56.6236 15.869C56.6236 15.0858 56.4852 14.3938 56.9655 13.7934C57.257 13.429 58.0292 12.4144 57.9178 11.9132C57.7356 11.0934 56.1166 10.5366 55.6469 9.69116C55.1209 8.74431 55.0735 8.12404 54.8411 7.07842C54.5365 5.70764 53.9164 4.1701 52.4725 3.75755C50.9159 3.31279 42.9983 -0.569658 42.9983 2.24363C42.9983 5.71548 39.4821 7.60132 39.4821 11.0342C39.4821 11.6913 39.6384 12.5749 39.4577 13.2074C39.2502 13.9334 38.2038 14.1055 38.1635 15.112C38.0977 16.7575 39.1157 18.5153 40.8007 18.7259C42.0423 18.8811 42.9679 21.2183 41.6797 21.9002C40.0631 22.7561 38.5346 21.7087 36.8449 21.8026C35.0728 21.901 34.0116 23.5607 32.0101 23.5607C30.252 23.5607 28.4939 23.5607 26.7358 23.5607C25.0287 23.5607 23.566 23.699 22.2429 24.7816C20.96 25.8312 17.9837 26.6535 16.529 25.7583C11.5933 22.7209 11.3705 29.2379 8.08035 30.178C4.75682 31.1276 5.63853 35.5443 5.63853 38.2848C5.63853 41.132 -1.37364 41.9362 1.68279 45.7568C2.43342 46.6951 4.52057 46.2273 5.199 47.0753C5.68363 47.6811 6.30611 47.8889 6.95711 48.2718C7.68646 48.7009 7.49173 50.0354 8.08035 50.3718C8.81885 50.7938 9.08751 51.5065 9.81403 51.9101C10.6094 52.352 11.3927 52.4179 12.2314 52.9113C13.6625 53.7531 13.4638 55.4998 13.55 56.9647C13.6086 57.9605 15.7774 59.9021 16.529 60.5786C17.4894 61.4429 19.6894 61.36 21.022 61.36C23.6204 61.36 23.3019 62.0669 24.001 64.339C24.5337 66.0705 24.4747 67.3839 26.2963 68.2947C30.3161 70.3046 32.9311 70.2009 34.9891 74.5458C36.1184 76.9298 36.3511 79.7224 37.6263 82.0177C38.5668 83.7106 40.0244 84.665 40.8983 86.413C41.7677 88.1517 41.7826 89.7325 41.6797 91.6873C41.6242 92.742 39.3339 96.1024 40.0193 96.864C40.5566 97.461 42.0558 97.959 42.7785 98.2802C43.9048 98.7807 43.1698 100.003 43.5355 100.917C44.37 103.004 44.7708 104.772 47.2959 104.873C47.7115 104.89 50.406 108.883 50.4703 109.268C50.736 110.863 52.4721 111.074 53.1074 112.345" stroke="white" stroke-linecap="round"/>
</svg>
