<svg width="110" height="142" viewBox="0 0 110 142" fill="none" xmlns="http://www.w3.org/2000/svg">
<path d="M4.30131 8.02341H7.60262L10.4323 6.61873L14.6769 1.93645L18.4498 1L19.8646 5.21405L22.2227 5.68227L24.1092 3.34114L29.7686 1.93645L36.8428 2.87291L40.6157 6.61873L41.559 12.7057L46.2751 13.6421L50.048 15.9833L46.2751 22.5385L47.2183 30.9666H49.1048L52.4061 33.3077V37.5217L55.7074 38.9264V43.1405L57.1223 45.4816L68.9127 44.5452L73.6288 50.6321L72.214 55.3144L76.9301 59.5284L85.8908 60.9331L92.9651 58.1237L97.6812 54.3779L106.17 58.1237L103.341 63.2742L109 69.3612L107.585 77.7893L103.341 80.5987L100.039 86.6856L103.341 89.495L101.926 94.6455L96.2664 93.2408L94.8515 98.3913L90.607 99.796L88.7205 98.3913L87.3057 100.732L82.1179 98.3913V93.2408H75.5153L78.345 95.5819L76.9301 98.3913L72.214 100.732L73.6288 108.224L68.9127 121.334L62.7817 128.826L60.4236 131.167H50.048L42.9738 132.572L41.559 137.254H36.8428L33.5415 131.167L30.7118 135.381L29.7686 132.572H25.524L21.7511 139.595L15.6201 141L14.2052 137.254L9.9607 133.977V124.612L5.24454 114.779L6.18777 104.01L9.01747 99.796L15.6201 96.9866L14.2052 89.9632L15.6201 77.3211L12.7904 69.8294L7.60262 65.6154L6.18777 56.7191L11.3755 49.2274L12.7904 45.9498H7.60262V39.3946L5.24454 34.7124L6.18777 33.7759L7.60262 29.5619L6.18777 24.8796L1 23.0067V15.515L4.30131 13.1739V8.02341Z" stroke="white"/>
</svg>
